M48
INCH,TZ
T1C0.067
T2C0.120
T3C0.157
%
G90
G05
T1
X0.55Y-1.5937
X0.55Y-2.3437
X0.55Y-3.0937
X0.55Y-3.8437
X0.95Y-1.5937
X0.95Y-2.3437
X0.95Y-3.0937
X0.95Y-3.8437
X1.3Y-1.5937
X1.3Y-2.3437
X1.3Y-3.0937
X1.3Y-3.8437
X1.7Y-1.5937
X1.7Y-2.3437
X1.7Y-3.0937
X1.7Y-3.8437
X2.05Y-1.5937
X2.05Y-2.3437
X2.05Y-3.0937
X2.05Y-3.8437
X2.45Y-1.5937
X2.45Y-2.3437
X2.45Y-3.0937
X2.45Y-3.8437
X2.8Y-1.5937
X2.8Y-2.3437
X2.8Y-3.0937
X3.175Y-3.8437
X3.2Y-1.5937
X3.2Y-2.3437
X3.2Y-3.0937
X3.55Y-1.5937
X3.55Y-2.3437
X3.55Y-3.0937
X3.575Y-3.8437
X3.95Y-1.5937
X3.95Y-2.3437
X3.95Y-3.0937
X4.3Y-1.5937
X4.3Y-2.3437
X4.3Y-3.0937
X4.675Y-3.8437
X4.7Y-1.5937
X4.7Y-2.3437
X4.7Y-3.0937
X5.05Y-1.5937
X5.05Y-2.3437
X5.05Y-3.0937
X5.075Y-3.8437
X5.45Y-1.5937
X5.45Y-2.3437
X5.45Y-3.0937
X5.8Y-1.5937
X5.8Y-2.3437
X5.8Y-3.0937
X6.175Y-3.8437
X6.2Y-1.5937
X6.2Y-2.3437
X6.2Y-3.0937
X6.55Y-1.5937
X6.55Y-2.3437
X6.55Y-3.0937
X6.575Y-3.8437
X6.95Y-1.5937
X6.95Y-2.3437
X6.95Y-3.0937
X7.3Y-1.5937
X7.3Y-2.3437
X7.3Y-3.0937
X7.3Y-3.8437
X7.7Y-1.5937
X7.7Y-2.3437
X7.7Y-3.0937
X7.7Y-3.8437
X8.05Y-1.5937
X8.05Y-2.3437
X8.05Y-3.0937
X8.05Y-3.8437
X8.45Y-1.5937
X8.45Y-2.3437
X8.45Y-3.0937
X8.45Y-3.8437
X8.8Y-1.5937
X8.8Y-2.3437
X8.8Y-3.0937
X8.9875Y-4.0313
X9.2Y-1.5937
X9.2Y-2.3437
X9.2Y-3.0937
X9.3875Y-4.0313
X9.7375Y-3.2813
X9.7375Y-4.0313
X9.925Y-1.5937
X9.925Y-2.3437
X10.1375Y-3.2813
X10.1375Y-4.0313
X10.325Y-1.5937
X10.325Y-2.3437
X10.4875Y-4.0313
X10.675Y-1.5937
X10.675Y-2.3437
X10.8875Y-4.0313
X11.075Y-1.5937
X11.075Y-2.3437
T2
X2.905Y-3.5687
X3.845Y-3.5687
X4.405Y-3.5687
X5.345Y-3.5687
X5.905Y-3.5687
X6.845Y-3.5687
T3
X0.75Y-1.5937
X0.75Y-2.3437
X0.75Y-3.0937
X0.75Y-3.8437
X1.5Y-1.5937
X1.5Y-2.3437
X1.5Y-3.0937
X1.5Y-3.8437
X2.25Y-1.5937
X2.25Y-2.3437
X2.25Y-3.0937
X2.25Y-3.8437
X2.905Y-4.1687
X3.Y-1.5937
X3.Y-2.3437
X3.Y-3.0937
X3.375Y-3.8437
X3.75Y-1.5937
X3.75Y-2.3437
X3.75Y-3.0937
X3.845Y-4.1687
X4.405Y-4.1687
X4.5Y-1.5937
X4.5Y-2.3437
X4.5Y-3.0937
X4.875Y-3.8437
X5.25Y-1.5937
X5.25Y-2.3437
X5.25Y-3.0937
X5.345Y-4.1687
X5.905Y-4.1687
X6.Y-1.5937
X6.Y-2.3437
X6.Y-3.0937
X6.375Y-3.8437
X6.75Y-1.5937
X6.75Y-2.3437
X6.75Y-3.0937
X6.845Y-4.1687
X7.5Y-1.5937
X7.5Y-2.3437
X7.5Y-3.0937
X7.5Y-3.8437
X8.25Y-1.5937
X8.25Y-2.3437
X8.25Y-3.0937
X8.25Y-3.8437
X9.Y-1.5937
X9.Y-2.3437
X9.Y-3.0937
X9.1875Y-4.0313
X9.9375Y-3.2813
X9.9375Y-4.0313
X10.125Y-1.5937
X10.125Y-2.3437
X10.6875Y-4.0313
X10.875Y-1.5937
X10.875Y-2.3437
T0
M30
