M48
INCH,TZ
T1C0.016
T2C0.028
T3C0.035
T4C0.043
T5C0.059
T6C0.110
%
G90
G05
T1
X0.83Y-1.76
X0.83Y-3.34
X0.93Y-1.68
X0.93Y-3.34
X1.21Y-1.94
X1.22Y-2.41
X1.37Y-3.3
X1.58Y-3.34
X1.6Y-2.7
X1.62Y-3.31
X1.7Y-3.31
X1.75Y-3.34
X1.76Y-2.54
X1.76Y-2.72
X1.76Y-4.33
X1.8Y-2.54
X1.8Y-2.69
X1.8Y-3.02
X1.8Y-3.14
X1.8Y-4.16
X1.83Y-2.27
X1.83Y-2.66
X1.83Y-3.01
X1.83Y-3.1
X1.83Y-3.24
X1.84Y-1.81
X1.86Y-1.97
X1.86Y-2.02
X1.86Y-2.37
X1.86Y-2.63
X2.Y-2.78
X2.03Y-1.67
X2.04Y-2.84
X2.05Y-2.08
X2.15Y-2.84
X2.22Y-3.3
X2.24Y-2.03
X2.32Y-1.79
X2.33Y-1.76
X2.34Y-1.72
X2.34Y-1.82
X2.35Y-1.5
X2.35Y-2.56
X2.36Y-3.27
X2.39Y-2.81
X2.4Y-1.76
X2.4Y-1.82
X2.44Y-1.79
X2.44Y-2.57
X2.46Y-3.27
X2.53Y-2.33
X2.56Y-3.3
X2.64Y-1.36
X2.6401Y-1.2433
X2.67Y-1.97
X2.67Y-2.61
X2.67Y-4.25
X2.68Y-1.25
X2.68Y-1.33
X2.69Y-1.37
X2.78Y-1.34
X2.78Y-2.41
X2.78Y-2.47
X2.82Y-1.77
X2.9Y-1.77
X2.91Y-2.75
X2.92Y-3.27
X2.94Y-2.58
X2.99Y-1.25
X3.02Y-3.3
X3.09Y-3.69
X3.09Y-3.75
X3.09Y-4.33
X3.14Y-2.32
X3.17Y-2.47
X3.27Y-2.47
X3.28Y-3.3
X3.37Y-2.41
X3.44Y-3.57
X3.5Y-4.04
X3.58Y-2.41
X3.58Y-2.72
X3.59Y-3.57
X3.64Y-3.96
X3.7Y-3.3
X3.76Y-1.77
X3.95Y-2.56
X3.97Y-1.77
X4.Y-2.62
X4.02Y-2.66
X4.06Y-2.58
X4.1Y-2.01
X4.12Y-2.66
X4.12Y-3.27
X4.17Y-2.61
X4.21Y-2.46
X4.21Y-2.55
X4.21Y-3.3
X4.22Y-2.58
X4.23Y-1.93
X4.35Y-3.33
X4.5Y-3.3
X4.57Y-1.77
X4.57Y-1.81
X4.75Y-3.3
X4.79Y-1.77
X4.86Y-2.27
X4.86Y-2.41
X4.89Y-1.81
X5.01Y-2.22
X5.2Y-3.32
X5.27Y-1.8
X5.33Y-1.77
X5.41Y-1.77
X5.46Y-1.8
X5.66Y-2.05
X5.66Y-2.45
X5.67Y-3.32
X5.92Y-1.77
X5.99Y-3.32
X6.03Y-1.8
X6.12Y-2.51
X6.14Y-3.72
X6.15Y-3.52
X6.27Y-1.8
X6.28Y-3.32
X6.44Y-1.77
X6.45Y-2.64
X6.46Y-3.76
X6.53Y-1.77
X6.73Y-3.31
X6.77Y-1.79
X6.98Y-1.79
X6.99Y-2.51
X6.99Y-3.31
X7.01Y-1.76
X7.08Y-2.06
X7.1Y-1.76
X7.1Y-1.83
X7.2Y-3.76
X7.23Y-2.
X7.24Y-2.7
X7.38Y-1.76
X7.43Y-3.31
X7.46Y-2.55
X7.46Y-2.64
X7.52Y-2.55
X7.55Y-1.79
X7.58Y-1.75
X7.65Y-1.75
X7.73Y-3.31
X7.84Y-1.79
X7.85Y-2.58
X7.88Y-2.53
X7.89Y-2.73
X7.99Y-3.61
X8.01Y-2.26
X8.01Y-2.53
X8.08Y-2.58
X8.31Y-3.32
X8.36Y-1.77
X8.48Y-1.92
X8.52Y-3.32
X8.66Y-3.42
X8.66Y-4.01
X8.69Y-2.54
X8.71Y-2.03
X8.79Y-3.7
X8.8Y-4.1
X8.84Y-3.7
X8.85Y-4.29
X8.88Y-1.84
X8.93Y-3.32
X9.24Y-3.32
X9.31Y-2.79
X9.33Y-1.5
X9.36Y-1.7
X9.37Y-2.81
X9.39Y-1.85
X9.55Y-2.09
X9.56Y-2.22
X9.56Y-2.62
X9.62Y-1.78
X9.85Y-2.59
X9.88Y-2.07
X10.22Y-1.78
X10.31Y-2.07
X10.33Y-1.78
T2
X0.5965Y-1.9219
X0.5965Y-2.0156
X0.5965Y-3.4219
X0.5965Y-3.5156
X0.9035Y-1.9219
X0.9035Y-2.0156
X0.9035Y-3.4219
X0.9035Y-3.5156
X1.3465Y-1.9219
X1.3465Y-2.0156
X1.3465Y-3.4219
X1.3465Y-3.5156
X1.6535Y-1.9219
X1.6535Y-2.0156
X1.6535Y-3.4219
X1.6535Y-3.5156
X2.0965Y-3.4219
X2.0965Y-3.5156
X2.4035Y-3.4219
X2.4035Y-3.5156
X2.6484Y-1.4402
X2.6484Y-1.7473
X2.6484Y-2.1902
X2.6484Y-2.4973
X2.8465Y-1.9219
X2.8465Y-2.0156
X2.8465Y-3.4219
X3.1535Y-1.9219
X3.1535Y-2.0156
X3.1535Y-3.4219
X3.2215Y-3.5156
X3.5285Y-3.5156
X3.5965Y-1.9219
X3.5965Y-2.0156
X3.5965Y-3.4219
X3.9035Y-1.9219
X3.9035Y-2.0156
X3.9035Y-3.4219
X4.3465Y-1.9219
X4.3465Y-2.0156
X4.3465Y-3.4219
X4.6535Y-1.9219
X4.6535Y-2.0156
X4.6535Y-3.4219
X4.7215Y-3.5156
X5.0285Y-3.5156
X5.0965Y-1.9219
X5.0965Y-2.0156
X5.0965Y-3.4219
X5.4035Y-1.9219
X5.4035Y-2.0156
X5.4035Y-3.4219
X5.8465Y-1.9219
X5.8465Y-2.0391
X5.8465Y-3.4219
X6.1535Y-1.9219
X6.1535Y-2.0391
X6.1535Y-3.4219
X6.2215Y-3.5156
X6.5285Y-3.5156
X6.5965Y-1.9219
X6.5965Y-2.0156
X6.5965Y-3.4219
X6.9035Y-1.9219
X6.9035Y-2.0156
X6.9035Y-3.4219
X7.3465Y-1.9219
X7.3465Y-2.0156
X7.3465Y-3.4219
X7.3465Y-3.5156
X7.6535Y-1.9219
X7.6535Y-2.0156
X7.6535Y-3.4219
X7.6535Y-3.5156
X8.0965Y-1.9219
X8.0965Y-2.0156
X8.0965Y-3.4219
X8.0965Y-3.5156
X8.4035Y-1.9219
X8.4035Y-2.0156
X8.4035Y-3.4219
X8.4035Y-3.5156
X8.8465Y-1.9219
X8.8465Y-2.0156
X8.8465Y-3.4219
X9.0339Y-3.7031
X9.1535Y-1.9219
X9.1535Y-2.0156
X9.1535Y-3.4219
X9.341Y-3.7031
X9.7839Y-3.6094
X9.7839Y-3.7031
X9.9715Y-1.9219
X9.9715Y-2.0156
X10.091Y-3.6094
X10.091Y-3.7031
X10.2785Y-1.9219
X10.2785Y-2.0156
X10.5339Y-3.7031
X10.7215Y-1.9219
X10.7215Y-2.0156
X10.841Y-3.7031
X11.0285Y-1.9219
X11.0285Y-2.0156
T3
X9.56Y-1.9
X9.5625Y-1.5
X9.5625Y-1.6875
T4
X1.95Y-1.3719
X1.95Y-1.4719
X1.95Y-1.5719
X1.95Y-1.6719
X1.95Y-1.7719
X1.95Y-1.8719
X1.95Y-1.9719
X1.95Y-2.0719
X1.95Y-2.1719
X1.95Y-2.2719
X1.95Y-2.3719
X1.95Y-2.4719
X2.55Y-1.3719
X2.55Y-1.4719
X2.55Y-1.5719
X2.55Y-1.6719
X2.55Y-1.7719
X2.55Y-1.8719
X2.55Y-1.9719
X2.55Y-2.0719
X2.55Y-2.1719
X2.55Y-2.2719
X2.55Y-2.3719
X2.55Y-2.4719
T6
X1.125Y-1.9687
X1.125Y-3.4687
X4.875Y-2.7187
X7.875Y-1.9687
X7.875Y-3.4687
X10.5Y-1.9687
T5
X0.6319Y-1.4363G85X0.6Y-1.4937
G05
X0.6319Y-2.1863G85X0.6Y-2.2437
G05
X0.6319Y-2.9363G85X0.6Y-2.9937
G05
X0.6319Y-3.6863G85X0.6Y-3.7437
G05
X0.85Y-1.3938G85X0.8484Y-1.4166
G05
X0.85Y-2.1438G85X0.8484Y-2.1666
G05
X0.85Y-2.8938G85X0.8484Y-2.9166
G05
X0.85Y-3.6438G85X0.8484Y-3.6666
G05
X1.3819Y-1.4363G85X1.35Y-1.4937
G05
X1.3819Y-2.1863G85X1.35Y-2.2437
G05
X1.3819Y-2.9363G85X1.35Y-2.9937
G05
X1.3819Y-3.6863G85X1.35Y-3.7437
G05
X1.6Y-1.3938G85X1.5984Y-1.4166
G05
X1.6Y-2.1438G85X1.5984Y-2.1666
G05
X1.6Y-2.8938G85X1.5984Y-2.9166
G05
X1.6Y-3.6438G85X1.5984Y-3.6666
G05
X2.1319Y-1.4363G85X2.1Y-1.4937
G05
X2.1319Y-2.1863G85X2.1Y-2.2437
G05
X2.1319Y-2.9363G85X2.1Y-2.9937
G05
X2.1319Y-3.6863G85X2.1Y-3.7437
G05
X2.35Y-1.3938G85X2.3484Y-1.4166
G05
X2.35Y-2.1438G85X2.3484Y-2.1666
G05
X2.35Y-2.8938G85X2.3484Y-2.9166
G05
X2.35Y-3.6438G85X2.3484Y-3.6666
G05
X2.8819Y-1.4363G85X2.85Y-1.4937
G05
X2.8819Y-2.1863G85X2.85Y-2.2437
G05
X2.8819Y-2.9363G85X2.85Y-2.9937
G05
X3.1Y-1.3938G85X3.0984Y-1.4166
G05
X3.1Y-2.1438G85X3.0984Y-2.1666
G05
X3.1Y-2.8938G85X3.0984Y-2.9166
G05
X3.2569Y-3.6863G85X3.225Y-3.7437
G05
X3.475Y-3.6438G85X3.4734Y-3.6666
G05
X3.6319Y-1.4363G85X3.6Y-1.4937
G05
X3.6319Y-2.1863G85X3.6Y-2.2437
G05
X3.6319Y-2.9363G85X3.6Y-2.9937
G05
X3.85Y-1.3938G85X3.8484Y-1.4166
G05
X3.85Y-2.1438G85X3.8484Y-2.1666
G05
X3.85Y-2.8938G85X3.8484Y-2.9166
G05
X4.3819Y-1.4363G85X4.35Y-1.4937
G05
X4.3819Y-2.1863G85X4.35Y-2.2437
G05
X4.3819Y-2.9363G85X4.35Y-2.9937
G05
X4.6Y-1.3938G85X4.5984Y-1.4166
G05
X4.6Y-2.1438G85X4.5984Y-2.1666
G05
X4.6Y-2.8938G85X4.5984Y-2.9166
G05
X4.7569Y-3.6863G85X4.725Y-3.7437
G05
X4.975Y-3.6438G85X4.9734Y-3.6666
G05
X5.1319Y-1.4363G85X5.1Y-1.4937
G05
X5.1319Y-2.1863G85X5.1Y-2.2437
G05
X5.1319Y-2.9363G85X5.1Y-2.9937
G05
X5.35Y-1.3938G85X5.3484Y-1.4166
G05
X5.35Y-2.1438G85X5.3484Y-2.1666
G05
X5.35Y-2.8938G85X5.3484Y-2.9166
G05
X5.8819Y-1.4363G85X5.85Y-1.4937
G05
X5.8819Y-2.1863G85X5.85Y-2.2437
G05
X5.8819Y-2.9363G85X5.85Y-2.9937
G05
X6.1Y-1.3938G85X6.0984Y-1.4166
G05
X6.1Y-2.1438G85X6.0984Y-2.1666
G05
X6.1Y-2.8938G85X6.0984Y-2.9166
G05
X6.2569Y-3.6863G85X6.225Y-3.7437
G05
X6.475Y-3.6438G85X6.4734Y-3.6666
G05
X6.6319Y-1.4363G85X6.6Y-1.4937
G05
X6.6319Y-2.1863G85X6.6Y-2.2437
G05
X6.6319Y-2.9363G85X6.6Y-2.9937
G05
X6.85Y-1.3938G85X6.8484Y-1.4166
G05
X6.85Y-2.1438G85X6.8484Y-2.1666
G05
X6.85Y-2.8938G85X6.8484Y-2.9166
G05
X7.3819Y-1.4363G85X7.35Y-1.4937
G05
X7.3819Y-2.1863G85X7.35Y-2.2437
G05
X7.3819Y-2.9363G85X7.35Y-2.9937
G05
X7.3819Y-3.6863G85X7.35Y-3.7437
G05
X7.6Y-1.3938G85X7.5984Y-1.4166
G05
X7.6Y-2.1438G85X7.5984Y-2.1666
G05
X7.6Y-2.8938G85X7.5984Y-2.9166
G05
X7.6Y-3.6438G85X7.5984Y-3.6666
G05
X8.1319Y-1.4363G85X8.1Y-1.4937
G05
X8.1319Y-2.1863G85X8.1Y-2.2437
G05
X8.1319Y-2.9363G85X8.1Y-2.9937
G05
X8.1319Y-3.6863G85X8.1Y-3.7437
G05
X8.35Y-1.3938G85X8.3484Y-1.4166
G05
X8.35Y-2.1438G85X8.3484Y-2.1666
G05
X8.35Y-2.8938G85X8.3484Y-2.9166
G05
X8.35Y-3.6438G85X8.3484Y-3.6666
G05
X8.8819Y-1.4363G85X8.85Y-1.4937
G05
X8.8819Y-2.1863G85X8.85Y-2.2437
G05
X8.8819Y-2.9363G85X8.85Y-2.9937
G05
X9.0694Y-3.8738G85X9.0375Y-3.9313
G05
X9.1Y-1.3938G85X9.0984Y-1.4166
G05
X9.1Y-2.1438G85X9.0984Y-2.1666
G05
X9.1Y-2.8938G85X9.0984Y-2.9166
G05
X9.2875Y-3.8313G85X9.2859Y-3.8541
G05
X9.8194Y-3.1238G85X9.7875Y-3.1813
G05
X9.8194Y-3.8738G85X9.7875Y-3.9313
G05
X10.0069Y-1.4363G85X9.975Y-1.4937
G05
X10.0069Y-2.1863G85X9.975Y-2.2437
G05
X10.0375Y-3.0813G85X10.0359Y-3.1041
G05
X10.0375Y-3.8313G85X10.0359Y-3.8541
G05
X10.225Y-1.3938G85X10.2234Y-1.4166
G05
X10.225Y-2.1438G85X10.2234Y-2.1666
G05
X10.5694Y-3.8738G85X10.5375Y-3.9313
G05
X10.7569Y-1.4363G85X10.725Y-1.4937
G05
X10.7569Y-2.1863G85X10.725Y-2.2437
G05
X10.7875Y-3.8313G85X10.7859Y-3.8541
G05
X10.975Y-1.3938G85X10.9734Y-1.4166
G05
X10.975Y-2.1438G85X10.9734Y-2.1666
G05
T0
M30
