G04 #@! TF.FileFunction,Legend,Top*
%FSLAX46Y46*%
G04 Gerber Fmt 4.6, Leading zero omitted, Abs format (unit mm)*
G04 Created by KiCad (PCBNEW 4.0.7) date 07/12/18 08:23:41*
%MOMM*%
%LPD*%
G01*
G04 APERTURE LIST*
%ADD10C,0.100000*%
%ADD11C,0.381000*%
%ADD12C,0.203200*%
G04 APERTURE END LIST*
D10*
D11*
X222250000Y-53181200D02*
X224028000Y-53181200D01*
X233172000Y-53181200D02*
X234950000Y-53181200D01*
X234950000Y-53181200D02*
X234950000Y-54959200D01*
X234950000Y-64103200D02*
X234950000Y-65881200D01*
X234950000Y-65881200D02*
X233172000Y-65881200D01*
X224028000Y-65881200D02*
X222250000Y-65881200D01*
X222250000Y-65881200D02*
X222250000Y-64103200D01*
X222250000Y-54959200D02*
X222250000Y-53181200D01*
X203200000Y-72231200D02*
X204978000Y-72231200D01*
X214122000Y-72231200D02*
X215900000Y-72231200D01*
X215900000Y-72231200D02*
X215900000Y-74009200D01*
X215900000Y-83153200D02*
X215900000Y-84931200D01*
X215900000Y-84931200D02*
X214122000Y-84931200D01*
X204978000Y-84931200D02*
X203200000Y-84931200D01*
X203200000Y-84931200D02*
X203200000Y-83153200D01*
X203200000Y-74009200D02*
X203200000Y-72231200D01*
X203200000Y-53181200D02*
X204978000Y-53181200D01*
X214122000Y-53181200D02*
X215900000Y-53181200D01*
X215900000Y-53181200D02*
X215900000Y-54959200D01*
X215900000Y-64103200D02*
X215900000Y-65881200D01*
X215900000Y-65881200D02*
X214122000Y-65881200D01*
X204978000Y-65881200D02*
X203200000Y-65881200D01*
X203200000Y-65881200D02*
X203200000Y-64103200D01*
X203200000Y-54959200D02*
X203200000Y-53181200D01*
X165100000Y-72231200D02*
X166878000Y-72231200D01*
X176022000Y-72231200D02*
X177800000Y-72231200D01*
X177800000Y-72231200D02*
X177800000Y-74009200D01*
X177800000Y-83153200D02*
X177800000Y-84931200D01*
X177800000Y-84931200D02*
X176022000Y-84931200D01*
X166878000Y-84931200D02*
X165100000Y-84931200D01*
X165100000Y-84931200D02*
X165100000Y-83153200D01*
X165100000Y-74009200D02*
X165100000Y-72231200D01*
X184150000Y-72231200D02*
X185928000Y-72231200D01*
X195072000Y-72231200D02*
X196850000Y-72231200D01*
X196850000Y-72231200D02*
X196850000Y-74009200D01*
X196850000Y-83153200D02*
X196850000Y-84931200D01*
X196850000Y-84931200D02*
X195072000Y-84931200D01*
X185928000Y-84931200D02*
X184150000Y-84931200D01*
X184150000Y-84931200D02*
X184150000Y-83153200D01*
X184150000Y-74009200D02*
X184150000Y-72231200D01*
X31750000Y-53181200D02*
X33528000Y-53181200D01*
X42672000Y-53181200D02*
X44450000Y-53181200D01*
X44450000Y-53181200D02*
X44450000Y-54959200D01*
X44450000Y-64103200D02*
X44450000Y-65881200D01*
X44450000Y-65881200D02*
X42672000Y-65881200D01*
X33528000Y-65881200D02*
X31750000Y-65881200D01*
X31750000Y-65881200D02*
X31750000Y-64103200D01*
X31750000Y-54959200D02*
X31750000Y-53181200D01*
X107950000Y-72231200D02*
X109728000Y-72231200D01*
X118872000Y-72231200D02*
X120650000Y-72231200D01*
X120650000Y-72231200D02*
X120650000Y-74009200D01*
X120650000Y-83153200D02*
X120650000Y-84931200D01*
X120650000Y-84931200D02*
X118872000Y-84931200D01*
X109728000Y-84931200D02*
X107950000Y-84931200D01*
X107950000Y-84931200D02*
X107950000Y-83153200D01*
X107950000Y-74009200D02*
X107950000Y-72231200D01*
X222250000Y-34131200D02*
X224028000Y-34131200D01*
X233172000Y-34131200D02*
X234950000Y-34131200D01*
X234950000Y-34131200D02*
X234950000Y-35909200D01*
X234950000Y-45053200D02*
X234950000Y-46831200D01*
X234950000Y-46831200D02*
X233172000Y-46831200D01*
X224028000Y-46831200D02*
X222250000Y-46831200D01*
X222250000Y-46831200D02*
X222250000Y-45053200D01*
X222250000Y-35909200D02*
X222250000Y-34131200D01*
X250825000Y-53181200D02*
X252603000Y-53181200D01*
X261747000Y-53181200D02*
X263525000Y-53181200D01*
X263525000Y-53181200D02*
X263525000Y-54959200D01*
X263525000Y-64103200D02*
X263525000Y-65881200D01*
X263525000Y-65881200D02*
X261747000Y-65881200D01*
X252603000Y-65881200D02*
X250825000Y-65881200D01*
X250825000Y-65881200D02*
X250825000Y-64103200D01*
X250825000Y-54959200D02*
X250825000Y-53181200D01*
X269875000Y-53181200D02*
X271653000Y-53181200D01*
X280797000Y-53181200D02*
X282575000Y-53181200D01*
X282575000Y-53181200D02*
X282575000Y-54959200D01*
X282575000Y-64103200D02*
X282575000Y-65881200D01*
X282575000Y-65881200D02*
X280797000Y-65881200D01*
X271653000Y-65881200D02*
X269875000Y-65881200D01*
X269875000Y-65881200D02*
X269875000Y-64103200D01*
X269875000Y-54959200D02*
X269875000Y-53181200D01*
X69850000Y-72231200D02*
X71628000Y-72231200D01*
X80772000Y-72231200D02*
X82550000Y-72231200D01*
X82550000Y-72231200D02*
X82550000Y-74009200D01*
X82550000Y-83153200D02*
X82550000Y-84931200D01*
X82550000Y-84931200D02*
X80772000Y-84931200D01*
X71628000Y-84931200D02*
X69850000Y-84931200D01*
X69850000Y-84931200D02*
X69850000Y-83153200D01*
X69850000Y-74009200D02*
X69850000Y-72231200D01*
X12700000Y-91281200D02*
X14478000Y-91281200D01*
X23622000Y-91281200D02*
X25400000Y-91281200D01*
X25400000Y-91281200D02*
X25400000Y-93059200D01*
X25400000Y-102203200D02*
X25400000Y-103981200D01*
X25400000Y-103981200D02*
X23622000Y-103981200D01*
X14478000Y-103981200D02*
X12700000Y-103981200D01*
X12700000Y-103981200D02*
X12700000Y-102203200D01*
X12700000Y-93059200D02*
X12700000Y-91281200D01*
X69850000Y-53181200D02*
X71628000Y-53181200D01*
X80772000Y-53181200D02*
X82550000Y-53181200D01*
X82550000Y-53181200D02*
X82550000Y-54959200D01*
X82550000Y-64103200D02*
X82550000Y-65881200D01*
X82550000Y-65881200D02*
X80772000Y-65881200D01*
X71628000Y-65881200D02*
X69850000Y-65881200D01*
X69850000Y-65881200D02*
X69850000Y-64103200D01*
X69850000Y-54959200D02*
X69850000Y-53181200D01*
X246062000Y-96044000D02*
X247840000Y-96044000D01*
X256984000Y-96044000D02*
X258762000Y-96044000D01*
X258762000Y-96044000D02*
X258762000Y-97822000D01*
X258762000Y-106966000D02*
X258762000Y-108744000D01*
X258762000Y-108744000D02*
X256984000Y-108744000D01*
X247840000Y-108744000D02*
X246062000Y-108744000D01*
X246062000Y-108744000D02*
X246062000Y-106966000D01*
X246062000Y-97822000D02*
X246062000Y-96044000D01*
X69850000Y-34131200D02*
X71628000Y-34131200D01*
X80772000Y-34131200D02*
X82550000Y-34131200D01*
X82550000Y-34131200D02*
X82550000Y-35909200D01*
X82550000Y-45053200D02*
X82550000Y-46831200D01*
X82550000Y-46831200D02*
X80772000Y-46831200D01*
X71628000Y-46831200D02*
X69850000Y-46831200D01*
X69850000Y-46831200D02*
X69850000Y-45053200D01*
X69850000Y-35909200D02*
X69850000Y-34131200D01*
X12700000Y-53181200D02*
X14478000Y-53181200D01*
X23622000Y-53181200D02*
X25400000Y-53181200D01*
X25400000Y-53181200D02*
X25400000Y-54959200D01*
X25400000Y-64103200D02*
X25400000Y-65881200D01*
X25400000Y-65881200D02*
X23622000Y-65881200D01*
X14478000Y-65881200D02*
X12700000Y-65881200D01*
X12700000Y-65881200D02*
X12700000Y-64103200D01*
X12700000Y-54959200D02*
X12700000Y-53181200D01*
X88900000Y-53181200D02*
X90678000Y-53181200D01*
X99822000Y-53181200D02*
X101600000Y-53181200D01*
X101600000Y-53181200D02*
X101600000Y-54959200D01*
X101600000Y-64103200D02*
X101600000Y-65881200D01*
X101600000Y-65881200D02*
X99822000Y-65881200D01*
X90678000Y-65881200D02*
X88900000Y-65881200D01*
X88900000Y-65881200D02*
X88900000Y-64103200D01*
X88900000Y-54959200D02*
X88900000Y-53181200D01*
X203200000Y-91281200D02*
X204978000Y-91281200D01*
X214122000Y-91281200D02*
X215900000Y-91281200D01*
X215900000Y-91281200D02*
X215900000Y-93059200D01*
X215900000Y-102203200D02*
X215900000Y-103981200D01*
X215900000Y-103981200D02*
X214122000Y-103981200D01*
X204978000Y-103981200D02*
X203200000Y-103981200D01*
X203200000Y-103981200D02*
X203200000Y-102203200D01*
X203200000Y-93059200D02*
X203200000Y-91281200D01*
X107950000Y-53181200D02*
X109728000Y-53181200D01*
X118872000Y-53181200D02*
X120650000Y-53181200D01*
X120650000Y-53181200D02*
X120650000Y-54959200D01*
X120650000Y-64103200D02*
X120650000Y-65881200D01*
X120650000Y-65881200D02*
X118872000Y-65881200D01*
X109728000Y-65881200D02*
X107950000Y-65881200D01*
X107950000Y-65881200D02*
X107950000Y-64103200D01*
X107950000Y-54959200D02*
X107950000Y-53181200D01*
X127000000Y-53181200D02*
X128778000Y-53181200D01*
X137922000Y-53181200D02*
X139700000Y-53181200D01*
X139700000Y-53181200D02*
X139700000Y-54959200D01*
X139700000Y-64103200D02*
X139700000Y-65881200D01*
X139700000Y-65881200D02*
X137922000Y-65881200D01*
X128778000Y-65881200D02*
X127000000Y-65881200D01*
X127000000Y-65881200D02*
X127000000Y-64103200D01*
X127000000Y-54959200D02*
X127000000Y-53181200D01*
X165100000Y-34131200D02*
X166878000Y-34131200D01*
X176022000Y-34131200D02*
X177800000Y-34131200D01*
X177800000Y-34131200D02*
X177800000Y-35909200D01*
X177800000Y-45053200D02*
X177800000Y-46831200D01*
X177800000Y-46831200D02*
X176022000Y-46831200D01*
X166878000Y-46831200D02*
X165100000Y-46831200D01*
X165100000Y-46831200D02*
X165100000Y-45053200D01*
X165100000Y-35909200D02*
X165100000Y-34131200D01*
X146050000Y-53181200D02*
X147828000Y-53181200D01*
X156972000Y-53181200D02*
X158750000Y-53181200D01*
X158750000Y-53181200D02*
X158750000Y-54959200D01*
X158750000Y-64103200D02*
X158750000Y-65881200D01*
X158750000Y-65881200D02*
X156972000Y-65881200D01*
X147828000Y-65881200D02*
X146050000Y-65881200D01*
X146050000Y-65881200D02*
X146050000Y-64103200D01*
X146050000Y-54959200D02*
X146050000Y-53181200D01*
X165100000Y-53181200D02*
X166878000Y-53181200D01*
X176022000Y-53181200D02*
X177800000Y-53181200D01*
X177800000Y-53181200D02*
X177800000Y-54959200D01*
X177800000Y-64103200D02*
X177800000Y-65881200D01*
X177800000Y-65881200D02*
X176022000Y-65881200D01*
X166878000Y-65881200D02*
X165100000Y-65881200D01*
X165100000Y-65881200D02*
X165100000Y-64103200D01*
X165100000Y-54959200D02*
X165100000Y-53181200D01*
X184150000Y-53181200D02*
X185928000Y-53181200D01*
X195072000Y-53181200D02*
X196850000Y-53181200D01*
X196850000Y-53181200D02*
X196850000Y-54959200D01*
X196850000Y-64103200D02*
X196850000Y-65881200D01*
X196850000Y-65881200D02*
X195072000Y-65881200D01*
X185928000Y-65881200D02*
X184150000Y-65881200D01*
X184150000Y-65881200D02*
X184150000Y-64103200D01*
X184150000Y-54959200D02*
X184150000Y-53181200D01*
X50800000Y-91281200D02*
X52578000Y-91281200D01*
X61722000Y-91281200D02*
X63500000Y-91281200D01*
X63500000Y-91281200D02*
X63500000Y-93059200D01*
X63500000Y-102203200D02*
X63500000Y-103981200D01*
X63500000Y-103981200D02*
X61722000Y-103981200D01*
X52578000Y-103981200D02*
X50800000Y-103981200D01*
X50800000Y-103981200D02*
X50800000Y-102203200D01*
X50800000Y-93059200D02*
X50800000Y-91281200D01*
X227012000Y-96044000D02*
X228790000Y-96044000D01*
X237934000Y-96044000D02*
X239712000Y-96044000D01*
X239712000Y-96044000D02*
X239712000Y-97822000D01*
X239712000Y-106966000D02*
X239712000Y-108744000D01*
X239712000Y-108744000D02*
X237934000Y-108744000D01*
X228790000Y-108744000D02*
X227012000Y-108744000D01*
X227012000Y-108744000D02*
X227012000Y-106966000D01*
X227012000Y-97822000D02*
X227012000Y-96044000D01*
X12700000Y-72231200D02*
X14478000Y-72231200D01*
X23622000Y-72231200D02*
X25400000Y-72231200D01*
X25400000Y-72231200D02*
X25400000Y-74009200D01*
X25400000Y-83153200D02*
X25400000Y-84931200D01*
X25400000Y-84931200D02*
X23622000Y-84931200D01*
X14478000Y-84931200D02*
X12700000Y-84931200D01*
X12700000Y-84931200D02*
X12700000Y-83153200D01*
X12700000Y-74009200D02*
X12700000Y-72231200D01*
X146050000Y-72231200D02*
X147828000Y-72231200D01*
X156972000Y-72231200D02*
X158750000Y-72231200D01*
X158750000Y-72231200D02*
X158750000Y-74009200D01*
X158750000Y-83153200D02*
X158750000Y-84931200D01*
X158750000Y-84931200D02*
X156972000Y-84931200D01*
X147828000Y-84931200D02*
X146050000Y-84931200D01*
X146050000Y-84931200D02*
X146050000Y-83153200D01*
X146050000Y-74009200D02*
X146050000Y-72231200D01*
X127000000Y-72231200D02*
X128778000Y-72231200D01*
X137922000Y-72231200D02*
X139700000Y-72231200D01*
X139700000Y-72231200D02*
X139700000Y-74009200D01*
X139700000Y-83153200D02*
X139700000Y-84931200D01*
X139700000Y-84931200D02*
X137922000Y-84931200D01*
X128778000Y-84931200D02*
X127000000Y-84931200D01*
X127000000Y-84931200D02*
X127000000Y-83153200D01*
X127000000Y-74009200D02*
X127000000Y-72231200D01*
X184150000Y-34131200D02*
X185928000Y-34131200D01*
X195072000Y-34131200D02*
X196850000Y-34131200D01*
X196850000Y-34131200D02*
X196850000Y-35909200D01*
X196850000Y-45053200D02*
X196850000Y-46831200D01*
X196850000Y-46831200D02*
X195072000Y-46831200D01*
X185928000Y-46831200D02*
X184150000Y-46831200D01*
X184150000Y-46831200D02*
X184150000Y-45053200D01*
X184150000Y-35909200D02*
X184150000Y-34131200D01*
X203200000Y-34131200D02*
X204978000Y-34131200D01*
X214122000Y-34131200D02*
X215900000Y-34131200D01*
X215900000Y-34131200D02*
X215900000Y-35909200D01*
X215900000Y-45053200D02*
X215900000Y-46831200D01*
X215900000Y-46831200D02*
X214122000Y-46831200D01*
X204978000Y-46831200D02*
X203200000Y-46831200D01*
X203200000Y-46831200D02*
X203200000Y-45053200D01*
X203200000Y-35909200D02*
X203200000Y-34131200D01*
X31750000Y-34131200D02*
X33528000Y-34131200D01*
X42672000Y-34131200D02*
X44450000Y-34131200D01*
X44450000Y-34131200D02*
X44450000Y-35909200D01*
X44450000Y-45053200D02*
X44450000Y-46831200D01*
X44450000Y-46831200D02*
X42672000Y-46831200D01*
X33528000Y-46831200D02*
X31750000Y-46831200D01*
X31750000Y-46831200D02*
X31750000Y-45053200D01*
X31750000Y-35909200D02*
X31750000Y-34131200D01*
X88900000Y-34131200D02*
X90678000Y-34131200D01*
X99822000Y-34131200D02*
X101600000Y-34131200D01*
X101600000Y-34131200D02*
X101600000Y-35909200D01*
X101600000Y-45053200D02*
X101600000Y-46831200D01*
X101600000Y-46831200D02*
X99822000Y-46831200D01*
X90678000Y-46831200D02*
X88900000Y-46831200D01*
X88900000Y-46831200D02*
X88900000Y-45053200D01*
X88900000Y-35909200D02*
X88900000Y-34131200D01*
X184150000Y-91281200D02*
X185928000Y-91281200D01*
X195072000Y-91281200D02*
X196850000Y-91281200D01*
X196850000Y-91281200D02*
X196850000Y-93059200D01*
X196850000Y-102203200D02*
X196850000Y-103981200D01*
X196850000Y-103981200D02*
X195072000Y-103981200D01*
X185928000Y-103981200D02*
X184150000Y-103981200D01*
X184150000Y-103981200D02*
X184150000Y-102203200D01*
X184150000Y-93059200D02*
X184150000Y-91281200D01*
X265112000Y-96044000D02*
X266890000Y-96044000D01*
X276034000Y-96044000D02*
X277812000Y-96044000D01*
X277812000Y-96044000D02*
X277812000Y-97822000D01*
X277812000Y-106966000D02*
X277812000Y-108744000D01*
X277812000Y-108744000D02*
X276034000Y-108744000D01*
X266890000Y-108744000D02*
X265112000Y-108744000D01*
X265112000Y-108744000D02*
X265112000Y-106966000D01*
X265112000Y-97822000D02*
X265112000Y-96044000D01*
X222250000Y-72231200D02*
X224028000Y-72231200D01*
X233172000Y-72231200D02*
X234950000Y-72231200D01*
X234950000Y-72231200D02*
X234950000Y-74009200D01*
X234950000Y-83153200D02*
X234950000Y-84931200D01*
X234950000Y-84931200D02*
X233172000Y-84931200D01*
X224028000Y-84931200D02*
X222250000Y-84931200D01*
X222250000Y-84931200D02*
X222250000Y-83153200D01*
X222250000Y-74009200D02*
X222250000Y-72231200D01*
X50800000Y-53181200D02*
X52578000Y-53181200D01*
X61722000Y-53181200D02*
X63500000Y-53181200D01*
X63500000Y-53181200D02*
X63500000Y-54959200D01*
X63500000Y-64103200D02*
X63500000Y-65881200D01*
X63500000Y-65881200D02*
X61722000Y-65881200D01*
X52578000Y-65881200D02*
X50800000Y-65881200D01*
X50800000Y-65881200D02*
X50800000Y-64103200D01*
X50800000Y-54959200D02*
X50800000Y-53181200D01*
X107950000Y-34131200D02*
X109728000Y-34131200D01*
X118872000Y-34131200D02*
X120650000Y-34131200D01*
X120650000Y-34131200D02*
X120650000Y-35909200D01*
X120650000Y-45053200D02*
X120650000Y-46831200D01*
X120650000Y-46831200D02*
X118872000Y-46831200D01*
X109728000Y-46831200D02*
X107950000Y-46831200D01*
X107950000Y-46831200D02*
X107950000Y-45053200D01*
X107950000Y-35909200D02*
X107950000Y-34131200D01*
X12700000Y-34131200D02*
X14478000Y-34131200D01*
X23622000Y-34131200D02*
X25400000Y-34131200D01*
X25400000Y-34131200D02*
X25400000Y-35909200D01*
X25400000Y-45053200D02*
X25400000Y-46831200D01*
X25400000Y-46831200D02*
X23622000Y-46831200D01*
X14478000Y-46831200D02*
X12700000Y-46831200D01*
X12700000Y-46831200D02*
X12700000Y-45053200D01*
X12700000Y-35909200D02*
X12700000Y-34131200D01*
X250825000Y-34131200D02*
X252603000Y-34131200D01*
X261747000Y-34131200D02*
X263525000Y-34131200D01*
X263525000Y-34131200D02*
X263525000Y-35909200D01*
X263525000Y-45053200D02*
X263525000Y-46831200D01*
X263525000Y-46831200D02*
X261747000Y-46831200D01*
X252603000Y-46831200D02*
X250825000Y-46831200D01*
X250825000Y-46831200D02*
X250825000Y-45053200D01*
X250825000Y-35909200D02*
X250825000Y-34131200D01*
X269875000Y-34131200D02*
X271653000Y-34131200D01*
X280797000Y-34131200D02*
X282575000Y-34131200D01*
X282575000Y-34131200D02*
X282575000Y-35909200D01*
X282575000Y-45053200D02*
X282575000Y-46831200D01*
X282575000Y-46831200D02*
X280797000Y-46831200D01*
X271653000Y-46831200D02*
X269875000Y-46831200D01*
X269875000Y-46831200D02*
X269875000Y-45053200D01*
X269875000Y-35909200D02*
X269875000Y-34131200D01*
X146050000Y-34131200D02*
X147828000Y-34131200D01*
X156972000Y-34131200D02*
X158750000Y-34131200D01*
X158750000Y-34131200D02*
X158750000Y-35909200D01*
X158750000Y-45053200D02*
X158750000Y-46831200D01*
X158750000Y-46831200D02*
X156972000Y-46831200D01*
X147828000Y-46831200D02*
X146050000Y-46831200D01*
X146050000Y-46831200D02*
X146050000Y-45053200D01*
X146050000Y-35909200D02*
X146050000Y-34131200D01*
X246062000Y-76993800D02*
X247840000Y-76993800D01*
X256984000Y-76993800D02*
X258762000Y-76993800D01*
X258762000Y-76993800D02*
X258762000Y-78771800D01*
X258762000Y-87915800D02*
X258762000Y-89693800D01*
X258762000Y-89693800D02*
X256984000Y-89693800D01*
X247840000Y-89693800D02*
X246062000Y-89693800D01*
X246062000Y-89693800D02*
X246062000Y-87915800D01*
X246062000Y-78771800D02*
X246062000Y-76993800D01*
X88900000Y-72231200D02*
X90678000Y-72231200D01*
X99822000Y-72231200D02*
X101600000Y-72231200D01*
X101600000Y-72231200D02*
X101600000Y-74009200D01*
X101600000Y-83153200D02*
X101600000Y-84931200D01*
X101600000Y-84931200D02*
X99822000Y-84931200D01*
X90678000Y-84931200D02*
X88900000Y-84931200D01*
X88900000Y-84931200D02*
X88900000Y-83153200D01*
X88900000Y-74009200D02*
X88900000Y-72231200D01*
X50800000Y-34131200D02*
X52578000Y-34131200D01*
X61722000Y-34131200D02*
X63500000Y-34131200D01*
X63500000Y-34131200D02*
X63500000Y-35909200D01*
X63500000Y-45053200D02*
X63500000Y-46831200D01*
X63500000Y-46831200D02*
X61722000Y-46831200D01*
X52578000Y-46831200D02*
X50800000Y-46831200D01*
X50800000Y-46831200D02*
X50800000Y-45053200D01*
X50800000Y-35909200D02*
X50800000Y-34131200D01*
X31750000Y-91281200D02*
X33528000Y-91281200D01*
X42672000Y-91281200D02*
X44450000Y-91281200D01*
X44450000Y-91281200D02*
X44450000Y-93059200D01*
X44450000Y-102203200D02*
X44450000Y-103981200D01*
X44450000Y-103981200D02*
X42672000Y-103981200D01*
X33528000Y-103981200D02*
X31750000Y-103981200D01*
X31750000Y-103981200D02*
X31750000Y-102203200D01*
X31750000Y-93059200D02*
X31750000Y-91281200D01*
X50800000Y-72231200D02*
X52578000Y-72231200D01*
X61722000Y-72231200D02*
X63500000Y-72231200D01*
X63500000Y-72231200D02*
X63500000Y-74009200D01*
X63500000Y-83153200D02*
X63500000Y-84931200D01*
X63500000Y-84931200D02*
X61722000Y-84931200D01*
X52578000Y-84931200D02*
X50800000Y-84931200D01*
X50800000Y-84931200D02*
X50800000Y-83153200D01*
X50800000Y-74009200D02*
X50800000Y-72231200D01*
X127000000Y-34131200D02*
X128778000Y-34131200D01*
X137922000Y-34131200D02*
X139700000Y-34131200D01*
X139700000Y-34131200D02*
X139700000Y-35909200D01*
X139700000Y-45053200D02*
X139700000Y-46831200D01*
X139700000Y-46831200D02*
X137922000Y-46831200D01*
X128778000Y-46831200D02*
X127000000Y-46831200D01*
X127000000Y-46831200D02*
X127000000Y-45053200D01*
X127000000Y-35909200D02*
X127000000Y-34131200D01*
X31750000Y-72231200D02*
X33528000Y-72231200D01*
X42672000Y-72231200D02*
X44450000Y-72231200D01*
X44450000Y-72231200D02*
X44450000Y-74009200D01*
X44450000Y-83153200D02*
X44450000Y-84931200D01*
X44450000Y-84931200D02*
X42672000Y-84931200D01*
X33528000Y-84931200D02*
X31750000Y-84931200D01*
X31750000Y-84931200D02*
X31750000Y-83153200D01*
X31750000Y-74009200D02*
X31750000Y-72231200D01*
X66040000Y-33575600D02*
X48260000Y-33575600D01*
X48260000Y-33575600D02*
X48260000Y-64055600D01*
X48260000Y-64055600D02*
X66040000Y-64055600D01*
X66040000Y-64055600D02*
X66040000Y-33575600D01*
X50800000Y-33575600D02*
X50800000Y-36115600D01*
X50800000Y-36115600D02*
X48260000Y-36115600D01*
X79375000Y-91281200D02*
X81153000Y-91281200D01*
X90297000Y-91281200D02*
X92075000Y-91281200D01*
X92075000Y-91281200D02*
X92075000Y-93059200D01*
X92075000Y-102203200D02*
X92075000Y-103981200D01*
X92075000Y-103981200D02*
X90297000Y-103981200D01*
X81153000Y-103981200D02*
X79375000Y-103981200D01*
X79375000Y-103981200D02*
X79375000Y-102203200D01*
X79375000Y-93059200D02*
X79375000Y-91281200D01*
X117475000Y-91281200D02*
X119253000Y-91281200D01*
X128397000Y-91281200D02*
X130175000Y-91281200D01*
X130175000Y-91281200D02*
X130175000Y-93059200D01*
X130175000Y-102203200D02*
X130175000Y-103981200D01*
X130175000Y-103981200D02*
X128397000Y-103981200D01*
X119253000Y-103981200D02*
X117475000Y-103981200D01*
X117475000Y-103981200D02*
X117475000Y-102203200D01*
X117475000Y-93059200D02*
X117475000Y-91281200D01*
X155575000Y-91281200D02*
X157353000Y-91281200D01*
X166497000Y-91281200D02*
X168275000Y-91281200D01*
X168275000Y-91281200D02*
X168275000Y-93059200D01*
X168275000Y-102203200D02*
X168275000Y-103981200D01*
X168275000Y-103981200D02*
X166497000Y-103981200D01*
X157353000Y-103981200D02*
X155575000Y-103981200D01*
X155575000Y-103981200D02*
X155575000Y-102203200D01*
X155575000Y-93059200D02*
X155575000Y-91281200D01*
D12*
X54829524Y-49976743D02*
X55857619Y-49976743D01*
X55978571Y-49904171D01*
X56039048Y-49831600D01*
X56099524Y-49686457D01*
X56099524Y-49396171D01*
X56039048Y-49251029D01*
X55978571Y-49178457D01*
X55857619Y-49105886D01*
X54829524Y-49105886D01*
X56099524Y-47581886D02*
X56099524Y-48452743D01*
X56099524Y-48017315D02*
X54829524Y-48017315D01*
X55010952Y-48162458D01*
X55131905Y-48307600D01*
X55192381Y-48452743D01*
M02*
