G04 #@! TF.FileFunction,Copper,L2,Bot,Signal*
%FSLAX46Y46*%
G04 Gerber Fmt 4.6, Leading zero omitted, Abs format (unit mm)*
G04 Created by KiCad (PCBNEW 4.0.7) date 07/12/18 08:23:40*
%MOMM*%
%LPD*%
G01*
G04 APERTURE LIST*
%ADD10C,0.100000*%
%ADD11R,1.200000X1.200000*%
%ADD12R,1.600000X1.600000*%
%ADD13C,1.600000*%
%ADD14R,2.500000X0.500000*%
%ADD15R,0.500000X2.500000*%
%ADD16C,2.800000*%
%ADD17C,2.500000*%
%ADD18R,1.700000X1.000000*%
%ADD19R,1.752600X1.752600*%
%ADD20C,1.752600*%
%ADD21C,1.800000*%
%ADD22C,0.600000*%
%ADD23C,0.250000*%
%ADD24C,0.254000*%
G04 APERTURE END LIST*
D10*
D11*
X20625000Y-48815600D03*
X17475000Y-48815600D03*
D12*
X15150000Y-48815600D03*
D13*
X22950000Y-48815600D03*
D14*
X16350000Y-48815600D03*
X21750000Y-48815600D03*
D11*
X20625000Y-51196900D03*
X17475000Y-51196900D03*
D12*
X15150000Y-51196900D03*
D13*
X22950000Y-51196900D03*
D14*
X16350000Y-51196900D03*
X21750000Y-51196900D03*
D11*
X20625000Y-86915600D03*
X17475000Y-86915600D03*
D12*
X15150000Y-86915600D03*
D13*
X22950000Y-86915600D03*
D14*
X16350000Y-86915600D03*
X21750000Y-86915600D03*
D11*
X20625000Y-89296900D03*
X17475000Y-89296900D03*
D12*
X15150000Y-89296900D03*
D13*
X22950000Y-89296900D03*
D14*
X16350000Y-89296900D03*
X21750000Y-89296900D03*
D11*
X39675000Y-48815600D03*
X36525000Y-48815600D03*
D12*
X34200000Y-48815600D03*
D13*
X42000000Y-48815600D03*
D14*
X35400000Y-48815600D03*
X40800000Y-48815600D03*
D11*
X39675000Y-51196900D03*
X36525000Y-51196900D03*
D12*
X34200000Y-51196900D03*
D13*
X42000000Y-51196900D03*
D14*
X35400000Y-51196900D03*
X40800000Y-51196900D03*
D11*
X39675000Y-86915600D03*
X36525000Y-86915600D03*
D12*
X34200000Y-86915600D03*
D13*
X42000000Y-86915600D03*
D14*
X35400000Y-86915600D03*
X40800000Y-86915600D03*
D11*
X39675000Y-89296900D03*
X36525000Y-89296900D03*
D12*
X34200000Y-89296900D03*
D13*
X42000000Y-89296900D03*
D14*
X35400000Y-89296900D03*
X40800000Y-89296900D03*
D11*
X67270300Y-42056200D03*
X67270300Y-38906200D03*
D12*
X67270300Y-36581200D03*
D13*
X67270300Y-44381200D03*
D15*
X67270300Y-37781200D03*
X67270300Y-43181200D03*
D11*
X67270300Y-57956200D03*
X67270300Y-61106200D03*
D12*
X67270300Y-63431200D03*
D13*
X67270300Y-55631200D03*
D15*
X67270300Y-62231200D03*
X67270300Y-56831200D03*
D11*
X58725000Y-86915600D03*
X55575000Y-86915600D03*
D12*
X53250000Y-86915600D03*
D13*
X61050000Y-86915600D03*
D14*
X54450000Y-86915600D03*
X59850000Y-86915600D03*
D11*
X58725000Y-89296900D03*
X55575000Y-89296900D03*
D12*
X53250000Y-89296900D03*
D13*
X61050000Y-89296900D03*
D14*
X54450000Y-89296900D03*
X59850000Y-89296900D03*
D11*
X77775000Y-48815600D03*
X74625000Y-48815600D03*
D12*
X72300000Y-48815600D03*
D13*
X80100000Y-48815600D03*
D14*
X73500000Y-48815600D03*
X78900000Y-48815600D03*
D11*
X77775000Y-51196900D03*
X74625000Y-51196900D03*
D12*
X72300000Y-51196900D03*
D13*
X80100000Y-51196900D03*
D14*
X73500000Y-51196900D03*
X78900000Y-51196900D03*
D11*
X77775000Y-86915600D03*
X74625000Y-86915600D03*
D12*
X72300000Y-86915600D03*
D13*
X80100000Y-86915600D03*
D14*
X73500000Y-86915600D03*
X78900000Y-86915600D03*
D11*
X87300000Y-89296900D03*
X84150000Y-89296900D03*
D12*
X81825000Y-89296900D03*
D13*
X89625000Y-89296900D03*
D14*
X83025000Y-89296900D03*
X88425000Y-89296900D03*
D11*
X96825000Y-48815600D03*
X93675000Y-48815600D03*
D12*
X91350000Y-48815600D03*
D13*
X99150000Y-48815600D03*
D14*
X92550000Y-48815600D03*
X97950000Y-48815600D03*
D11*
X96825000Y-51196900D03*
X93675000Y-51196900D03*
D12*
X91350000Y-51196900D03*
D13*
X99150000Y-51196900D03*
D14*
X92550000Y-51196900D03*
X97950000Y-51196900D03*
D11*
X96825000Y-86915600D03*
X93675000Y-86915600D03*
D12*
X91350000Y-86915600D03*
D13*
X99150000Y-86915600D03*
D14*
X92550000Y-86915600D03*
X97950000Y-86915600D03*
D11*
X115875000Y-48815600D03*
X112725000Y-48815600D03*
D12*
X110400000Y-48815600D03*
D13*
X118200000Y-48815600D03*
D14*
X111600000Y-48815600D03*
X117000000Y-48815600D03*
D11*
X115875000Y-51196900D03*
X112725000Y-51196900D03*
D12*
X110400000Y-51196900D03*
D13*
X118200000Y-51196900D03*
D14*
X111600000Y-51196900D03*
X117000000Y-51196900D03*
D11*
X115875000Y-86915600D03*
X112725000Y-86915600D03*
D12*
X110400000Y-86915600D03*
D13*
X118200000Y-86915600D03*
D14*
X111600000Y-86915600D03*
X117000000Y-86915600D03*
D11*
X125400000Y-89296900D03*
X122250000Y-89296900D03*
D12*
X119925000Y-89296900D03*
D13*
X127725000Y-89296900D03*
D14*
X121125000Y-89296900D03*
X126525000Y-89296900D03*
D11*
X134925000Y-48815600D03*
X131775000Y-48815600D03*
D12*
X129450000Y-48815600D03*
D13*
X137250000Y-48815600D03*
D14*
X130650000Y-48815600D03*
X136050000Y-48815600D03*
D11*
X134925000Y-51196900D03*
X131775000Y-51196900D03*
D12*
X129450000Y-51196900D03*
D13*
X137250000Y-51196900D03*
D14*
X130650000Y-51196900D03*
X136050000Y-51196900D03*
D11*
X134925000Y-86915600D03*
X131775000Y-86915600D03*
D12*
X129450000Y-86915600D03*
D13*
X137250000Y-86915600D03*
D14*
X130650000Y-86915600D03*
X136050000Y-86915600D03*
D11*
X153975000Y-48815600D03*
X150825000Y-48815600D03*
D12*
X148500000Y-48815600D03*
D13*
X156300000Y-48815600D03*
D14*
X149700000Y-48815600D03*
X155100000Y-48815600D03*
D11*
X153975000Y-51792200D03*
X150825000Y-51792200D03*
D12*
X148500000Y-51792200D03*
D13*
X156300000Y-51792200D03*
D14*
X149700000Y-51792200D03*
X155100000Y-51792200D03*
D11*
X153975000Y-86915600D03*
X150825000Y-86915600D03*
D12*
X148500000Y-86915600D03*
D13*
X156300000Y-86915600D03*
D14*
X149700000Y-86915600D03*
X155100000Y-86915600D03*
D11*
X163500000Y-89296900D03*
X160350000Y-89296900D03*
D12*
X158025000Y-89296900D03*
D13*
X165825000Y-89296900D03*
D14*
X159225000Y-89296900D03*
X164625000Y-89296900D03*
D11*
X173025000Y-48815600D03*
X169875000Y-48815600D03*
D12*
X167550000Y-48815600D03*
D13*
X175350000Y-48815600D03*
D14*
X168750000Y-48815600D03*
X174150000Y-48815600D03*
D11*
X173025000Y-51196900D03*
X169875000Y-51196900D03*
D12*
X167550000Y-51196900D03*
D13*
X175350000Y-51196900D03*
D14*
X168750000Y-51196900D03*
X174150000Y-51196900D03*
D11*
X173025000Y-86915600D03*
X169875000Y-86915600D03*
D12*
X167550000Y-86915600D03*
D13*
X175350000Y-86915600D03*
D14*
X168750000Y-86915600D03*
X174150000Y-86915600D03*
D11*
X192075000Y-48815600D03*
X188925000Y-48815600D03*
D12*
X186600000Y-48815600D03*
D13*
X194400000Y-48815600D03*
D14*
X187800000Y-48815600D03*
X193200000Y-48815600D03*
D11*
X192075000Y-51196900D03*
X188925000Y-51196900D03*
D12*
X186600000Y-51196900D03*
D13*
X194400000Y-51196900D03*
D14*
X187800000Y-51196900D03*
X193200000Y-51196900D03*
D11*
X192075000Y-86915600D03*
X188925000Y-86915600D03*
D12*
X186600000Y-86915600D03*
D13*
X194400000Y-86915600D03*
D14*
X187800000Y-86915600D03*
X193200000Y-86915600D03*
D11*
X192075000Y-89296900D03*
X188925000Y-89296900D03*
D12*
X186600000Y-89296900D03*
D13*
X194400000Y-89296900D03*
D14*
X187800000Y-89296900D03*
X193200000Y-89296900D03*
D11*
X211125000Y-48815600D03*
X207975000Y-48815600D03*
D12*
X205650000Y-48815600D03*
D13*
X213450000Y-48815600D03*
D14*
X206850000Y-48815600D03*
X212250000Y-48815600D03*
D11*
X211125000Y-51196900D03*
X207975000Y-51196900D03*
D12*
X205650000Y-51196900D03*
D13*
X213450000Y-51196900D03*
D14*
X206850000Y-51196900D03*
X212250000Y-51196900D03*
D11*
X211125000Y-86915600D03*
X207975000Y-86915600D03*
D12*
X205650000Y-86915600D03*
D13*
X213450000Y-86915600D03*
D14*
X206850000Y-86915600D03*
X212250000Y-86915600D03*
D11*
X211125000Y-89296900D03*
X207975000Y-89296900D03*
D12*
X205650000Y-89296900D03*
D13*
X213450000Y-89296900D03*
D14*
X206850000Y-89296900D03*
X212250000Y-89296900D03*
D11*
X230175000Y-48815600D03*
X227025000Y-48815600D03*
D12*
X224700000Y-48815600D03*
D13*
X232500000Y-48815600D03*
D14*
X225900000Y-48815600D03*
X231300000Y-48815600D03*
D11*
X230175000Y-51196900D03*
X227025000Y-51196900D03*
D12*
X224700000Y-51196900D03*
D13*
X232500000Y-51196900D03*
D14*
X225900000Y-51196900D03*
X231300000Y-51196900D03*
D11*
X230175000Y-86915600D03*
X227025000Y-86915600D03*
D12*
X224700000Y-86915600D03*
D13*
X232500000Y-86915600D03*
D14*
X225900000Y-86915600D03*
X231300000Y-86915600D03*
D11*
X234937000Y-94059400D03*
X231787000Y-94059400D03*
D12*
X229462000Y-94059400D03*
D13*
X237262000Y-94059400D03*
D14*
X230662000Y-94059400D03*
X236062000Y-94059400D03*
D11*
X258750000Y-48815600D03*
X255600000Y-48815600D03*
D12*
X253275000Y-48815600D03*
D13*
X261075000Y-48815600D03*
D14*
X254475000Y-48815600D03*
X259875000Y-48815600D03*
D11*
X258750000Y-51196900D03*
X255600000Y-51196900D03*
D12*
X253275000Y-51196900D03*
D13*
X261075000Y-51196900D03*
D14*
X254475000Y-51196900D03*
X259875000Y-51196900D03*
D11*
X253987000Y-91678100D03*
X250837000Y-91678100D03*
D12*
X248512000Y-91678100D03*
D13*
X256312000Y-91678100D03*
D14*
X249712000Y-91678100D03*
X255112000Y-91678100D03*
D11*
X253987000Y-94059400D03*
X250837000Y-94059400D03*
D12*
X248512000Y-94059400D03*
D13*
X256312000Y-94059400D03*
D14*
X249712000Y-94059400D03*
X255112000Y-94059400D03*
D11*
X277800000Y-48815600D03*
X274650000Y-48815600D03*
D12*
X272325000Y-48815600D03*
D13*
X280125000Y-48815600D03*
D14*
X273525000Y-48815600D03*
X278925000Y-48815600D03*
D11*
X277800000Y-51196900D03*
X274650000Y-51196900D03*
D12*
X272325000Y-51196900D03*
D13*
X280125000Y-51196900D03*
D14*
X273525000Y-51196900D03*
X278925000Y-51196900D03*
D11*
X273037000Y-94059400D03*
X269887000Y-94059400D03*
D12*
X267562000Y-94059400D03*
D13*
X275362000Y-94059400D03*
D14*
X268762000Y-94059400D03*
X274162000Y-94059400D03*
D16*
X28575000Y-50006200D03*
X266700000Y-50006200D03*
X200025000Y-88106200D03*
X28575000Y-88106200D03*
D17*
X225600453Y-55531246D02*
X224789547Y-56991154D01*
X231139724Y-54451872D02*
X231100276Y-55030528D01*
X206550453Y-74581246D02*
X205739547Y-76041154D01*
X212089724Y-73501872D02*
X212050276Y-74080528D01*
X206550453Y-55531246D02*
X205739547Y-56991154D01*
X212089724Y-54451872D02*
X212050276Y-55030528D01*
X168450453Y-74581246D02*
X167639547Y-76041154D01*
X173989724Y-73501872D02*
X173950276Y-74080528D01*
X187500453Y-74581246D02*
X186689547Y-76041154D01*
X193039724Y-73501872D02*
X193000276Y-74080528D01*
X35100453Y-55531246D02*
X34289547Y-56991154D01*
X40639724Y-54451872D02*
X40600276Y-55030528D01*
X111300453Y-74581246D02*
X110489547Y-76041154D01*
X116839724Y-73501872D02*
X116800276Y-74080528D01*
X225600453Y-36481246D02*
X224789547Y-37941154D01*
X231139724Y-35401872D02*
X231100276Y-35980528D01*
X254175453Y-55531246D02*
X253364547Y-56991154D01*
X259714724Y-54451872D02*
X259675276Y-55030528D01*
X273225453Y-55531246D02*
X272414547Y-56991154D01*
X278764724Y-54451872D02*
X278725276Y-55030528D01*
X73200453Y-74581246D02*
X72389547Y-76041154D01*
X78739724Y-73501872D02*
X78700276Y-74080528D01*
X16050453Y-93631246D02*
X15239547Y-95091154D01*
X21589724Y-92551872D02*
X21550276Y-93130528D01*
X73200453Y-55531246D02*
X72389547Y-56991154D01*
X78739724Y-54451872D02*
X78700276Y-55030528D01*
X249412453Y-98394046D02*
X248601547Y-99853954D01*
X254951724Y-97314672D02*
X254912276Y-97893328D01*
X73200453Y-36481246D02*
X72389547Y-37941154D01*
X78739724Y-35401872D02*
X78700276Y-35980528D01*
X16050453Y-55531246D02*
X15239547Y-56991154D01*
X21589724Y-54451872D02*
X21550276Y-55030528D01*
X92250453Y-55531246D02*
X91439547Y-56991154D01*
X97789724Y-54451872D02*
X97750276Y-55030528D01*
X206550453Y-93631246D02*
X205739547Y-95091154D01*
X212089724Y-92551872D02*
X212050276Y-93130528D01*
X111300453Y-55531246D02*
X110489547Y-56991154D01*
X116839724Y-54451872D02*
X116800276Y-55030528D01*
X130350453Y-55531246D02*
X129539547Y-56991154D01*
X135889724Y-54451872D02*
X135850276Y-55030528D01*
X168450453Y-36481246D02*
X167639547Y-37941154D01*
X173989724Y-35401872D02*
X173950276Y-35980528D01*
X149400453Y-55531246D02*
X148589547Y-56991154D01*
X154939724Y-54451872D02*
X154900276Y-55030528D01*
X168450453Y-55531246D02*
X167639547Y-56991154D01*
X173989724Y-54451872D02*
X173950276Y-55030528D01*
X187500453Y-55531246D02*
X186689547Y-56991154D01*
X193039724Y-54451872D02*
X193000276Y-55030528D01*
X54150453Y-93631246D02*
X53339547Y-95091154D01*
X59689724Y-92551872D02*
X59650276Y-93130528D01*
X230362453Y-98394046D02*
X229551547Y-99853954D01*
X235901724Y-97314672D02*
X235862276Y-97893328D01*
X16050453Y-74581246D02*
X15239547Y-76041154D01*
X21589724Y-73501872D02*
X21550276Y-74080528D01*
X149400453Y-74581246D02*
X148589547Y-76041154D01*
X154939724Y-73501872D02*
X154900276Y-74080528D01*
X130350453Y-74581246D02*
X129539547Y-76041154D01*
X135889724Y-73501872D02*
X135850276Y-74080528D01*
X187500453Y-36481246D02*
X186689547Y-37941154D01*
X193039724Y-35401872D02*
X193000276Y-35980528D01*
X206550453Y-36481246D02*
X205739547Y-37941154D01*
X212089724Y-35401872D02*
X212050276Y-35980528D01*
X35100453Y-36481246D02*
X34289547Y-37941154D01*
X40639724Y-35401872D02*
X40600276Y-35980528D01*
X92250453Y-36481246D02*
X91439547Y-37941154D01*
X97789724Y-35401872D02*
X97750276Y-35980528D01*
X187500453Y-93631246D02*
X186689547Y-95091154D01*
X193039724Y-92551872D02*
X193000276Y-93130528D01*
X268462453Y-98394046D02*
X267651547Y-99853954D01*
X274001724Y-97314672D02*
X273962276Y-97893328D01*
X225600453Y-74581246D02*
X224789547Y-76041154D01*
X231139724Y-73501872D02*
X231100276Y-74080528D01*
X54150453Y-55531246D02*
X53339547Y-56991154D01*
X59689724Y-54451872D02*
X59650276Y-55030528D01*
X111300453Y-36481246D02*
X110489547Y-37941154D01*
X116839724Y-35401872D02*
X116800276Y-35980528D01*
X16050453Y-36481246D02*
X15239547Y-37941154D01*
X21589724Y-35401872D02*
X21550276Y-35980528D01*
X254175453Y-36481246D02*
X253364547Y-37941154D01*
X259714724Y-35401872D02*
X259675276Y-35980528D01*
X273225453Y-36481246D02*
X272414547Y-37941154D01*
X278764724Y-35401872D02*
X278725276Y-35980528D01*
X149400453Y-36481246D02*
X148589547Y-37941154D01*
X154939724Y-35401872D02*
X154900276Y-35980528D01*
X249412453Y-79343846D02*
X248601547Y-80803754D01*
X254951724Y-78264472D02*
X254912276Y-78843128D01*
X92250453Y-74581246D02*
X91439547Y-76041154D01*
X97789724Y-73501872D02*
X97750276Y-74080528D01*
X54150453Y-36481246D02*
X53339547Y-37941154D01*
X59689724Y-35401872D02*
X59650276Y-35980528D01*
X35100453Y-93631246D02*
X34289547Y-95091154D01*
X40639724Y-92551872D02*
X40600276Y-93130528D01*
X54150453Y-74581246D02*
X53339547Y-76041154D01*
X59689724Y-73501872D02*
X59650276Y-74080528D01*
X130350453Y-36481246D02*
X129539547Y-37941154D01*
X135889724Y-35401872D02*
X135850276Y-35980528D01*
X35100453Y-74581246D02*
X34289547Y-76041154D01*
X40639724Y-73501872D02*
X40600276Y-74080528D01*
D18*
X239738000Y-56668800D03*
X246038000Y-56668800D03*
X239738000Y-52868800D03*
X246038000Y-52868800D03*
D19*
X49530000Y-34845600D03*
D20*
X49530000Y-37385600D03*
X49530000Y-39925600D03*
X49530000Y-42465600D03*
X49530000Y-45005600D03*
X49530000Y-47545600D03*
X49530000Y-50085600D03*
X49530000Y-52625600D03*
X49530000Y-55165600D03*
X49530000Y-57705600D03*
X49530000Y-60245600D03*
X49530000Y-62785600D03*
X64770000Y-62785600D03*
X64770000Y-60245600D03*
X64770000Y-57705600D03*
X64770000Y-55165600D03*
X64770000Y-52625600D03*
X64770000Y-50085600D03*
X64770000Y-47545600D03*
X64770000Y-45005600D03*
X64770000Y-42465600D03*
X64770000Y-39925600D03*
X64770000Y-37385600D03*
X64770000Y-34845600D03*
D21*
X242888000Y-38100000D03*
X242888000Y-42862500D03*
X242824000Y-48260000D03*
D16*
X123825000Y-69056200D03*
X200025000Y-50006200D03*
D17*
X82725453Y-93631246D02*
X81914547Y-95091154D01*
X88264724Y-92551872D02*
X88225276Y-93130528D01*
X120825453Y-93631246D02*
X120014547Y-95091154D01*
X126364724Y-92551872D02*
X126325276Y-93130528D01*
X158925453Y-93631246D02*
X158114547Y-95091154D01*
X164464724Y-92551872D02*
X164425276Y-93130528D01*
D22*
X199136000Y-45466000D03*
X191770000Y-45466000D03*
X177292000Y-45466000D03*
X171958000Y-45466000D03*
X159258000Y-45720000D03*
X153162000Y-45720000D03*
X138684000Y-45720000D03*
X133858000Y-45720000D03*
X121666000Y-44958000D03*
X116078000Y-44958000D03*
X100838000Y-44958000D03*
X95504000Y-44958000D03*
X70612000Y-34036000D03*
X68326000Y-34798000D03*
X21082000Y-44704000D03*
X23622000Y-42672000D03*
X67057922Y-31578653D03*
X67056000Y-34544000D03*
X59690000Y-65024000D03*
X234696000Y-84328000D03*
X226822000Y-84328000D03*
X216408000Y-84328000D03*
X211074000Y-84328000D03*
X196342000Y-84074000D03*
X188722000Y-84074000D03*
X177546000Y-84074000D03*
X170942000Y-84074000D03*
X159512000Y-84328000D03*
X152146000Y-84328000D03*
X144018000Y-84328000D03*
X132080000Y-84328000D03*
X120650000Y-83820000D03*
X114300000Y-83820000D03*
X106934000Y-83820000D03*
X93980000Y-83820000D03*
X83312000Y-83820000D03*
X76708000Y-83820000D03*
X65024000Y-83820000D03*
X56388000Y-83820000D03*
X51816000Y-72136000D03*
X54610000Y-72136000D03*
X21082000Y-84836000D03*
X23622000Y-84836000D03*
X40132000Y-84836000D03*
X44450000Y-84836000D03*
X56896000Y-51562000D03*
X47244000Y-51308000D03*
X45720000Y-76708000D03*
X45720000Y-79756000D03*
X45720000Y-105664000D03*
X202946000Y-91694000D03*
X200406000Y-69342000D03*
X183896000Y-68580000D03*
X183642000Y-50800000D03*
X180340000Y-46482000D03*
X180340000Y-44704000D03*
X178054000Y-44704000D03*
X165862000Y-44958000D03*
X163576000Y-44958000D03*
X150368000Y-44958000D03*
X137414000Y-44958000D03*
X135382000Y-44958000D03*
X124206000Y-45974000D03*
X116078000Y-45974000D03*
X107442000Y-49022000D03*
X92456000Y-100584000D03*
X47244000Y-50038000D03*
X58928000Y-45466000D03*
X61976000Y-45466000D03*
X40640000Y-68580000D03*
X262382000Y-45212000D03*
X259588000Y-45212000D03*
X244348000Y-45212000D03*
X238506000Y-46990000D03*
X225552000Y-46736000D03*
X187452000Y-44704000D03*
X192532000Y-44450000D03*
X194310000Y-44450000D03*
X212344000Y-44958000D03*
X215392000Y-48768000D03*
X179832000Y-52324000D03*
X177546000Y-63754000D03*
X155448000Y-63754000D03*
X143764000Y-52070000D03*
X143764000Y-62230000D03*
X123444000Y-61214000D03*
X123444000Y-57658000D03*
X104140000Y-51054000D03*
X100330000Y-65024000D03*
X74676000Y-65532000D03*
X30988000Y-61214000D03*
X30734000Y-49276000D03*
X73914000Y-69850000D03*
X250952000Y-52578000D03*
X261874000Y-52578000D03*
X221234000Y-51562000D03*
X220726000Y-64516000D03*
X203454000Y-64262000D03*
X200152000Y-64262000D03*
X191008000Y-64770000D03*
X110490000Y-84582000D03*
X104648000Y-83058000D03*
X79756000Y-58928000D03*
X67818000Y-50038000D03*
X60960000Y-44704000D03*
X59182000Y-44704000D03*
X219964000Y-86868000D03*
X219964000Y-101854000D03*
X182880000Y-95504000D03*
X164084000Y-95504000D03*
X156210000Y-89408000D03*
X155956000Y-94488000D03*
X91186000Y-90678000D03*
X87376000Y-90678000D03*
X59690000Y-38100000D03*
X59436000Y-43688000D03*
X46736000Y-45974000D03*
X46482000Y-76454000D03*
X46482000Y-78740000D03*
X46482000Y-82296000D03*
X74168000Y-83058000D03*
X62484000Y-83058000D03*
X59944000Y-83058000D03*
X43180000Y-84074000D03*
X41148000Y-84074000D03*
X34798000Y-83820000D03*
X47244000Y-60198000D03*
X47244000Y-66802000D03*
X203454000Y-57404000D03*
X105918000Y-66294000D03*
X101600000Y-66548000D03*
X163830000Y-67056000D03*
X104648000Y-67564000D03*
X102108000Y-67564000D03*
X46482000Y-67564000D03*
X46482000Y-57658000D03*
X44704000Y-64516000D03*
X44704000Y-69088000D03*
X90932000Y-69088000D03*
X85598000Y-61214000D03*
X90932000Y-61214000D03*
X61976000Y-65278000D03*
X250190000Y-65786000D03*
X205232000Y-65532000D03*
X199390000Y-65532000D03*
X107188000Y-65532000D03*
X103124000Y-65532000D03*
X67818000Y-66294000D03*
X59436000Y-46228000D03*
X60960000Y-46228000D03*
X127254000Y-56388000D03*
X45720000Y-64516000D03*
X45720000Y-68326000D03*
X60706000Y-71374000D03*
X237998000Y-71374000D03*
X237744000Y-43180000D03*
X242570000Y-53086000D03*
X64262000Y-59182000D03*
X52070000Y-52832000D03*
X51562000Y-42418000D03*
X242824000Y-66548000D03*
X189484000Y-67056000D03*
X189484000Y-64770000D03*
X106934000Y-64770000D03*
X106934000Y-62484000D03*
X83058000Y-62738000D03*
X80518000Y-62738000D03*
X70612000Y-62738000D03*
X70612000Y-61214000D03*
X242824000Y-56388000D03*
X71628000Y-44958000D03*
X73660000Y-44958000D03*
X75946000Y-31750000D03*
X68072000Y-31750000D03*
X68072000Y-33782000D03*
X67818000Y-107950000D03*
X223266000Y-93980000D03*
X223520000Y-104140000D03*
X88900000Y-102616000D03*
X224536000Y-93980000D03*
X224790000Y-108966000D03*
X44704000Y-109982000D03*
X78486000Y-93726000D03*
X78486000Y-95250000D03*
X78486000Y-109982000D03*
X236982000Y-38100000D03*
X236474000Y-70866000D03*
X50800000Y-70612000D03*
D23*
X21570000Y-35691200D02*
X21570000Y-38588000D01*
X22098000Y-47963600D02*
X22950000Y-48815600D01*
X22098000Y-39116000D02*
X22098000Y-47963600D01*
X21570000Y-38588000D02*
X22098000Y-39116000D01*
X64770000Y-52625600D02*
X64055600Y-52625600D01*
X64055600Y-52625600D02*
X60198000Y-48768000D01*
X60198000Y-48768000D02*
X60198000Y-39624000D01*
X60198000Y-39624000D02*
X56388000Y-35814000D01*
X56388000Y-35814000D02*
X56388000Y-32004000D01*
X56388000Y-32004000D02*
X56136364Y-31633720D01*
X205650000Y-48815600D02*
X205946400Y-48815600D01*
X205946400Y-48815600D02*
X208788000Y-45974000D01*
X250433400Y-45974000D02*
X253275000Y-48815600D01*
X208788000Y-45974000D02*
X250433400Y-45974000D01*
X167550000Y-48815600D02*
X168100400Y-48815600D01*
X168100400Y-48815600D02*
X171450000Y-45466000D01*
X202485600Y-48815600D02*
X205650000Y-48815600D01*
X199136000Y-45466000D02*
X202485600Y-48815600D01*
X177292000Y-45466000D02*
X191770000Y-45466000D01*
X171450000Y-45466000D02*
X171958000Y-45466000D01*
X129450000Y-48815600D02*
X130762400Y-48815600D01*
X130762400Y-48815600D02*
X133858000Y-45720000D01*
X162353600Y-48815600D02*
X167550000Y-48815600D01*
X159258000Y-45720000D02*
X162353600Y-48815600D01*
X138684000Y-45720000D02*
X153162000Y-45720000D01*
X91350000Y-48815600D02*
X91646400Y-48815600D01*
X91646400Y-48815600D02*
X95504000Y-44958000D01*
X125523600Y-48815600D02*
X129450000Y-48815600D01*
X121666000Y-44958000D02*
X125523600Y-48815600D01*
X100838000Y-44958000D02*
X116078000Y-44958000D01*
X67270300Y-36581200D02*
X67270300Y-35853700D01*
X67270300Y-35853700D02*
X68326000Y-34798000D01*
X86868000Y-44333600D02*
X91350000Y-48815600D01*
X86868000Y-39878000D02*
X86868000Y-44333600D01*
X80264000Y-33274000D02*
X86868000Y-39878000D01*
X71374000Y-33274000D02*
X80264000Y-33274000D01*
X70612000Y-34036000D02*
X71374000Y-33274000D01*
X15150000Y-48815600D02*
X16970400Y-48815600D01*
X16970400Y-48815600D02*
X21082000Y-44704000D01*
X23622000Y-42672000D02*
X24130000Y-42164000D01*
X24130000Y-42164000D02*
X24638000Y-42164000D01*
X24638000Y-42164000D02*
X34798442Y-31805067D01*
X34798442Y-31805067D02*
X56136364Y-31633720D01*
X56136364Y-31633720D02*
X67057922Y-31578653D01*
X67056000Y-34544000D02*
X67270300Y-34758300D01*
X67270300Y-34758300D02*
X67270300Y-36581200D01*
X59690000Y-65024000D02*
X59690000Y-66040000D01*
X205650000Y-51196900D02*
X205650000Y-51472000D01*
X205650000Y-51472000D02*
X211836000Y-57658000D01*
X251460000Y-53011900D02*
X253275000Y-51196900D01*
X251460000Y-56642000D02*
X251460000Y-53011900D01*
X245110000Y-62992000D02*
X251460000Y-56642000D01*
X223012000Y-62992000D02*
X245110000Y-62992000D01*
X217678000Y-57658000D02*
X223012000Y-62992000D01*
X211836000Y-57658000D02*
X217678000Y-57658000D01*
X167550000Y-51196900D02*
X167550000Y-51472000D01*
X167550000Y-51472000D02*
X173482000Y-57404000D01*
X205650000Y-53430000D02*
X205650000Y-51196900D01*
X196088000Y-62992000D02*
X205650000Y-53430000D01*
X184658000Y-62992000D02*
X196088000Y-62992000D01*
X179070000Y-57404000D02*
X184658000Y-62992000D01*
X173482000Y-57404000D02*
X179070000Y-57404000D01*
X129450000Y-51196900D02*
X129450000Y-51472000D01*
X129450000Y-51472000D02*
X135382000Y-57404000D01*
X167550000Y-53430000D02*
X167550000Y-51196900D01*
X157988000Y-62992000D02*
X167550000Y-53430000D01*
X147066000Y-62992000D02*
X157988000Y-62992000D01*
X141478000Y-57404000D02*
X147066000Y-62992000D01*
X135382000Y-57404000D02*
X141478000Y-57404000D01*
X91350000Y-51196900D02*
X91350000Y-51472000D01*
X91350000Y-51472000D02*
X97282000Y-57404000D01*
X129450000Y-53176000D02*
X129450000Y-51196900D01*
X120142000Y-62484000D02*
X129450000Y-53176000D01*
X108458000Y-62484000D02*
X120142000Y-62484000D01*
X103378000Y-57404000D02*
X108458000Y-62484000D01*
X97282000Y-57404000D02*
X103378000Y-57404000D01*
X67270300Y-63431200D02*
X80840800Y-63431200D01*
X88900000Y-53646900D02*
X91350000Y-51196900D01*
X88900000Y-55372000D02*
X88900000Y-53646900D01*
X80840800Y-63431200D02*
X88900000Y-55372000D01*
X61976000Y-66040000D02*
X64661500Y-66040000D01*
X37084000Y-66040000D02*
X59690000Y-66040000D01*
X59690000Y-66040000D02*
X61976000Y-66040000D01*
X28448000Y-57404000D02*
X37084000Y-66040000D01*
X21082000Y-57404000D02*
X28448000Y-57404000D01*
X15150000Y-51472000D02*
X21082000Y-57404000D01*
X64661500Y-66040000D02*
X67270300Y-63431200D01*
X15150000Y-51196900D02*
X15150000Y-51472000D01*
X21570000Y-73791200D02*
X21570000Y-76942000D01*
X22098000Y-86063600D02*
X22950000Y-86915600D01*
X22098000Y-77470000D02*
X22098000Y-86063600D01*
X21570000Y-76942000D02*
X22098000Y-77470000D01*
X205650000Y-86915600D02*
X205946400Y-86915600D01*
X205946400Y-86915600D02*
X208534000Y-84328000D01*
X242046100Y-91678100D02*
X248512000Y-91678100D01*
X234696000Y-84328000D02*
X242046100Y-91678100D01*
X216408000Y-84328000D02*
X226822000Y-84328000D01*
X208534000Y-84328000D02*
X211074000Y-84328000D01*
X167550000Y-86915600D02*
X168100400Y-86915600D01*
X168100400Y-86915600D02*
X170942000Y-84074000D01*
X203570400Y-84836000D02*
X205650000Y-86915600D01*
X197104000Y-84836000D02*
X203570400Y-84836000D01*
X196342000Y-84074000D02*
X197104000Y-84836000D01*
X177546000Y-84074000D02*
X188722000Y-84074000D01*
X129450000Y-86915600D02*
X129492400Y-86915600D01*
X129492400Y-86915600D02*
X132080000Y-84328000D01*
X162099600Y-86915600D02*
X167550000Y-86915600D01*
X159512000Y-84328000D02*
X162099600Y-86915600D01*
X144018000Y-84328000D02*
X152146000Y-84328000D01*
X91350000Y-86915600D02*
X91350000Y-86450000D01*
X91350000Y-86450000D02*
X93980000Y-83820000D01*
X123745600Y-86915600D02*
X129450000Y-86915600D01*
X120650000Y-83820000D02*
X123745600Y-86915600D01*
X106934000Y-83820000D02*
X114300000Y-83820000D01*
X53250000Y-86915600D02*
X53292400Y-86915600D01*
X53292400Y-86915600D02*
X56388000Y-83820000D01*
X86407600Y-86915600D02*
X91350000Y-86915600D01*
X83312000Y-83820000D02*
X86407600Y-86915600D01*
X65024000Y-83820000D02*
X76708000Y-83820000D01*
X54610000Y-72136000D02*
X51816000Y-72136000D01*
X15150000Y-86915600D02*
X15150000Y-86450000D01*
X15150000Y-86450000D02*
X16764000Y-84836000D01*
X16764000Y-84836000D02*
X21082000Y-84836000D01*
X23622000Y-84836000D02*
X40132000Y-84836000D01*
X44450000Y-84836000D02*
X46529600Y-86915600D01*
X46529600Y-86915600D02*
X53250000Y-86915600D01*
X21570000Y-92841200D02*
X21570000Y-90676900D01*
X21570000Y-90676900D02*
X22950000Y-89296900D01*
X56896000Y-51562000D02*
X56642000Y-51308000D01*
X56642000Y-51308000D02*
X47244000Y-51308000D01*
X45720000Y-76708000D02*
X45720000Y-79756000D01*
X45720000Y-105664000D02*
X47498000Y-105664000D01*
X205650000Y-89296900D02*
X205650000Y-89572000D01*
X205650000Y-89572000D02*
X211582000Y-95504000D01*
X245110000Y-97461400D02*
X248512000Y-94059400D01*
X245110000Y-98806000D02*
X245110000Y-97461400D01*
X235966000Y-107950000D02*
X245110000Y-98806000D01*
X229362000Y-107950000D02*
X235966000Y-107950000D01*
X216916000Y-95504000D02*
X229362000Y-107950000D01*
X211582000Y-95504000D02*
X216916000Y-95504000D01*
X186600000Y-48815600D02*
X185626400Y-48815600D01*
X202946000Y-91694000D02*
X205343100Y-89296900D01*
X184658000Y-69342000D02*
X200406000Y-69342000D01*
X183896000Y-68580000D02*
X184658000Y-69342000D01*
X185626400Y-48815600D02*
X183642000Y-50800000D01*
X205343100Y-89296900D02*
X205650000Y-89296900D01*
X182673600Y-48815600D02*
X186600000Y-48815600D01*
X180340000Y-46482000D02*
X182673600Y-48815600D01*
X178054000Y-44704000D02*
X180340000Y-44704000D01*
X163576000Y-44958000D02*
X165862000Y-44958000D01*
X110400000Y-48815600D02*
X110442400Y-48815600D01*
X110442400Y-48815600D02*
X113284000Y-45974000D01*
X137414000Y-44958000D02*
X150368000Y-44958000D01*
X125222000Y-44958000D02*
X135382000Y-44958000D01*
X124206000Y-45974000D02*
X125222000Y-44958000D01*
X113284000Y-45974000D02*
X116078000Y-45974000D01*
X53250000Y-89296900D02*
X53250000Y-89826000D01*
X53250000Y-89826000D02*
X59690000Y-96266000D01*
X107648400Y-48815600D02*
X110400000Y-48815600D01*
X107442000Y-49022000D02*
X107648400Y-48815600D01*
X91440000Y-101600000D02*
X92456000Y-100584000D01*
X78486000Y-101600000D02*
X91440000Y-101600000D01*
X73152000Y-96266000D02*
X78486000Y-101600000D01*
X59690000Y-96266000D02*
X73152000Y-96266000D01*
X15150000Y-89296900D02*
X15150000Y-89572000D01*
X15150000Y-89572000D02*
X21590000Y-96012000D01*
X21590000Y-96012000D02*
X25400000Y-96012000D01*
X25400000Y-96012000D02*
X39624000Y-110236000D01*
X39624000Y-110236000D02*
X42926000Y-110236000D01*
X42926000Y-110236000D02*
X47498000Y-105664000D01*
X47498000Y-105664000D02*
X49530000Y-103632000D01*
X49530000Y-103632000D02*
X49530000Y-93016900D01*
X49530000Y-93016900D02*
X53250000Y-89296900D01*
X40620000Y-35691200D02*
X40620000Y-47435600D01*
X40620000Y-47435600D02*
X42000000Y-48815600D01*
X48514000Y-48768000D02*
X47244000Y-50038000D01*
X51054000Y-48768000D02*
X48514000Y-48768000D01*
X54102000Y-45720000D02*
X51054000Y-48768000D01*
X58674000Y-45720000D02*
X54102000Y-45720000D01*
X58928000Y-45466000D02*
X58674000Y-45720000D01*
X64770000Y-42672000D02*
X61976000Y-45466000D01*
X40640000Y-68580000D02*
X40640000Y-69850000D01*
X64770000Y-42465600D02*
X64770000Y-42672000D01*
X269287600Y-48815600D02*
X272325000Y-48815600D01*
X265684000Y-45212000D02*
X269287600Y-48815600D01*
X262382000Y-45212000D02*
X265684000Y-45212000D01*
X244348000Y-45212000D02*
X259588000Y-45212000D01*
X225806000Y-46990000D02*
X238506000Y-46990000D01*
X225552000Y-46736000D02*
X225806000Y-46990000D01*
X224700000Y-48815600D02*
X215439600Y-48815600D01*
X192278000Y-44704000D02*
X187452000Y-44704000D01*
X192532000Y-44450000D02*
X192278000Y-44704000D01*
X211836000Y-44450000D02*
X194310000Y-44450000D01*
X212344000Y-44958000D02*
X211836000Y-44450000D01*
X215439600Y-48815600D02*
X215392000Y-48768000D01*
X185726900Y-52070000D02*
X186600000Y-51196900D01*
X180086000Y-52070000D02*
X185726900Y-52070000D01*
X179832000Y-52324000D02*
X180086000Y-52070000D01*
X155448000Y-63754000D02*
X177546000Y-63754000D01*
X110400000Y-51196900D02*
X110400000Y-51980000D01*
X110400000Y-51980000D02*
X116078000Y-57658000D01*
X144041800Y-51792200D02*
X148500000Y-51792200D01*
X143764000Y-52070000D02*
X144041800Y-51792200D01*
X124460000Y-62230000D02*
X143764000Y-62230000D01*
X123444000Y-61214000D02*
X124460000Y-62230000D01*
X116078000Y-57658000D02*
X123444000Y-57658000D01*
X104282900Y-51196900D02*
X110400000Y-51196900D01*
X104140000Y-51054000D02*
X104282900Y-51196900D01*
X100076000Y-64770000D02*
X100330000Y-65024000D01*
X75438000Y-64770000D02*
X100076000Y-64770000D01*
X74676000Y-65532000D02*
X75438000Y-64770000D01*
X34200000Y-48815600D02*
X31194400Y-48815600D01*
X39624000Y-69850000D02*
X40640000Y-69850000D01*
X30988000Y-61214000D02*
X39624000Y-69850000D01*
X31194400Y-48815600D02*
X30734000Y-49276000D01*
X40640000Y-69850000D02*
X73914000Y-69850000D01*
X40620000Y-54741200D02*
X40620000Y-52576900D01*
X40620000Y-52576900D02*
X42000000Y-51196900D01*
X272325000Y-51196900D02*
X268843100Y-51196900D01*
X226081100Y-52578000D02*
X224700000Y-51196900D01*
X233172000Y-52578000D02*
X226081100Y-52578000D01*
X233934000Y-51816000D02*
X233172000Y-52578000D01*
X250190000Y-51816000D02*
X233934000Y-51816000D01*
X250952000Y-52578000D02*
X250190000Y-51816000D01*
X267462000Y-52578000D02*
X261874000Y-52578000D01*
X268843100Y-51196900D02*
X267462000Y-52578000D01*
X221599100Y-51196900D02*
X224700000Y-51196900D01*
X221234000Y-51562000D02*
X221599100Y-51196900D01*
X203708000Y-64516000D02*
X220726000Y-64516000D01*
X203454000Y-64262000D02*
X203708000Y-64516000D01*
X191516000Y-64262000D02*
X200152000Y-64262000D01*
X191008000Y-64770000D02*
X191516000Y-64262000D01*
X148500000Y-86915600D02*
X148637600Y-86915600D01*
X148637600Y-86915600D02*
X149860000Y-88138000D01*
X185377600Y-88138000D02*
X186600000Y-86915600D01*
X149860000Y-88138000D02*
X185377600Y-88138000D01*
X110400000Y-86915600D02*
X110400000Y-87794000D01*
X147277600Y-88138000D02*
X148500000Y-86915600D01*
X110744000Y-88138000D02*
X147277600Y-88138000D01*
X110400000Y-87794000D02*
X110744000Y-88138000D01*
X72300000Y-51196900D02*
X72300000Y-51472000D01*
X72300000Y-51472000D02*
X79756000Y-58928000D01*
X106172000Y-84582000D02*
X110490000Y-84582000D01*
X104648000Y-83058000D02*
X106172000Y-84582000D01*
X68976900Y-51196900D02*
X72300000Y-51196900D01*
X67818000Y-50038000D02*
X68976900Y-51196900D01*
X34200000Y-51196900D02*
X37449100Y-51196900D01*
X63246000Y-41449600D02*
X64770000Y-39925600D01*
X63246000Y-42418000D02*
X63246000Y-41449600D01*
X60960000Y-44704000D02*
X63246000Y-42418000D01*
X54102000Y-44704000D02*
X59182000Y-44704000D01*
X52578000Y-46228000D02*
X54102000Y-44704000D01*
X48768000Y-46228000D02*
X52578000Y-46228000D01*
X44958000Y-50038000D02*
X48768000Y-46228000D01*
X38608000Y-50038000D02*
X44958000Y-50038000D01*
X37449100Y-51196900D02*
X38608000Y-50038000D01*
X42000000Y-86915600D02*
X42000000Y-83910000D01*
X41148000Y-83058000D02*
X41148000Y-74319200D01*
X42000000Y-83910000D02*
X41148000Y-83058000D01*
X41148000Y-74319200D02*
X40620000Y-73791200D01*
X186600000Y-89296900D02*
X186600000Y-89572000D01*
X186600000Y-89572000D02*
X193040000Y-96012000D01*
X220011600Y-86915600D02*
X224700000Y-86915600D01*
X219964000Y-86868000D02*
X220011600Y-86915600D01*
X205740000Y-101854000D02*
X219964000Y-101854000D01*
X199898000Y-96012000D02*
X205740000Y-101854000D01*
X193040000Y-96012000D02*
X199898000Y-96012000D01*
X158025000Y-89296900D02*
X158025000Y-89445000D01*
X158025000Y-89445000D02*
X164084000Y-95504000D01*
X186600000Y-91784000D02*
X186600000Y-89296900D01*
X182880000Y-95504000D02*
X186600000Y-91784000D01*
X119925000Y-89296900D02*
X119925000Y-89699000D01*
X119925000Y-89699000D02*
X126238000Y-96012000D01*
X156321100Y-89296900D02*
X158025000Y-89296900D01*
X156210000Y-89408000D02*
X156321100Y-89296900D01*
X154432000Y-96012000D02*
X155956000Y-94488000D01*
X126238000Y-96012000D02*
X154432000Y-96012000D01*
X72300000Y-86915600D02*
X75231600Y-86915600D01*
X116257900Y-92964000D02*
X119925000Y-89296900D01*
X93472000Y-92964000D02*
X116257900Y-92964000D01*
X91186000Y-90678000D02*
X93472000Y-92964000D01*
X78994000Y-90678000D02*
X87376000Y-90678000D01*
X75231600Y-86915600D02*
X78994000Y-90678000D01*
X46482000Y-83058000D02*
X46482000Y-82296000D01*
X63198400Y-37385600D02*
X64770000Y-37385600D01*
X62484000Y-38100000D02*
X63198400Y-37385600D01*
X59690000Y-38100000D02*
X62484000Y-38100000D01*
X48260000Y-43688000D02*
X59436000Y-43688000D01*
X47752000Y-44196000D02*
X48260000Y-43688000D01*
X47752000Y-44958000D02*
X47752000Y-44196000D01*
X46736000Y-45974000D02*
X47752000Y-44958000D01*
X46482000Y-78740000D02*
X46482000Y-76454000D01*
X62484000Y-83058000D02*
X74168000Y-83058000D01*
X44196000Y-83058000D02*
X46482000Y-83058000D01*
X46482000Y-83058000D02*
X59944000Y-83058000D01*
X43180000Y-84074000D02*
X44196000Y-83058000D01*
X35052000Y-84074000D02*
X41148000Y-84074000D01*
X34798000Y-83820000D02*
X35052000Y-84074000D01*
X40620000Y-92841200D02*
X40620000Y-90676900D01*
X40620000Y-90676900D02*
X42000000Y-89296900D01*
X59670000Y-35691200D02*
X60828800Y-35691200D01*
X60828800Y-35691200D02*
X63500000Y-33020000D01*
X63500000Y-33020000D02*
X69088000Y-33020000D01*
X69088000Y-33020000D02*
X69342000Y-33274000D01*
X69342000Y-33274000D02*
X69342000Y-42309500D01*
X69342000Y-42309500D02*
X67270300Y-44381200D01*
X59670000Y-54741200D02*
X61599200Y-54741200D01*
X66513500Y-56388000D02*
X67270300Y-55631200D01*
X63246000Y-56388000D02*
X66513500Y-56388000D01*
X61599200Y-54741200D02*
X63246000Y-56388000D01*
X61050000Y-86915600D02*
X61050000Y-82386000D01*
X60198000Y-81534000D02*
X60198000Y-74319200D01*
X61050000Y-82386000D02*
X60198000Y-81534000D01*
X60198000Y-74319200D02*
X59670000Y-73791200D01*
X59670000Y-92841200D02*
X59670000Y-90676900D01*
X59670000Y-90676900D02*
X61050000Y-89296900D01*
X80100000Y-42418000D02*
X80100000Y-42000000D01*
X80100000Y-42000000D02*
X79248000Y-41148000D01*
X79248000Y-41148000D02*
X79248000Y-36219200D01*
X79248000Y-36219200D02*
X78720000Y-35691200D01*
X80100000Y-48815600D02*
X80100000Y-42418000D01*
X80100000Y-51196900D02*
X80100000Y-53361200D01*
X80100000Y-53361200D02*
X78720000Y-54741200D01*
X78720000Y-73791200D02*
X78720000Y-76942000D01*
X79248000Y-86063600D02*
X80100000Y-86915600D01*
X79248000Y-77470000D02*
X79248000Y-86063600D01*
X78720000Y-76942000D02*
X79248000Y-77470000D01*
X88245000Y-92841200D02*
X88245000Y-90676900D01*
X88245000Y-90676900D02*
X89625000Y-89296900D01*
X97770000Y-35691200D02*
X97770000Y-39096000D01*
X98298000Y-47963600D02*
X99150000Y-48815600D01*
X98298000Y-39624000D02*
X98298000Y-47963600D01*
X97770000Y-39096000D02*
X98298000Y-39624000D01*
X99150000Y-51196900D02*
X99150000Y-53361200D01*
X99150000Y-53361200D02*
X97770000Y-54741200D01*
X97770000Y-73791200D02*
X97770000Y-76942000D01*
X98298000Y-86063600D02*
X99150000Y-86915600D01*
X98298000Y-77470000D02*
X98298000Y-86063600D01*
X97770000Y-76942000D02*
X98298000Y-77470000D01*
X116820000Y-35691200D02*
X116820000Y-39096000D01*
X117348000Y-47963600D02*
X118200000Y-48815600D01*
X117348000Y-39624000D02*
X117348000Y-47963600D01*
X116820000Y-39096000D02*
X117348000Y-39624000D01*
X116820000Y-54741200D02*
X116820000Y-52576900D01*
X116820000Y-52576900D02*
X118200000Y-51196900D01*
X116820000Y-73791200D02*
X116820000Y-77196000D01*
X117348000Y-86063600D02*
X118200000Y-86915600D01*
X117348000Y-77724000D02*
X117348000Y-86063600D01*
X116820000Y-77196000D02*
X117348000Y-77724000D01*
X126345000Y-92841200D02*
X126345000Y-90676900D01*
X126345000Y-90676900D02*
X127725000Y-89296900D01*
X135870000Y-35691200D02*
X135870000Y-38588000D01*
X136398000Y-47963600D02*
X137250000Y-48815600D01*
X136398000Y-39116000D02*
X136398000Y-47963600D01*
X135870000Y-38588000D02*
X136398000Y-39116000D01*
X135870000Y-54741200D02*
X135870000Y-52576900D01*
X135870000Y-52576900D02*
X137250000Y-51196900D01*
X135870000Y-73791200D02*
X135870000Y-77196000D01*
X136398000Y-86063600D02*
X137250000Y-86915600D01*
X136398000Y-77724000D02*
X136398000Y-86063600D01*
X135870000Y-77196000D02*
X136398000Y-77724000D01*
X154920000Y-35691200D02*
X154920000Y-38842000D01*
X155448000Y-47963600D02*
X156300000Y-48815600D01*
X155448000Y-39370000D02*
X155448000Y-47963600D01*
X154920000Y-38842000D02*
X155448000Y-39370000D01*
X154920000Y-54741200D02*
X154920000Y-53172200D01*
X154920000Y-53172200D02*
X156300000Y-51792200D01*
X154920000Y-73791200D02*
X154920000Y-76942000D01*
X155448000Y-86063600D02*
X156300000Y-86915600D01*
X155448000Y-77470000D02*
X155448000Y-86063600D01*
X154920000Y-76942000D02*
X155448000Y-77470000D01*
X165825000Y-89296900D02*
X165825000Y-91461200D01*
X165825000Y-91461200D02*
X164445000Y-92841200D01*
X173970000Y-35691200D02*
X173970000Y-39096000D01*
X174752000Y-48217600D02*
X175350000Y-48815600D01*
X174752000Y-39878000D02*
X174752000Y-48217600D01*
X173970000Y-39096000D02*
X174752000Y-39878000D01*
X173970000Y-54741200D02*
X173970000Y-52576900D01*
X173970000Y-52576900D02*
X175350000Y-51196900D01*
X173970000Y-73791200D02*
X173970000Y-76688000D01*
X174498000Y-86063600D02*
X175350000Y-86915600D01*
X174498000Y-77216000D02*
X174498000Y-86063600D01*
X173970000Y-76688000D02*
X174498000Y-77216000D01*
X193020000Y-35691200D02*
X193020000Y-39096000D01*
X193548000Y-47963600D02*
X194400000Y-48815600D01*
X193548000Y-39624000D02*
X193548000Y-47963600D01*
X193020000Y-39096000D02*
X193548000Y-39624000D01*
X194400000Y-51196900D02*
X194400000Y-53361200D01*
X194400000Y-53361200D02*
X193020000Y-54741200D01*
X193020000Y-73791200D02*
X193020000Y-76688000D01*
X193548000Y-86063600D02*
X194400000Y-86915600D01*
X193548000Y-77216000D02*
X193548000Y-86063600D01*
X193020000Y-76688000D02*
X193548000Y-77216000D01*
X194400000Y-89296900D02*
X194400000Y-91461200D01*
X194400000Y-91461200D02*
X193020000Y-92841200D01*
X212070000Y-73791200D02*
X212070000Y-76688000D01*
X212598000Y-86063600D02*
X213450000Y-86915600D01*
X212598000Y-77216000D02*
X212598000Y-86063600D01*
X212070000Y-76688000D02*
X212598000Y-77216000D01*
X213450000Y-89296900D02*
X213450000Y-91461200D01*
X213450000Y-91461200D02*
X212070000Y-92841200D01*
X231120000Y-73791200D02*
X231120000Y-77196000D01*
X231648000Y-86063600D02*
X232500000Y-86915600D01*
X231648000Y-77724000D02*
X231648000Y-86063600D01*
X231120000Y-77196000D02*
X231648000Y-77724000D01*
X237262000Y-94059400D02*
X237262000Y-96224000D01*
X237262000Y-96224000D02*
X235882000Y-97604000D01*
X261075000Y-48815600D02*
X261075000Y-43651000D01*
X260350000Y-42926000D02*
X260350000Y-36346200D01*
X261075000Y-43651000D02*
X260350000Y-42926000D01*
X260350000Y-36346200D02*
X259695000Y-35691200D01*
X261075000Y-51196900D02*
X261075000Y-53361200D01*
X261075000Y-53361200D02*
X259695000Y-54741200D01*
X256312000Y-91678100D02*
X256312000Y-85116000D01*
X255524000Y-84328000D02*
X255524000Y-79145800D01*
X256312000Y-85116000D02*
X255524000Y-84328000D01*
X255524000Y-79145800D02*
X254932000Y-78553800D01*
X256312000Y-94059400D02*
X256312000Y-96224000D01*
X256312000Y-96224000D02*
X254932000Y-97604000D01*
X280125000Y-48815600D02*
X280125000Y-42635000D01*
X279400000Y-41910000D02*
X279400000Y-36346200D01*
X280125000Y-42635000D02*
X279400000Y-41910000D01*
X279400000Y-36346200D02*
X278745000Y-35691200D01*
X280125000Y-51196900D02*
X280125000Y-53361200D01*
X280125000Y-53361200D02*
X278745000Y-54741200D01*
X275362000Y-94059400D02*
X275362000Y-96224000D01*
X275362000Y-96224000D02*
X273982000Y-97604000D01*
X100330000Y-67056000D02*
X101092000Y-67056000D01*
X47291600Y-60245600D02*
X47244000Y-60198000D01*
X47244000Y-66802000D02*
X47498000Y-67056000D01*
X47498000Y-67056000D02*
X99822000Y-67056000D01*
X99822000Y-67056000D02*
X100330000Y-67056000D01*
X49530000Y-60245600D02*
X47291600Y-60245600D01*
X202438000Y-58420000D02*
X203454000Y-57404000D01*
X202438000Y-63754000D02*
X202438000Y-58420000D01*
X199898000Y-66294000D02*
X202438000Y-63754000D01*
X105918000Y-66294000D02*
X199898000Y-66294000D01*
X101092000Y-67056000D02*
X101600000Y-66548000D01*
X49530000Y-57705600D02*
X46529600Y-57705600D01*
X105156000Y-67056000D02*
X163830000Y-67056000D01*
X104648000Y-67564000D02*
X105156000Y-67056000D01*
X46482000Y-67564000D02*
X102108000Y-67564000D01*
X46529600Y-57705600D02*
X46482000Y-57658000D01*
X47704400Y-52625600D02*
X44704000Y-55626000D01*
X44704000Y-55626000D02*
X44704000Y-64516000D01*
X44704000Y-69088000D02*
X66040000Y-69088000D01*
X66040000Y-69088000D02*
X90932000Y-69088000D01*
X49530000Y-52625600D02*
X47704400Y-52625600D01*
X90932000Y-61214000D02*
X85598000Y-61214000D01*
X59483600Y-62785600D02*
X61976000Y-65278000D01*
X49530000Y-62785600D02*
X59483600Y-62785600D01*
X205486000Y-65786000D02*
X250190000Y-65786000D01*
X205232000Y-65532000D02*
X205486000Y-65786000D01*
X107188000Y-65532000D02*
X199390000Y-65532000D01*
X101600000Y-65532000D02*
X103124000Y-65532000D01*
X100584000Y-66548000D02*
X101600000Y-65532000D01*
X85598000Y-66548000D02*
X100584000Y-66548000D01*
X85344000Y-66294000D02*
X85598000Y-66548000D01*
X67818000Y-66294000D02*
X85344000Y-66294000D01*
X72795000Y-37211200D02*
X72795000Y-40743000D01*
X51768400Y-50085600D02*
X49530000Y-50085600D01*
X59436000Y-46228000D02*
X51768400Y-50085600D01*
X67310000Y-46228000D02*
X60960000Y-46228000D01*
X72795000Y-40743000D02*
X67310000Y-46228000D01*
X127000000Y-56642000D02*
X127254000Y-56388000D01*
X127000000Y-56642000D02*
X127000000Y-56642000D01*
X47450400Y-55165600D02*
X45720000Y-56896000D01*
X45720000Y-56896000D02*
X45720000Y-64516000D01*
X45720000Y-68326000D02*
X91186000Y-68326000D01*
X91186000Y-68326000D02*
X102362000Y-68326000D01*
X102362000Y-68326000D02*
X107442000Y-63246000D01*
X107442000Y-63246000D02*
X120396000Y-63246000D01*
X120396000Y-63246000D02*
X127000000Y-56642000D01*
X47450400Y-55165600D02*
X49530000Y-55165600D01*
X60706000Y-71374000D02*
X96520000Y-71374000D01*
X96520000Y-71374000D02*
X119888000Y-71374000D01*
X119888000Y-71374000D02*
X120904000Y-72390000D01*
X120904000Y-72390000D02*
X128270000Y-72390000D01*
X128270000Y-72390000D02*
X129286000Y-71374000D01*
X129286000Y-71374000D02*
X141224000Y-71374000D01*
X141224000Y-71374000D02*
X141478000Y-71628000D01*
X141478000Y-71628000D02*
X176784000Y-71628000D01*
X176784000Y-71628000D02*
X194310000Y-71628000D01*
X194310000Y-71628000D02*
X212344000Y-71628000D01*
X212344000Y-71628000D02*
X214884000Y-71628000D01*
X214884000Y-71628000D02*
X237490000Y-71628000D01*
X237490000Y-71628000D02*
X237744000Y-71374000D01*
X237744000Y-71374000D02*
X237998000Y-71374000D01*
X237744000Y-43180000D02*
X238061500Y-42862500D01*
X238061500Y-42862500D02*
X242888000Y-42862500D01*
X242570000Y-53086000D02*
X239955200Y-53086000D01*
X239955200Y-53086000D02*
X239738000Y-52868800D01*
X246038000Y-52868800D02*
X242787200Y-52868800D01*
X242787200Y-52868800D02*
X242570000Y-53086000D01*
X49530000Y-42465600D02*
X49530000Y-39925600D01*
X64262000Y-59182000D02*
X62992000Y-57912000D01*
X62992000Y-57912000D02*
X59690000Y-57912000D01*
X59690000Y-57912000D02*
X54610000Y-52832000D01*
X54610000Y-52832000D02*
X52070000Y-52832000D01*
X51562000Y-42418000D02*
X51514400Y-42465600D01*
X51514400Y-42465600D02*
X49530000Y-42465600D01*
X242824000Y-56388000D02*
X245757200Y-56388000D01*
X245757200Y-56388000D02*
X246038000Y-56668800D01*
X223266000Y-66548000D02*
X242824000Y-66548000D01*
X223012000Y-66802000D02*
X223266000Y-66548000D01*
X209804000Y-66802000D02*
X223012000Y-66802000D01*
X189738000Y-66802000D02*
X209804000Y-66802000D01*
X189484000Y-67056000D02*
X189738000Y-66802000D01*
X189230000Y-65024000D02*
X189484000Y-64770000D01*
X152654000Y-65024000D02*
X189230000Y-65024000D01*
X152400000Y-64770000D02*
X152654000Y-65024000D01*
X106934000Y-64770000D02*
X152400000Y-64770000D01*
X83312000Y-62484000D02*
X106934000Y-62484000D01*
X83058000Y-62738000D02*
X83312000Y-62484000D01*
X70612000Y-62738000D02*
X80518000Y-62738000D01*
X69088000Y-59690000D02*
X70612000Y-61214000D01*
X66802000Y-59690000D02*
X69088000Y-59690000D01*
X64817600Y-57705600D02*
X66802000Y-59690000D01*
X242543200Y-56668800D02*
X239738000Y-56668800D01*
X242824000Y-56388000D02*
X242543200Y-56668800D01*
X239764800Y-56642000D02*
X239738000Y-56668800D01*
X64770000Y-57705600D02*
X64817600Y-57705600D01*
X73660000Y-44958000D02*
X71628000Y-44958000D01*
X68072000Y-31750000D02*
X75946000Y-31750000D01*
X65532000Y-33782000D02*
X68072000Y-33782000D01*
X64770000Y-34544000D02*
X65532000Y-33782000D01*
X67818000Y-107950000D02*
X67818000Y-109982000D01*
X223266000Y-93980000D02*
X224536000Y-93980000D01*
X191008000Y-104140000D02*
X223520000Y-104140000D01*
X189230000Y-102362000D02*
X191008000Y-104140000D01*
X135890000Y-102362000D02*
X189230000Y-102362000D01*
X135636000Y-102616000D02*
X135890000Y-102362000D01*
X88900000Y-102616000D02*
X135636000Y-102616000D01*
X267562000Y-94059400D02*
X267562000Y-95150000D01*
X224615400Y-94059400D02*
X229462000Y-94059400D01*
X224536000Y-93980000D02*
X224615400Y-94059400D01*
X253746000Y-108966000D02*
X224790000Y-108966000D01*
X267562000Y-95150000D02*
X253746000Y-108966000D01*
X64770000Y-34845600D02*
X64770000Y-34544000D01*
X44704000Y-109982000D02*
X67818000Y-109982000D01*
X67818000Y-109982000D02*
X78486000Y-109982000D01*
X78486000Y-95250000D02*
X78486000Y-93726000D01*
X236982000Y-38100000D02*
X242888000Y-38100000D01*
X214630000Y-70866000D02*
X236474000Y-70866000D01*
X214376000Y-71120000D02*
X214630000Y-70866000D01*
X183388000Y-71120000D02*
X214376000Y-71120000D01*
X142494000Y-71120000D02*
X183388000Y-71120000D01*
X141986000Y-70612000D02*
X142494000Y-71120000D01*
X128524000Y-70612000D02*
X141986000Y-70612000D01*
X127508000Y-71628000D02*
X128524000Y-70612000D01*
X121666000Y-71628000D02*
X127508000Y-71628000D01*
X120650000Y-70612000D02*
X121666000Y-71628000D01*
X98552000Y-70612000D02*
X120650000Y-70612000D01*
X75438000Y-70612000D02*
X98552000Y-70612000D01*
X50800000Y-70612000D02*
X75438000Y-70612000D01*
D24*
G36*
X55628000Y-35241675D02*
X55091632Y-34786802D01*
X54391350Y-34561966D01*
X53658332Y-34622232D01*
X53004175Y-34958423D01*
X52528467Y-35519358D01*
X51665812Y-37072434D01*
X51440976Y-37772716D01*
X51501242Y-38505733D01*
X51756744Y-39002888D01*
X51229405Y-39220780D01*
X50986747Y-39463015D01*
X50847027Y-39125704D01*
X50593001Y-39042204D01*
X49709605Y-39925600D01*
X50593001Y-40808996D01*
X50597134Y-40807637D01*
X50809580Y-41321795D01*
X51227206Y-41740151D01*
X51773139Y-41966842D01*
X52364267Y-41967358D01*
X52910595Y-41741620D01*
X53328951Y-41323994D01*
X53555642Y-40778061D01*
X53556158Y-40186933D01*
X53410652Y-39834782D01*
X53831667Y-39800168D01*
X54485825Y-39463977D01*
X54961532Y-38903042D01*
X55824188Y-37349966D01*
X56049024Y-36649684D01*
X56040079Y-36540881D01*
X57351674Y-37852476D01*
X56629374Y-37851845D01*
X55662793Y-38251228D01*
X54922627Y-38990104D01*
X54521558Y-39955985D01*
X54520645Y-41001826D01*
X54920028Y-41968407D01*
X55658904Y-42708573D01*
X56187343Y-42928000D01*
X50970015Y-42928000D01*
X51052882Y-42700603D01*
X51026891Y-42099932D01*
X50847027Y-41665704D01*
X50593001Y-41582204D01*
X49709605Y-42465600D01*
X49723748Y-42479743D01*
X49544143Y-42659348D01*
X49530000Y-42645205D01*
X49515858Y-42659348D01*
X49336253Y-42479743D01*
X49350395Y-42465600D01*
X48466999Y-41582204D01*
X48212973Y-41665704D01*
X48007118Y-42230597D01*
X48033109Y-42831268D01*
X48087398Y-42962333D01*
X47969161Y-42985852D01*
X47843973Y-43069500D01*
X47722599Y-43150599D01*
X47214599Y-43658599D01*
X47049852Y-43905161D01*
X46992000Y-44196000D01*
X46992000Y-44643198D01*
X46596320Y-45038878D01*
X46550833Y-45038838D01*
X46207057Y-45180883D01*
X45943808Y-45443673D01*
X45801162Y-45787201D01*
X45800838Y-46159167D01*
X45942883Y-46502943D01*
X46205673Y-46766192D01*
X46549201Y-46908838D01*
X46921167Y-46909162D01*
X47076020Y-46845178D01*
X44643198Y-49278000D01*
X43361789Y-49278000D01*
X43434750Y-49102291D01*
X43435248Y-48531413D01*
X43217243Y-48003800D01*
X42813923Y-47599776D01*
X42286691Y-47380850D01*
X41715813Y-47380352D01*
X41661851Y-47402649D01*
X41380000Y-47120798D01*
X41380000Y-40775467D01*
X41693842Y-40775467D01*
X41919580Y-41321795D01*
X42337206Y-41740151D01*
X42883139Y-41966842D01*
X43474267Y-41967358D01*
X44020595Y-41741620D01*
X44438951Y-41323994D01*
X44578218Y-40988601D01*
X48646604Y-40988601D01*
X48714646Y-41195600D01*
X48646604Y-41402599D01*
X49530000Y-42285995D01*
X50413396Y-41402599D01*
X50345354Y-41195600D01*
X50413396Y-40988601D01*
X49530000Y-40105205D01*
X48646604Y-40988601D01*
X44578218Y-40988601D01*
X44665642Y-40778061D01*
X44666158Y-40186933D01*
X44461077Y-39690597D01*
X48007118Y-39690597D01*
X48033109Y-40291268D01*
X48212973Y-40725496D01*
X48466999Y-40808996D01*
X49350395Y-39925600D01*
X48466999Y-39042204D01*
X48212973Y-39125704D01*
X48007118Y-39690597D01*
X44461077Y-39690597D01*
X44440420Y-39640605D01*
X44022794Y-39222249D01*
X43476861Y-38995558D01*
X42885733Y-38995042D01*
X42339405Y-39220780D01*
X41921049Y-39638406D01*
X41694358Y-40184339D01*
X41693842Y-40775467D01*
X41380000Y-40775467D01*
X41380000Y-37705494D01*
X41836528Y-37443509D01*
X42285793Y-36861180D01*
X42478012Y-36151252D01*
X42523258Y-35487569D01*
X42429167Y-34758122D01*
X42063091Y-34120208D01*
X41867487Y-33969300D01*
X48006260Y-33969300D01*
X48006260Y-35721900D01*
X48050538Y-35957217D01*
X48189610Y-36173341D01*
X48401810Y-36318331D01*
X48450157Y-36328122D01*
X48249529Y-36528400D01*
X48018963Y-37083665D01*
X48018438Y-37684897D01*
X48248035Y-38240564D01*
X48672800Y-38666071D01*
X48706592Y-38680103D01*
X48646604Y-38862599D01*
X49530000Y-39745995D01*
X50413396Y-38862599D01*
X50353553Y-38680544D01*
X50384964Y-38667565D01*
X50810471Y-38242800D01*
X51041037Y-37687535D01*
X51041562Y-37086303D01*
X50811965Y-36530636D01*
X50612263Y-36330585D01*
X50641617Y-36325062D01*
X50857741Y-36185990D01*
X51002731Y-35973790D01*
X51053740Y-35721900D01*
X51053740Y-33969300D01*
X51009462Y-33733983D01*
X50870390Y-33517859D01*
X50658190Y-33372869D01*
X50406300Y-33321860D01*
X48653700Y-33321860D01*
X48418383Y-33366138D01*
X48202259Y-33505210D01*
X48057269Y-33717410D01*
X48006260Y-33969300D01*
X41867487Y-33969300D01*
X41480762Y-33670943D01*
X40770834Y-33478724D01*
X40041387Y-33572814D01*
X39403472Y-33938891D01*
X38954207Y-34521220D01*
X38761988Y-35231148D01*
X38716742Y-35894830D01*
X38810833Y-36624277D01*
X39176909Y-37262192D01*
X39759238Y-37711457D01*
X39860000Y-37738739D01*
X39860000Y-38523200D01*
X39591096Y-38253827D01*
X38625215Y-37852758D01*
X37579374Y-37851845D01*
X36612793Y-38251228D01*
X35872627Y-38990104D01*
X35471558Y-39955985D01*
X35470645Y-41001826D01*
X35870028Y-41968407D01*
X36608904Y-42708573D01*
X37574785Y-43109642D01*
X38620626Y-43110555D01*
X39587207Y-42711172D01*
X39860000Y-42438854D01*
X39860000Y-47435600D01*
X39886368Y-47568160D01*
X39075000Y-47568160D01*
X38839683Y-47612438D01*
X38623559Y-47751510D01*
X38478569Y-47963710D01*
X38427560Y-48215600D01*
X38427560Y-49313892D01*
X38317161Y-49335852D01*
X38070599Y-49500599D01*
X37492046Y-50079152D01*
X37382640Y-50004398D01*
X37576441Y-49879690D01*
X37721431Y-49667490D01*
X37772440Y-49415600D01*
X37772440Y-48215600D01*
X37728162Y-47980283D01*
X37589090Y-47764159D01*
X37376890Y-47619169D01*
X37125000Y-47568160D01*
X35925000Y-47568160D01*
X35689683Y-47612438D01*
X35552118Y-47700959D01*
X35464090Y-47564159D01*
X35251890Y-47419169D01*
X35000000Y-47368160D01*
X33400000Y-47368160D01*
X33164683Y-47412438D01*
X32948559Y-47551510D01*
X32803569Y-47763710D01*
X32752560Y-48015600D01*
X32752560Y-48055600D01*
X31194400Y-48055600D01*
X30903561Y-48113452D01*
X30656999Y-48278199D01*
X30594320Y-48340878D01*
X30548833Y-48340838D01*
X30205057Y-48482883D01*
X30067166Y-48620533D01*
X29729240Y-48282017D01*
X28981562Y-47971554D01*
X28171989Y-47970848D01*
X27423771Y-48280005D01*
X26850817Y-48851960D01*
X26540354Y-49599638D01*
X26539648Y-50409211D01*
X26848805Y-51157429D01*
X27420760Y-51730383D01*
X28168438Y-52040846D01*
X28978011Y-52041552D01*
X29726229Y-51732395D01*
X30299183Y-51160440D01*
X30609646Y-50412762D01*
X30609822Y-50210893D01*
X30919167Y-50211162D01*
X31262943Y-50069117D01*
X31526192Y-49806327D01*
X31621999Y-49575600D01*
X32752560Y-49575600D01*
X32752560Y-49615600D01*
X32796838Y-49850917D01*
X32897562Y-50007447D01*
X32803569Y-50145010D01*
X32752560Y-50396900D01*
X32752560Y-51996900D01*
X32796838Y-52232217D01*
X32935910Y-52448341D01*
X33148110Y-52593331D01*
X33400000Y-52644340D01*
X35000000Y-52644340D01*
X35235317Y-52600062D01*
X35451441Y-52460990D01*
X35553508Y-52311610D01*
X35673110Y-52393331D01*
X35925000Y-52444340D01*
X37125000Y-52444340D01*
X37360317Y-52400062D01*
X37576441Y-52260990D01*
X37721431Y-52048790D01*
X37753603Y-51889918D01*
X37986501Y-51734301D01*
X38427560Y-51293242D01*
X38427560Y-51796900D01*
X38471838Y-52032217D01*
X38610910Y-52248341D01*
X38823110Y-52393331D01*
X39075000Y-52444340D01*
X39886368Y-52444340D01*
X39860000Y-52576900D01*
X39860000Y-52726906D01*
X39403472Y-52988891D01*
X38954207Y-53571220D01*
X38761988Y-54281148D01*
X38716742Y-54944830D01*
X38810833Y-55674277D01*
X39176909Y-56312192D01*
X39759238Y-56761457D01*
X40469166Y-56953676D01*
X41198613Y-56859585D01*
X41836528Y-56493509D01*
X42285793Y-55911180D01*
X42478012Y-55201252D01*
X42523258Y-54537569D01*
X42429167Y-53808122D01*
X42063091Y-53170208D01*
X41520275Y-52751427D01*
X41661546Y-52610156D01*
X41713309Y-52631650D01*
X42284187Y-52632148D01*
X42811800Y-52414143D01*
X43215824Y-52010823D01*
X43434750Y-51483591D01*
X43435248Y-50912713D01*
X43387850Y-50798000D01*
X44958000Y-50798000D01*
X45248839Y-50740148D01*
X45495401Y-50575401D01*
X46372759Y-49698043D01*
X46309162Y-49851201D01*
X46308838Y-50223167D01*
X46450883Y-50566943D01*
X46556710Y-50672954D01*
X46451808Y-50777673D01*
X46309162Y-51121201D01*
X46308838Y-51493167D01*
X46450883Y-51836943D01*
X46713673Y-52100192D01*
X47025517Y-52229681D01*
X44166599Y-55088599D01*
X44001852Y-55335161D01*
X43944000Y-55626000D01*
X43944000Y-58239531D01*
X43476861Y-58045558D01*
X42885733Y-58045042D01*
X42339405Y-58270780D01*
X41921049Y-58688406D01*
X41694358Y-59234339D01*
X41693842Y-59825467D01*
X41919580Y-60371795D01*
X42337206Y-60790151D01*
X42883139Y-61016842D01*
X43474267Y-61017358D01*
X43944000Y-60823268D01*
X43944000Y-63953537D01*
X43911808Y-63985673D01*
X43769162Y-64329201D01*
X43768838Y-64701167D01*
X43910883Y-65044943D01*
X44145530Y-65280000D01*
X37398802Y-65280000D01*
X33136004Y-61017202D01*
X33314267Y-61017358D01*
X33860595Y-60791620D01*
X34278951Y-60373994D01*
X34412726Y-60051826D01*
X35470645Y-60051826D01*
X35870028Y-61018407D01*
X36608904Y-61758573D01*
X37574785Y-62159642D01*
X38620626Y-62160555D01*
X39587207Y-61761172D01*
X40327373Y-61022296D01*
X40728442Y-60056415D01*
X40729355Y-59010574D01*
X40329972Y-58043993D01*
X39591096Y-57303827D01*
X38625215Y-56902758D01*
X37579374Y-56901845D01*
X36612793Y-57301228D01*
X35872627Y-58040104D01*
X35471558Y-59005985D01*
X35470645Y-60051826D01*
X34412726Y-60051826D01*
X34505642Y-59828061D01*
X34506158Y-59236933D01*
X34360652Y-58884782D01*
X34781667Y-58850168D01*
X35435825Y-58513977D01*
X35911532Y-57953042D01*
X36774188Y-56399966D01*
X36999024Y-55699684D01*
X36938758Y-54966667D01*
X36602567Y-54312509D01*
X36041632Y-53836802D01*
X35341350Y-53611966D01*
X34608332Y-53672232D01*
X33954175Y-54008423D01*
X33478467Y-54569358D01*
X32615812Y-56122434D01*
X32390976Y-56822716D01*
X32451242Y-57555733D01*
X32706744Y-58052888D01*
X32179405Y-58270780D01*
X31761049Y-58688406D01*
X31534358Y-59234339D01*
X31534200Y-59415398D01*
X28985401Y-56866599D01*
X28738839Y-56701852D01*
X28448000Y-56644000D01*
X22524286Y-56644000D01*
X22786528Y-56493509D01*
X23235793Y-55911180D01*
X23428012Y-55201252D01*
X23473258Y-54537569D01*
X23379167Y-53808122D01*
X23013091Y-53170208D01*
X22430762Y-52720943D01*
X21720834Y-52528724D01*
X20991387Y-52622814D01*
X20353472Y-52988891D01*
X19904207Y-53571220D01*
X19711988Y-54281148D01*
X19668713Y-54915911D01*
X17197142Y-52444340D01*
X18075000Y-52444340D01*
X18310317Y-52400062D01*
X18526441Y-52260990D01*
X18671431Y-52048790D01*
X18722440Y-51796900D01*
X18722440Y-50596900D01*
X18678162Y-50361583D01*
X18539090Y-50145459D01*
X18332640Y-50004398D01*
X18526441Y-49879690D01*
X18671431Y-49667490D01*
X18722440Y-49415600D01*
X18722440Y-48215600D01*
X18710208Y-48150594D01*
X21221680Y-45639122D01*
X21267167Y-45639162D01*
X21338000Y-45609894D01*
X21338000Y-47591043D01*
X21225000Y-47568160D01*
X20025000Y-47568160D01*
X19789683Y-47612438D01*
X19573559Y-47751510D01*
X19428569Y-47963710D01*
X19377560Y-48215600D01*
X19377560Y-49415600D01*
X19421838Y-49650917D01*
X19560910Y-49867041D01*
X19767360Y-50008102D01*
X19573559Y-50132810D01*
X19428569Y-50345010D01*
X19377560Y-50596900D01*
X19377560Y-51796900D01*
X19421838Y-52032217D01*
X19560910Y-52248341D01*
X19773110Y-52393331D01*
X20025000Y-52444340D01*
X21225000Y-52444340D01*
X21460317Y-52400062D01*
X21676441Y-52260990D01*
X21790308Y-52094340D01*
X21818248Y-52094340D01*
X22136077Y-52412724D01*
X22663309Y-52631650D01*
X23234187Y-52632148D01*
X23761800Y-52414143D01*
X24165824Y-52010823D01*
X24384750Y-51483591D01*
X24385248Y-50912713D01*
X24167243Y-50385100D01*
X23788747Y-50005943D01*
X24165824Y-49629523D01*
X24384750Y-49102291D01*
X24385248Y-48531413D01*
X24167243Y-48003800D01*
X23763923Y-47599776D01*
X23236691Y-47380850D01*
X22858000Y-47380520D01*
X22858000Y-43230111D01*
X23091673Y-43464192D01*
X23435201Y-43606838D01*
X23807167Y-43607162D01*
X24150943Y-43465117D01*
X24414192Y-43202327D01*
X24529764Y-42924000D01*
X24638000Y-42924000D01*
X24641673Y-42923269D01*
X24645351Y-42923964D01*
X24786943Y-42894373D01*
X24928839Y-42866148D01*
X24931952Y-42864068D01*
X24935618Y-42863302D01*
X25055151Y-42781749D01*
X25175401Y-42701401D01*
X25177481Y-42698288D01*
X25180574Y-42696178D01*
X27064481Y-40775467D01*
X31533842Y-40775467D01*
X31759580Y-41321795D01*
X32177206Y-41740151D01*
X32723139Y-41966842D01*
X33314267Y-41967358D01*
X33860595Y-41741620D01*
X34278951Y-41323994D01*
X34505642Y-40778061D01*
X34506158Y-40186933D01*
X34360652Y-39834782D01*
X34781667Y-39800168D01*
X35435825Y-39463977D01*
X35911532Y-38903042D01*
X36774188Y-37349966D01*
X36999024Y-36649684D01*
X36938758Y-35916667D01*
X36602567Y-35262509D01*
X36041632Y-34786802D01*
X35341350Y-34561966D01*
X34608332Y-34622232D01*
X33954175Y-34958423D01*
X33478467Y-35519358D01*
X32615812Y-37072434D01*
X32390976Y-37772716D01*
X32451242Y-38505733D01*
X32706744Y-39002888D01*
X32179405Y-39220780D01*
X31761049Y-39638406D01*
X31534358Y-40184339D01*
X31533842Y-40775467D01*
X27064481Y-40775467D01*
X35120069Y-32562508D01*
X55628000Y-32397826D01*
X55628000Y-35241675D01*
X55628000Y-35241675D01*
G37*
X55628000Y-35241675D02*
X55091632Y-34786802D01*
X54391350Y-34561966D01*
X53658332Y-34622232D01*
X53004175Y-34958423D01*
X52528467Y-35519358D01*
X51665812Y-37072434D01*
X51440976Y-37772716D01*
X51501242Y-38505733D01*
X51756744Y-39002888D01*
X51229405Y-39220780D01*
X50986747Y-39463015D01*
X50847027Y-39125704D01*
X50593001Y-39042204D01*
X49709605Y-39925600D01*
X50593001Y-40808996D01*
X50597134Y-40807637D01*
X50809580Y-41321795D01*
X51227206Y-41740151D01*
X51773139Y-41966842D01*
X52364267Y-41967358D01*
X52910595Y-41741620D01*
X53328951Y-41323994D01*
X53555642Y-40778061D01*
X53556158Y-40186933D01*
X53410652Y-39834782D01*
X53831667Y-39800168D01*
X54485825Y-39463977D01*
X54961532Y-38903042D01*
X55824188Y-37349966D01*
X56049024Y-36649684D01*
X56040079Y-36540881D01*
X57351674Y-37852476D01*
X56629374Y-37851845D01*
X55662793Y-38251228D01*
X54922627Y-38990104D01*
X54521558Y-39955985D01*
X54520645Y-41001826D01*
X54920028Y-41968407D01*
X55658904Y-42708573D01*
X56187343Y-42928000D01*
X50970015Y-42928000D01*
X51052882Y-42700603D01*
X51026891Y-42099932D01*
X50847027Y-41665704D01*
X50593001Y-41582204D01*
X49709605Y-42465600D01*
X49723748Y-42479743D01*
X49544143Y-42659348D01*
X49530000Y-42645205D01*
X49515858Y-42659348D01*
X49336253Y-42479743D01*
X49350395Y-42465600D01*
X48466999Y-41582204D01*
X48212973Y-41665704D01*
X48007118Y-42230597D01*
X48033109Y-42831268D01*
X48087398Y-42962333D01*
X47969161Y-42985852D01*
X47843973Y-43069500D01*
X47722599Y-43150599D01*
X47214599Y-43658599D01*
X47049852Y-43905161D01*
X46992000Y-44196000D01*
X46992000Y-44643198D01*
X46596320Y-45038878D01*
X46550833Y-45038838D01*
X46207057Y-45180883D01*
X45943808Y-45443673D01*
X45801162Y-45787201D01*
X45800838Y-46159167D01*
X45942883Y-46502943D01*
X46205673Y-46766192D01*
X46549201Y-46908838D01*
X46921167Y-46909162D01*
X47076020Y-46845178D01*
X44643198Y-49278000D01*
X43361789Y-49278000D01*
X43434750Y-49102291D01*
X43435248Y-48531413D01*
X43217243Y-48003800D01*
X42813923Y-47599776D01*
X42286691Y-47380850D01*
X41715813Y-47380352D01*
X41661851Y-47402649D01*
X41380000Y-47120798D01*
X41380000Y-40775467D01*
X41693842Y-40775467D01*
X41919580Y-41321795D01*
X42337206Y-41740151D01*
X42883139Y-41966842D01*
X43474267Y-41967358D01*
X44020595Y-41741620D01*
X44438951Y-41323994D01*
X44578218Y-40988601D01*
X48646604Y-40988601D01*
X48714646Y-41195600D01*
X48646604Y-41402599D01*
X49530000Y-42285995D01*
X50413396Y-41402599D01*
X50345354Y-41195600D01*
X50413396Y-40988601D01*
X49530000Y-40105205D01*
X48646604Y-40988601D01*
X44578218Y-40988601D01*
X44665642Y-40778061D01*
X44666158Y-40186933D01*
X44461077Y-39690597D01*
X48007118Y-39690597D01*
X48033109Y-40291268D01*
X48212973Y-40725496D01*
X48466999Y-40808996D01*
X49350395Y-39925600D01*
X48466999Y-39042204D01*
X48212973Y-39125704D01*
X48007118Y-39690597D01*
X44461077Y-39690597D01*
X44440420Y-39640605D01*
X44022794Y-39222249D01*
X43476861Y-38995558D01*
X42885733Y-38995042D01*
X42339405Y-39220780D01*
X41921049Y-39638406D01*
X41694358Y-40184339D01*
X41693842Y-40775467D01*
X41380000Y-40775467D01*
X41380000Y-37705494D01*
X41836528Y-37443509D01*
X42285793Y-36861180D01*
X42478012Y-36151252D01*
X42523258Y-35487569D01*
X42429167Y-34758122D01*
X42063091Y-34120208D01*
X41867487Y-33969300D01*
X48006260Y-33969300D01*
X48006260Y-35721900D01*
X48050538Y-35957217D01*
X48189610Y-36173341D01*
X48401810Y-36318331D01*
X48450157Y-36328122D01*
X48249529Y-36528400D01*
X48018963Y-37083665D01*
X48018438Y-37684897D01*
X48248035Y-38240564D01*
X48672800Y-38666071D01*
X48706592Y-38680103D01*
X48646604Y-38862599D01*
X49530000Y-39745995D01*
X50413396Y-38862599D01*
X50353553Y-38680544D01*
X50384964Y-38667565D01*
X50810471Y-38242800D01*
X51041037Y-37687535D01*
X51041562Y-37086303D01*
X50811965Y-36530636D01*
X50612263Y-36330585D01*
X50641617Y-36325062D01*
X50857741Y-36185990D01*
X51002731Y-35973790D01*
X51053740Y-35721900D01*
X51053740Y-33969300D01*
X51009462Y-33733983D01*
X50870390Y-33517859D01*
X50658190Y-33372869D01*
X50406300Y-33321860D01*
X48653700Y-33321860D01*
X48418383Y-33366138D01*
X48202259Y-33505210D01*
X48057269Y-33717410D01*
X48006260Y-33969300D01*
X41867487Y-33969300D01*
X41480762Y-33670943D01*
X40770834Y-33478724D01*
X40041387Y-33572814D01*
X39403472Y-33938891D01*
X38954207Y-34521220D01*
X38761988Y-35231148D01*
X38716742Y-35894830D01*
X38810833Y-36624277D01*
X39176909Y-37262192D01*
X39759238Y-37711457D01*
X39860000Y-37738739D01*
X39860000Y-38523200D01*
X39591096Y-38253827D01*
X38625215Y-37852758D01*
X37579374Y-37851845D01*
X36612793Y-38251228D01*
X35872627Y-38990104D01*
X35471558Y-39955985D01*
X35470645Y-41001826D01*
X35870028Y-41968407D01*
X36608904Y-42708573D01*
X37574785Y-43109642D01*
X38620626Y-43110555D01*
X39587207Y-42711172D01*
X39860000Y-42438854D01*
X39860000Y-47435600D01*
X39886368Y-47568160D01*
X39075000Y-47568160D01*
X38839683Y-47612438D01*
X38623559Y-47751510D01*
X38478569Y-47963710D01*
X38427560Y-48215600D01*
X38427560Y-49313892D01*
X38317161Y-49335852D01*
X38070599Y-49500599D01*
X37492046Y-50079152D01*
X37382640Y-50004398D01*
X37576441Y-49879690D01*
X37721431Y-49667490D01*
X37772440Y-49415600D01*
X37772440Y-48215600D01*
X37728162Y-47980283D01*
X37589090Y-47764159D01*
X37376890Y-47619169D01*
X37125000Y-47568160D01*
X35925000Y-47568160D01*
X35689683Y-47612438D01*
X35552118Y-47700959D01*
X35464090Y-47564159D01*
X35251890Y-47419169D01*
X35000000Y-47368160D01*
X33400000Y-47368160D01*
X33164683Y-47412438D01*
X32948559Y-47551510D01*
X32803569Y-47763710D01*
X32752560Y-48015600D01*
X32752560Y-48055600D01*
X31194400Y-48055600D01*
X30903561Y-48113452D01*
X30656999Y-48278199D01*
X30594320Y-48340878D01*
X30548833Y-48340838D01*
X30205057Y-48482883D01*
X30067166Y-48620533D01*
X29729240Y-48282017D01*
X28981562Y-47971554D01*
X28171989Y-47970848D01*
X27423771Y-48280005D01*
X26850817Y-48851960D01*
X26540354Y-49599638D01*
X26539648Y-50409211D01*
X26848805Y-51157429D01*
X27420760Y-51730383D01*
X28168438Y-52040846D01*
X28978011Y-52041552D01*
X29726229Y-51732395D01*
X30299183Y-51160440D01*
X30609646Y-50412762D01*
X30609822Y-50210893D01*
X30919167Y-50211162D01*
X31262943Y-50069117D01*
X31526192Y-49806327D01*
X31621999Y-49575600D01*
X32752560Y-49575600D01*
X32752560Y-49615600D01*
X32796838Y-49850917D01*
X32897562Y-50007447D01*
X32803569Y-50145010D01*
X32752560Y-50396900D01*
X32752560Y-51996900D01*
X32796838Y-52232217D01*
X32935910Y-52448341D01*
X33148110Y-52593331D01*
X33400000Y-52644340D01*
X35000000Y-52644340D01*
X35235317Y-52600062D01*
X35451441Y-52460990D01*
X35553508Y-52311610D01*
X35673110Y-52393331D01*
X35925000Y-52444340D01*
X37125000Y-52444340D01*
X37360317Y-52400062D01*
X37576441Y-52260990D01*
X37721431Y-52048790D01*
X37753603Y-51889918D01*
X37986501Y-51734301D01*
X38427560Y-51293242D01*
X38427560Y-51796900D01*
X38471838Y-52032217D01*
X38610910Y-52248341D01*
X38823110Y-52393331D01*
X39075000Y-52444340D01*
X39886368Y-52444340D01*
X39860000Y-52576900D01*
X39860000Y-52726906D01*
X39403472Y-52988891D01*
X38954207Y-53571220D01*
X38761988Y-54281148D01*
X38716742Y-54944830D01*
X38810833Y-55674277D01*
X39176909Y-56312192D01*
X39759238Y-56761457D01*
X40469166Y-56953676D01*
X41198613Y-56859585D01*
X41836528Y-56493509D01*
X42285793Y-55911180D01*
X42478012Y-55201252D01*
X42523258Y-54537569D01*
X42429167Y-53808122D01*
X42063091Y-53170208D01*
X41520275Y-52751427D01*
X41661546Y-52610156D01*
X41713309Y-52631650D01*
X42284187Y-52632148D01*
X42811800Y-52414143D01*
X43215824Y-52010823D01*
X43434750Y-51483591D01*
X43435248Y-50912713D01*
X43387850Y-50798000D01*
X44958000Y-50798000D01*
X45248839Y-50740148D01*
X45495401Y-50575401D01*
X46372759Y-49698043D01*
X46309162Y-49851201D01*
X46308838Y-50223167D01*
X46450883Y-50566943D01*
X46556710Y-50672954D01*
X46451808Y-50777673D01*
X46309162Y-51121201D01*
X46308838Y-51493167D01*
X46450883Y-51836943D01*
X46713673Y-52100192D01*
X47025517Y-52229681D01*
X44166599Y-55088599D01*
X44001852Y-55335161D01*
X43944000Y-55626000D01*
X43944000Y-58239531D01*
X43476861Y-58045558D01*
X42885733Y-58045042D01*
X42339405Y-58270780D01*
X41921049Y-58688406D01*
X41694358Y-59234339D01*
X41693842Y-59825467D01*
X41919580Y-60371795D01*
X42337206Y-60790151D01*
X42883139Y-61016842D01*
X43474267Y-61017358D01*
X43944000Y-60823268D01*
X43944000Y-63953537D01*
X43911808Y-63985673D01*
X43769162Y-64329201D01*
X43768838Y-64701167D01*
X43910883Y-65044943D01*
X44145530Y-65280000D01*
X37398802Y-65280000D01*
X33136004Y-61017202D01*
X33314267Y-61017358D01*
X33860595Y-60791620D01*
X34278951Y-60373994D01*
X34412726Y-60051826D01*
X35470645Y-60051826D01*
X35870028Y-61018407D01*
X36608904Y-61758573D01*
X37574785Y-62159642D01*
X38620626Y-62160555D01*
X39587207Y-61761172D01*
X40327373Y-61022296D01*
X40728442Y-60056415D01*
X40729355Y-59010574D01*
X40329972Y-58043993D01*
X39591096Y-57303827D01*
X38625215Y-56902758D01*
X37579374Y-56901845D01*
X36612793Y-57301228D01*
X35872627Y-58040104D01*
X35471558Y-59005985D01*
X35470645Y-60051826D01*
X34412726Y-60051826D01*
X34505642Y-59828061D01*
X34506158Y-59236933D01*
X34360652Y-58884782D01*
X34781667Y-58850168D01*
X35435825Y-58513977D01*
X35911532Y-57953042D01*
X36774188Y-56399966D01*
X36999024Y-55699684D01*
X36938758Y-54966667D01*
X36602567Y-54312509D01*
X36041632Y-53836802D01*
X35341350Y-53611966D01*
X34608332Y-53672232D01*
X33954175Y-54008423D01*
X33478467Y-54569358D01*
X32615812Y-56122434D01*
X32390976Y-56822716D01*
X32451242Y-57555733D01*
X32706744Y-58052888D01*
X32179405Y-58270780D01*
X31761049Y-58688406D01*
X31534358Y-59234339D01*
X31534200Y-59415398D01*
X28985401Y-56866599D01*
X28738839Y-56701852D01*
X28448000Y-56644000D01*
X22524286Y-56644000D01*
X22786528Y-56493509D01*
X23235793Y-55911180D01*
X23428012Y-55201252D01*
X23473258Y-54537569D01*
X23379167Y-53808122D01*
X23013091Y-53170208D01*
X22430762Y-52720943D01*
X21720834Y-52528724D01*
X20991387Y-52622814D01*
X20353472Y-52988891D01*
X19904207Y-53571220D01*
X19711988Y-54281148D01*
X19668713Y-54915911D01*
X17197142Y-52444340D01*
X18075000Y-52444340D01*
X18310317Y-52400062D01*
X18526441Y-52260990D01*
X18671431Y-52048790D01*
X18722440Y-51796900D01*
X18722440Y-50596900D01*
X18678162Y-50361583D01*
X18539090Y-50145459D01*
X18332640Y-50004398D01*
X18526441Y-49879690D01*
X18671431Y-49667490D01*
X18722440Y-49415600D01*
X18722440Y-48215600D01*
X18710208Y-48150594D01*
X21221680Y-45639122D01*
X21267167Y-45639162D01*
X21338000Y-45609894D01*
X21338000Y-47591043D01*
X21225000Y-47568160D01*
X20025000Y-47568160D01*
X19789683Y-47612438D01*
X19573559Y-47751510D01*
X19428569Y-47963710D01*
X19377560Y-48215600D01*
X19377560Y-49415600D01*
X19421838Y-49650917D01*
X19560910Y-49867041D01*
X19767360Y-50008102D01*
X19573559Y-50132810D01*
X19428569Y-50345010D01*
X19377560Y-50596900D01*
X19377560Y-51796900D01*
X19421838Y-52032217D01*
X19560910Y-52248341D01*
X19773110Y-52393331D01*
X20025000Y-52444340D01*
X21225000Y-52444340D01*
X21460317Y-52400062D01*
X21676441Y-52260990D01*
X21790308Y-52094340D01*
X21818248Y-52094340D01*
X22136077Y-52412724D01*
X22663309Y-52631650D01*
X23234187Y-52632148D01*
X23761800Y-52414143D01*
X24165824Y-52010823D01*
X24384750Y-51483591D01*
X24385248Y-50912713D01*
X24167243Y-50385100D01*
X23788747Y-50005943D01*
X24165824Y-49629523D01*
X24384750Y-49102291D01*
X24385248Y-48531413D01*
X24167243Y-48003800D01*
X23763923Y-47599776D01*
X23236691Y-47380850D01*
X22858000Y-47380520D01*
X22858000Y-43230111D01*
X23091673Y-43464192D01*
X23435201Y-43606838D01*
X23807167Y-43607162D01*
X24150943Y-43465117D01*
X24414192Y-43202327D01*
X24529764Y-42924000D01*
X24638000Y-42924000D01*
X24641673Y-42923269D01*
X24645351Y-42923964D01*
X24786943Y-42894373D01*
X24928839Y-42866148D01*
X24931952Y-42864068D01*
X24935618Y-42863302D01*
X25055151Y-42781749D01*
X25175401Y-42701401D01*
X25177481Y-42698288D01*
X25180574Y-42696178D01*
X27064481Y-40775467D01*
X31533842Y-40775467D01*
X31759580Y-41321795D01*
X32177206Y-41740151D01*
X32723139Y-41966842D01*
X33314267Y-41967358D01*
X33860595Y-41741620D01*
X34278951Y-41323994D01*
X34505642Y-40778061D01*
X34506158Y-40186933D01*
X34360652Y-39834782D01*
X34781667Y-39800168D01*
X35435825Y-39463977D01*
X35911532Y-38903042D01*
X36774188Y-37349966D01*
X36999024Y-36649684D01*
X36938758Y-35916667D01*
X36602567Y-35262509D01*
X36041632Y-34786802D01*
X35341350Y-34561966D01*
X34608332Y-34622232D01*
X33954175Y-34958423D01*
X33478467Y-35519358D01*
X32615812Y-37072434D01*
X32390976Y-37772716D01*
X32451242Y-38505733D01*
X32706744Y-39002888D01*
X32179405Y-39220780D01*
X31761049Y-39638406D01*
X31534358Y-40184339D01*
X31533842Y-40775467D01*
X27064481Y-40775467D01*
X35120069Y-32562508D01*
X55628000Y-32397826D01*
X55628000Y-35241675D01*
G36*
X59438000Y-47163002D02*
X59438000Y-48768000D01*
X59495852Y-49058839D01*
X59660599Y-49305401D01*
X63258457Y-52903259D01*
X63258438Y-52924897D01*
X63488035Y-53480564D01*
X63902698Y-53895951D01*
X63489529Y-54308400D01*
X63258963Y-54863665D01*
X63258559Y-55325757D01*
X62136601Y-54203799D01*
X61890039Y-54039052D01*
X61599200Y-53981200D01*
X61501492Y-53981200D01*
X61479167Y-53808122D01*
X61113091Y-53170208D01*
X60530762Y-52720943D01*
X59820834Y-52528724D01*
X59091387Y-52622814D01*
X58453472Y-52988891D01*
X58004207Y-53571220D01*
X57811988Y-54281148D01*
X57766742Y-54944830D01*
X57860833Y-55674277D01*
X58226909Y-56312192D01*
X58809238Y-56761457D01*
X59519166Y-56953676D01*
X60248613Y-56859585D01*
X60886528Y-56493509D01*
X61335793Y-55911180D01*
X61412196Y-55628998D01*
X62708599Y-56925401D01*
X62955161Y-57090148D01*
X63246000Y-57148000D01*
X63365124Y-57148000D01*
X63258963Y-57403665D01*
X63258438Y-58004897D01*
X63488035Y-58560564D01*
X63912800Y-58986071D01*
X63946592Y-59000103D01*
X63886605Y-59182597D01*
X63771977Y-59067969D01*
X63683076Y-59156870D01*
X63490420Y-58690605D01*
X63072794Y-58272249D01*
X62526861Y-58045558D01*
X61935733Y-58045042D01*
X61389405Y-58270780D01*
X60971049Y-58688406D01*
X60744358Y-59234339D01*
X60743842Y-59825467D01*
X60969580Y-60371795D01*
X61387206Y-60790151D01*
X61933139Y-61016842D01*
X62524267Y-61017358D01*
X63070595Y-60791620D01*
X63272204Y-60590362D01*
X63273109Y-60611268D01*
X63452973Y-61045496D01*
X63706999Y-61128996D01*
X64590395Y-60245600D01*
X64576253Y-60231458D01*
X64755858Y-60051853D01*
X64770000Y-60065995D01*
X64784143Y-60051853D01*
X64963748Y-60231458D01*
X64949605Y-60245600D01*
X65833001Y-61128996D01*
X66022860Y-61066588D01*
X66022860Y-61706200D01*
X66067138Y-61941517D01*
X66155659Y-62079082D01*
X66122198Y-62100613D01*
X66051965Y-61930636D01*
X65627200Y-61505129D01*
X65593408Y-61491097D01*
X65653396Y-61308601D01*
X64770000Y-60425205D01*
X63886604Y-61308601D01*
X63946447Y-61490656D01*
X63915036Y-61503635D01*
X63489529Y-61928400D01*
X63258963Y-62483665D01*
X63258438Y-63084897D01*
X63488035Y-63640564D01*
X63912800Y-64066071D01*
X64468065Y-64296637D01*
X65069297Y-64297162D01*
X65512779Y-64113919D01*
X64346698Y-65280000D01*
X62910999Y-65280000D01*
X62911162Y-65092833D01*
X62769117Y-64749057D01*
X62506327Y-64485808D01*
X62162799Y-64343162D01*
X62115923Y-64343121D01*
X60021001Y-62248199D01*
X59774439Y-62083452D01*
X59483600Y-62025600D01*
X57997242Y-62025600D01*
X58637207Y-61761172D01*
X59377373Y-61022296D01*
X59778442Y-60056415D01*
X59779355Y-59010574D01*
X59379972Y-58043993D01*
X58641096Y-57303827D01*
X57675215Y-56902758D01*
X56629374Y-56901845D01*
X55662793Y-57301228D01*
X54922627Y-58040104D01*
X54521558Y-59005985D01*
X54520645Y-60051826D01*
X54920028Y-61018407D01*
X55658904Y-61758573D01*
X56301976Y-62025600D01*
X50851203Y-62025600D01*
X50811965Y-61930636D01*
X50397302Y-61515249D01*
X50810471Y-61102800D01*
X51024579Y-60587170D01*
X51227206Y-60790151D01*
X51773139Y-61016842D01*
X52364267Y-61017358D01*
X52910595Y-60791620D01*
X53328951Y-60373994D01*
X53555642Y-59828061D01*
X53556158Y-59236933D01*
X53410652Y-58884782D01*
X53831667Y-58850168D01*
X54485825Y-58513977D01*
X54961532Y-57953042D01*
X55824188Y-56399966D01*
X56049024Y-55699684D01*
X55988758Y-54966667D01*
X55652567Y-54312509D01*
X55091632Y-53836802D01*
X54391350Y-53611966D01*
X53658332Y-53672232D01*
X53004175Y-54008423D01*
X52528467Y-54569358D01*
X51665812Y-56122434D01*
X51440976Y-56822716D01*
X51501242Y-57555733D01*
X51756744Y-58052888D01*
X51229405Y-58270780D01*
X50811049Y-58688406D01*
X50605387Y-59183697D01*
X50397302Y-58975249D01*
X50810471Y-58562800D01*
X51041037Y-58007535D01*
X51041562Y-57406303D01*
X50811965Y-56850636D01*
X50397302Y-56435249D01*
X50810471Y-56022800D01*
X51041037Y-55467535D01*
X51041562Y-54866303D01*
X50811965Y-54310636D01*
X50397302Y-53895249D01*
X50810471Y-53482800D01*
X51041037Y-52927535D01*
X51041562Y-52326303D01*
X50934833Y-52068000D01*
X56093403Y-52068000D01*
X56102883Y-52090943D01*
X56365673Y-52354192D01*
X56709201Y-52496838D01*
X57081167Y-52497162D01*
X57424943Y-52355117D01*
X57688192Y-52092327D01*
X57830838Y-51748799D01*
X57831162Y-51376833D01*
X57689117Y-51033057D01*
X57426327Y-50769808D01*
X57082799Y-50627162D01*
X56964578Y-50627059D01*
X56932839Y-50605852D01*
X56642000Y-50548000D01*
X52540335Y-50548000D01*
X59268855Y-47162855D01*
X59438000Y-47163002D01*
X59438000Y-47163002D01*
G37*
X59438000Y-47163002D02*
X59438000Y-48768000D01*
X59495852Y-49058839D01*
X59660599Y-49305401D01*
X63258457Y-52903259D01*
X63258438Y-52924897D01*
X63488035Y-53480564D01*
X63902698Y-53895951D01*
X63489529Y-54308400D01*
X63258963Y-54863665D01*
X63258559Y-55325757D01*
X62136601Y-54203799D01*
X61890039Y-54039052D01*
X61599200Y-53981200D01*
X61501492Y-53981200D01*
X61479167Y-53808122D01*
X61113091Y-53170208D01*
X60530762Y-52720943D01*
X59820834Y-52528724D01*
X59091387Y-52622814D01*
X58453472Y-52988891D01*
X58004207Y-53571220D01*
X57811988Y-54281148D01*
X57766742Y-54944830D01*
X57860833Y-55674277D01*
X58226909Y-56312192D01*
X58809238Y-56761457D01*
X59519166Y-56953676D01*
X60248613Y-56859585D01*
X60886528Y-56493509D01*
X61335793Y-55911180D01*
X61412196Y-55628998D01*
X62708599Y-56925401D01*
X62955161Y-57090148D01*
X63246000Y-57148000D01*
X63365124Y-57148000D01*
X63258963Y-57403665D01*
X63258438Y-58004897D01*
X63488035Y-58560564D01*
X63912800Y-58986071D01*
X63946592Y-59000103D01*
X63886605Y-59182597D01*
X63771977Y-59067969D01*
X63683076Y-59156870D01*
X63490420Y-58690605D01*
X63072794Y-58272249D01*
X62526861Y-58045558D01*
X61935733Y-58045042D01*
X61389405Y-58270780D01*
X60971049Y-58688406D01*
X60744358Y-59234339D01*
X60743842Y-59825467D01*
X60969580Y-60371795D01*
X61387206Y-60790151D01*
X61933139Y-61016842D01*
X62524267Y-61017358D01*
X63070595Y-60791620D01*
X63272204Y-60590362D01*
X63273109Y-60611268D01*
X63452973Y-61045496D01*
X63706999Y-61128996D01*
X64590395Y-60245600D01*
X64576253Y-60231458D01*
X64755858Y-60051853D01*
X64770000Y-60065995D01*
X64784143Y-60051853D01*
X64963748Y-60231458D01*
X64949605Y-60245600D01*
X65833001Y-61128996D01*
X66022860Y-61066588D01*
X66022860Y-61706200D01*
X66067138Y-61941517D01*
X66155659Y-62079082D01*
X66122198Y-62100613D01*
X66051965Y-61930636D01*
X65627200Y-61505129D01*
X65593408Y-61491097D01*
X65653396Y-61308601D01*
X64770000Y-60425205D01*
X63886604Y-61308601D01*
X63946447Y-61490656D01*
X63915036Y-61503635D01*
X63489529Y-61928400D01*
X63258963Y-62483665D01*
X63258438Y-63084897D01*
X63488035Y-63640564D01*
X63912800Y-64066071D01*
X64468065Y-64296637D01*
X65069297Y-64297162D01*
X65512779Y-64113919D01*
X64346698Y-65280000D01*
X62910999Y-65280000D01*
X62911162Y-65092833D01*
X62769117Y-64749057D01*
X62506327Y-64485808D01*
X62162799Y-64343162D01*
X62115923Y-64343121D01*
X60021001Y-62248199D01*
X59774439Y-62083452D01*
X59483600Y-62025600D01*
X57997242Y-62025600D01*
X58637207Y-61761172D01*
X59377373Y-61022296D01*
X59778442Y-60056415D01*
X59779355Y-59010574D01*
X59379972Y-58043993D01*
X58641096Y-57303827D01*
X57675215Y-56902758D01*
X56629374Y-56901845D01*
X55662793Y-57301228D01*
X54922627Y-58040104D01*
X54521558Y-59005985D01*
X54520645Y-60051826D01*
X54920028Y-61018407D01*
X55658904Y-61758573D01*
X56301976Y-62025600D01*
X50851203Y-62025600D01*
X50811965Y-61930636D01*
X50397302Y-61515249D01*
X50810471Y-61102800D01*
X51024579Y-60587170D01*
X51227206Y-60790151D01*
X51773139Y-61016842D01*
X52364267Y-61017358D01*
X52910595Y-60791620D01*
X53328951Y-60373994D01*
X53555642Y-59828061D01*
X53556158Y-59236933D01*
X53410652Y-58884782D01*
X53831667Y-58850168D01*
X54485825Y-58513977D01*
X54961532Y-57953042D01*
X55824188Y-56399966D01*
X56049024Y-55699684D01*
X55988758Y-54966667D01*
X55652567Y-54312509D01*
X55091632Y-53836802D01*
X54391350Y-53611966D01*
X53658332Y-53672232D01*
X53004175Y-54008423D01*
X52528467Y-54569358D01*
X51665812Y-56122434D01*
X51440976Y-56822716D01*
X51501242Y-57555733D01*
X51756744Y-58052888D01*
X51229405Y-58270780D01*
X50811049Y-58688406D01*
X50605387Y-59183697D01*
X50397302Y-58975249D01*
X50810471Y-58562800D01*
X51041037Y-58007535D01*
X51041562Y-57406303D01*
X50811965Y-56850636D01*
X50397302Y-56435249D01*
X50810471Y-56022800D01*
X51041037Y-55467535D01*
X51041562Y-54866303D01*
X50811965Y-54310636D01*
X50397302Y-53895249D01*
X50810471Y-53482800D01*
X51041037Y-52927535D01*
X51041562Y-52326303D01*
X50934833Y-52068000D01*
X56093403Y-52068000D01*
X56102883Y-52090943D01*
X56365673Y-52354192D01*
X56709201Y-52496838D01*
X57081167Y-52497162D01*
X57424943Y-52355117D01*
X57688192Y-52092327D01*
X57830838Y-51748799D01*
X57831162Y-51376833D01*
X57689117Y-51033057D01*
X57426327Y-50769808D01*
X57082799Y-50627162D01*
X56964578Y-50627059D01*
X56932839Y-50605852D01*
X56642000Y-50548000D01*
X52540335Y-50548000D01*
X59268855Y-47162855D01*
X59438000Y-47163002D01*
G36*
X224616838Y-46921167D02*
X224758883Y-47264943D01*
X224861920Y-47368160D01*
X223900000Y-47368160D01*
X223664683Y-47412438D01*
X223448559Y-47551510D01*
X223303569Y-47763710D01*
X223252560Y-48015600D01*
X223252560Y-48055600D01*
X216001980Y-48055600D01*
X215922327Y-47975808D01*
X215578799Y-47833162D01*
X215206833Y-47832838D01*
X214863057Y-47974883D01*
X214715966Y-48121718D01*
X214667243Y-48003800D01*
X214263923Y-47599776D01*
X213736691Y-47380850D01*
X213165813Y-47380352D01*
X212638200Y-47598357D01*
X212317839Y-47918160D01*
X212288187Y-47918160D01*
X212189090Y-47764159D01*
X211976890Y-47619169D01*
X211725000Y-47568160D01*
X210525000Y-47568160D01*
X210289683Y-47612438D01*
X210073559Y-47751510D01*
X209928569Y-47963710D01*
X209877560Y-48215600D01*
X209877560Y-49415600D01*
X209921838Y-49650917D01*
X210060910Y-49867041D01*
X210267360Y-50008102D01*
X210073559Y-50132810D01*
X209928569Y-50345010D01*
X209877560Y-50596900D01*
X209877560Y-51796900D01*
X209921838Y-52032217D01*
X210060910Y-52248341D01*
X210273110Y-52393331D01*
X210525000Y-52444340D01*
X211725000Y-52444340D01*
X211960317Y-52400062D01*
X212176441Y-52260990D01*
X212290308Y-52094340D01*
X212318248Y-52094340D01*
X212636077Y-52412724D01*
X213163309Y-52631650D01*
X213734187Y-52632148D01*
X214261800Y-52414143D01*
X214665824Y-52010823D01*
X214884750Y-51483591D01*
X214885248Y-50912713D01*
X214667243Y-50385100D01*
X214288747Y-50005943D01*
X214665824Y-49629523D01*
X214743689Y-49442002D01*
X214861673Y-49560192D01*
X215205201Y-49702838D01*
X215577167Y-49703162D01*
X215885891Y-49575600D01*
X223252560Y-49575600D01*
X223252560Y-49615600D01*
X223296838Y-49850917D01*
X223397562Y-50007447D01*
X223303569Y-50145010D01*
X223252560Y-50396900D01*
X223252560Y-50436900D01*
X221599100Y-50436900D01*
X221308260Y-50494752D01*
X221110499Y-50626892D01*
X221048833Y-50626838D01*
X220705057Y-50768883D01*
X220441808Y-51031673D01*
X220299162Y-51375201D01*
X220298838Y-51747167D01*
X220440883Y-52090943D01*
X220703673Y-52354192D01*
X221047201Y-52496838D01*
X221419167Y-52497162D01*
X221762943Y-52355117D01*
X222026192Y-52092327D01*
X222082426Y-51956900D01*
X223252560Y-51956900D01*
X223252560Y-51996900D01*
X223296838Y-52232217D01*
X223435910Y-52448341D01*
X223648110Y-52593331D01*
X223900000Y-52644340D01*
X225072638Y-52644340D01*
X225543699Y-53115401D01*
X225790260Y-53280148D01*
X226081100Y-53338000D01*
X229634135Y-53338000D01*
X229454207Y-53571220D01*
X229261988Y-54281148D01*
X229216742Y-54944830D01*
X229310833Y-55674277D01*
X229676909Y-56312192D01*
X230259238Y-56761457D01*
X230969166Y-56953676D01*
X231698613Y-56859585D01*
X232336528Y-56493509D01*
X232587039Y-56168800D01*
X238240560Y-56168800D01*
X238240560Y-57168800D01*
X238284838Y-57404117D01*
X238423910Y-57620241D01*
X238636110Y-57765231D01*
X238888000Y-57816240D01*
X240588000Y-57816240D01*
X240823317Y-57771962D01*
X241039441Y-57632890D01*
X241178890Y-57428800D01*
X242543200Y-57428800D01*
X242834039Y-57370948D01*
X242905691Y-57323072D01*
X243009167Y-57323162D01*
X243352943Y-57181117D01*
X243386118Y-57148000D01*
X244540560Y-57148000D01*
X244540560Y-57168800D01*
X244584838Y-57404117D01*
X244723910Y-57620241D01*
X244936110Y-57765231D01*
X245188000Y-57816240D01*
X246888000Y-57816240D01*
X247123317Y-57771962D01*
X247339441Y-57632890D01*
X247484431Y-57420690D01*
X247535440Y-57168800D01*
X247535440Y-56168800D01*
X247491162Y-55933483D01*
X247352090Y-55717359D01*
X247139890Y-55572369D01*
X246888000Y-55521360D01*
X245188000Y-55521360D01*
X244952683Y-55565638D01*
X244855770Y-55628000D01*
X243386463Y-55628000D01*
X243354327Y-55595808D01*
X243010799Y-55453162D01*
X242638833Y-55452838D01*
X242295057Y-55594883D01*
X242031808Y-55857673D01*
X242010578Y-55908800D01*
X241175279Y-55908800D01*
X241052090Y-55717359D01*
X240839890Y-55572369D01*
X240588000Y-55521360D01*
X238888000Y-55521360D01*
X238652683Y-55565638D01*
X238436559Y-55704710D01*
X238291569Y-55916910D01*
X238240560Y-56168800D01*
X232587039Y-56168800D01*
X232785793Y-55911180D01*
X232978012Y-55201252D01*
X233023258Y-54537569D01*
X232929167Y-53808122D01*
X232659381Y-53338000D01*
X233172000Y-53338000D01*
X233462839Y-53280148D01*
X233650810Y-53154550D01*
X238253000Y-53154550D01*
X238253000Y-53495110D01*
X238349673Y-53728499D01*
X238528302Y-53907127D01*
X238761691Y-54003800D01*
X239452250Y-54003800D01*
X239611000Y-53845050D01*
X239611000Y-52995800D01*
X239865000Y-52995800D01*
X239865000Y-53845050D01*
X240023750Y-54003800D01*
X240714309Y-54003800D01*
X240947698Y-53907127D01*
X241126327Y-53728499D01*
X241223000Y-53495110D01*
X241223000Y-53154550D01*
X244553000Y-53154550D01*
X244553000Y-53495110D01*
X244649673Y-53728499D01*
X244828302Y-53907127D01*
X245061691Y-54003800D01*
X245752250Y-54003800D01*
X245911000Y-53845050D01*
X245911000Y-52995800D01*
X246165000Y-52995800D01*
X246165000Y-53845050D01*
X246323750Y-54003800D01*
X247014309Y-54003800D01*
X247247698Y-53907127D01*
X247426327Y-53728499D01*
X247523000Y-53495110D01*
X247523000Y-53154550D01*
X247364250Y-52995800D01*
X246165000Y-52995800D01*
X245911000Y-52995800D01*
X244711750Y-52995800D01*
X244553000Y-53154550D01*
X241223000Y-53154550D01*
X241064250Y-52995800D01*
X239865000Y-52995800D01*
X239611000Y-52995800D01*
X238411750Y-52995800D01*
X238253000Y-53154550D01*
X233650810Y-53154550D01*
X233709401Y-53115401D01*
X234248802Y-52576000D01*
X238253000Y-52576000D01*
X238253000Y-52583050D01*
X238411750Y-52741800D01*
X239611000Y-52741800D01*
X239611000Y-52721800D01*
X239865000Y-52721800D01*
X239865000Y-52741800D01*
X241064250Y-52741800D01*
X241223000Y-52583050D01*
X241223000Y-52576000D01*
X244553000Y-52576000D01*
X244553000Y-52583050D01*
X244711750Y-52741800D01*
X245911000Y-52741800D01*
X245911000Y-52721800D01*
X246165000Y-52721800D01*
X246165000Y-52741800D01*
X247364250Y-52741800D01*
X247523000Y-52583050D01*
X247523000Y-52576000D01*
X249875198Y-52576000D01*
X250016878Y-52717680D01*
X250016838Y-52763167D01*
X250158883Y-53106943D01*
X250421673Y-53370192D01*
X250700000Y-53485764D01*
X250700000Y-56327198D01*
X244795198Y-62232000D01*
X223326802Y-62232000D01*
X220920269Y-59825467D01*
X222033842Y-59825467D01*
X222259580Y-60371795D01*
X222677206Y-60790151D01*
X223223139Y-61016842D01*
X223814267Y-61017358D01*
X224360595Y-60791620D01*
X224778951Y-60373994D01*
X224912726Y-60051826D01*
X225970645Y-60051826D01*
X226370028Y-61018407D01*
X227108904Y-61758573D01*
X228074785Y-62159642D01*
X229120626Y-62160555D01*
X230087207Y-61761172D01*
X230827373Y-61022296D01*
X231228442Y-60056415D01*
X231228643Y-59825467D01*
X232193842Y-59825467D01*
X232419580Y-60371795D01*
X232837206Y-60790151D01*
X233383139Y-61016842D01*
X233974267Y-61017358D01*
X234520595Y-60791620D01*
X234938951Y-60373994D01*
X235165642Y-59828061D01*
X235166158Y-59236933D01*
X234940420Y-58690605D01*
X234522794Y-58272249D01*
X233976861Y-58045558D01*
X233385733Y-58045042D01*
X232839405Y-58270780D01*
X232421049Y-58688406D01*
X232194358Y-59234339D01*
X232193842Y-59825467D01*
X231228643Y-59825467D01*
X231229355Y-59010574D01*
X230829972Y-58043993D01*
X230091096Y-57303827D01*
X229125215Y-56902758D01*
X228079374Y-56901845D01*
X227112793Y-57301228D01*
X226372627Y-58040104D01*
X225971558Y-59005985D01*
X225970645Y-60051826D01*
X224912726Y-60051826D01*
X225005642Y-59828061D01*
X225006158Y-59236933D01*
X224860652Y-58884782D01*
X225281667Y-58850168D01*
X225935825Y-58513977D01*
X226411532Y-57953042D01*
X227274188Y-56399966D01*
X227499024Y-55699684D01*
X227438758Y-54966667D01*
X227102567Y-54312509D01*
X226541632Y-53836802D01*
X225841350Y-53611966D01*
X225108332Y-53672232D01*
X224454175Y-54008423D01*
X223978467Y-54569358D01*
X223115812Y-56122434D01*
X222890976Y-56822716D01*
X222951242Y-57555733D01*
X223206744Y-58052888D01*
X222679405Y-58270780D01*
X222261049Y-58688406D01*
X222034358Y-59234339D01*
X222033842Y-59825467D01*
X220920269Y-59825467D01*
X218215401Y-57120599D01*
X217968839Y-56955852D01*
X217678000Y-56898000D01*
X212350798Y-56898000D01*
X212648613Y-56859585D01*
X213286528Y-56493509D01*
X213735793Y-55911180D01*
X213928012Y-55201252D01*
X213973258Y-54537569D01*
X213879167Y-53808122D01*
X213513091Y-53170208D01*
X212930762Y-52720943D01*
X212220834Y-52528724D01*
X211491387Y-52622814D01*
X210853472Y-52988891D01*
X210404207Y-53571220D01*
X210211988Y-54281148D01*
X210168713Y-54915911D01*
X207697142Y-52444340D01*
X208575000Y-52444340D01*
X208810317Y-52400062D01*
X209026441Y-52260990D01*
X209171431Y-52048790D01*
X209222440Y-51796900D01*
X209222440Y-50596900D01*
X209178162Y-50361583D01*
X209039090Y-50145459D01*
X208832640Y-50004398D01*
X209026441Y-49879690D01*
X209171431Y-49667490D01*
X209222440Y-49415600D01*
X209222440Y-48215600D01*
X209178162Y-47980283D01*
X209039090Y-47764159D01*
X208826890Y-47619169D01*
X208575000Y-47568160D01*
X208268642Y-47568160D01*
X209102802Y-46734000D01*
X224617001Y-46734000D01*
X224616838Y-46921167D01*
X224616838Y-46921167D01*
G37*
X224616838Y-46921167D02*
X224758883Y-47264943D01*
X224861920Y-47368160D01*
X223900000Y-47368160D01*
X223664683Y-47412438D01*
X223448559Y-47551510D01*
X223303569Y-47763710D01*
X223252560Y-48015600D01*
X223252560Y-48055600D01*
X216001980Y-48055600D01*
X215922327Y-47975808D01*
X215578799Y-47833162D01*
X215206833Y-47832838D01*
X214863057Y-47974883D01*
X214715966Y-48121718D01*
X214667243Y-48003800D01*
X214263923Y-47599776D01*
X213736691Y-47380850D01*
X213165813Y-47380352D01*
X212638200Y-47598357D01*
X212317839Y-47918160D01*
X212288187Y-47918160D01*
X212189090Y-47764159D01*
X211976890Y-47619169D01*
X211725000Y-47568160D01*
X210525000Y-47568160D01*
X210289683Y-47612438D01*
X210073559Y-47751510D01*
X209928569Y-47963710D01*
X209877560Y-48215600D01*
X209877560Y-49415600D01*
X209921838Y-49650917D01*
X210060910Y-49867041D01*
X210267360Y-50008102D01*
X210073559Y-50132810D01*
X209928569Y-50345010D01*
X209877560Y-50596900D01*
X209877560Y-51796900D01*
X209921838Y-52032217D01*
X210060910Y-52248341D01*
X210273110Y-52393331D01*
X210525000Y-52444340D01*
X211725000Y-52444340D01*
X211960317Y-52400062D01*
X212176441Y-52260990D01*
X212290308Y-52094340D01*
X212318248Y-52094340D01*
X212636077Y-52412724D01*
X213163309Y-52631650D01*
X213734187Y-52632148D01*
X214261800Y-52414143D01*
X214665824Y-52010823D01*
X214884750Y-51483591D01*
X214885248Y-50912713D01*
X214667243Y-50385100D01*
X214288747Y-50005943D01*
X214665824Y-49629523D01*
X214743689Y-49442002D01*
X214861673Y-49560192D01*
X215205201Y-49702838D01*
X215577167Y-49703162D01*
X215885891Y-49575600D01*
X223252560Y-49575600D01*
X223252560Y-49615600D01*
X223296838Y-49850917D01*
X223397562Y-50007447D01*
X223303569Y-50145010D01*
X223252560Y-50396900D01*
X223252560Y-50436900D01*
X221599100Y-50436900D01*
X221308260Y-50494752D01*
X221110499Y-50626892D01*
X221048833Y-50626838D01*
X220705057Y-50768883D01*
X220441808Y-51031673D01*
X220299162Y-51375201D01*
X220298838Y-51747167D01*
X220440883Y-52090943D01*
X220703673Y-52354192D01*
X221047201Y-52496838D01*
X221419167Y-52497162D01*
X221762943Y-52355117D01*
X222026192Y-52092327D01*
X222082426Y-51956900D01*
X223252560Y-51956900D01*
X223252560Y-51996900D01*
X223296838Y-52232217D01*
X223435910Y-52448341D01*
X223648110Y-52593331D01*
X223900000Y-52644340D01*
X225072638Y-52644340D01*
X225543699Y-53115401D01*
X225790260Y-53280148D01*
X226081100Y-53338000D01*
X229634135Y-53338000D01*
X229454207Y-53571220D01*
X229261988Y-54281148D01*
X229216742Y-54944830D01*
X229310833Y-55674277D01*
X229676909Y-56312192D01*
X230259238Y-56761457D01*
X230969166Y-56953676D01*
X231698613Y-56859585D01*
X232336528Y-56493509D01*
X232587039Y-56168800D01*
X238240560Y-56168800D01*
X238240560Y-57168800D01*
X238284838Y-57404117D01*
X238423910Y-57620241D01*
X238636110Y-57765231D01*
X238888000Y-57816240D01*
X240588000Y-57816240D01*
X240823317Y-57771962D01*
X241039441Y-57632890D01*
X241178890Y-57428800D01*
X242543200Y-57428800D01*
X242834039Y-57370948D01*
X242905691Y-57323072D01*
X243009167Y-57323162D01*
X243352943Y-57181117D01*
X243386118Y-57148000D01*
X244540560Y-57148000D01*
X244540560Y-57168800D01*
X244584838Y-57404117D01*
X244723910Y-57620241D01*
X244936110Y-57765231D01*
X245188000Y-57816240D01*
X246888000Y-57816240D01*
X247123317Y-57771962D01*
X247339441Y-57632890D01*
X247484431Y-57420690D01*
X247535440Y-57168800D01*
X247535440Y-56168800D01*
X247491162Y-55933483D01*
X247352090Y-55717359D01*
X247139890Y-55572369D01*
X246888000Y-55521360D01*
X245188000Y-55521360D01*
X244952683Y-55565638D01*
X244855770Y-55628000D01*
X243386463Y-55628000D01*
X243354327Y-55595808D01*
X243010799Y-55453162D01*
X242638833Y-55452838D01*
X242295057Y-55594883D01*
X242031808Y-55857673D01*
X242010578Y-55908800D01*
X241175279Y-55908800D01*
X241052090Y-55717359D01*
X240839890Y-55572369D01*
X240588000Y-55521360D01*
X238888000Y-55521360D01*
X238652683Y-55565638D01*
X238436559Y-55704710D01*
X238291569Y-55916910D01*
X238240560Y-56168800D01*
X232587039Y-56168800D01*
X232785793Y-55911180D01*
X232978012Y-55201252D01*
X233023258Y-54537569D01*
X232929167Y-53808122D01*
X232659381Y-53338000D01*
X233172000Y-53338000D01*
X233462839Y-53280148D01*
X233650810Y-53154550D01*
X238253000Y-53154550D01*
X238253000Y-53495110D01*
X238349673Y-53728499D01*
X238528302Y-53907127D01*
X238761691Y-54003800D01*
X239452250Y-54003800D01*
X239611000Y-53845050D01*
X239611000Y-52995800D01*
X239865000Y-52995800D01*
X239865000Y-53845050D01*
X240023750Y-54003800D01*
X240714309Y-54003800D01*
X240947698Y-53907127D01*
X241126327Y-53728499D01*
X241223000Y-53495110D01*
X241223000Y-53154550D01*
X244553000Y-53154550D01*
X244553000Y-53495110D01*
X244649673Y-53728499D01*
X244828302Y-53907127D01*
X245061691Y-54003800D01*
X245752250Y-54003800D01*
X245911000Y-53845050D01*
X245911000Y-52995800D01*
X246165000Y-52995800D01*
X246165000Y-53845050D01*
X246323750Y-54003800D01*
X247014309Y-54003800D01*
X247247698Y-53907127D01*
X247426327Y-53728499D01*
X247523000Y-53495110D01*
X247523000Y-53154550D01*
X247364250Y-52995800D01*
X246165000Y-52995800D01*
X245911000Y-52995800D01*
X244711750Y-52995800D01*
X244553000Y-53154550D01*
X241223000Y-53154550D01*
X241064250Y-52995800D01*
X239865000Y-52995800D01*
X239611000Y-52995800D01*
X238411750Y-52995800D01*
X238253000Y-53154550D01*
X233650810Y-53154550D01*
X233709401Y-53115401D01*
X234248802Y-52576000D01*
X238253000Y-52576000D01*
X238253000Y-52583050D01*
X238411750Y-52741800D01*
X239611000Y-52741800D01*
X239611000Y-52721800D01*
X239865000Y-52721800D01*
X239865000Y-52741800D01*
X241064250Y-52741800D01*
X241223000Y-52583050D01*
X241223000Y-52576000D01*
X244553000Y-52576000D01*
X244553000Y-52583050D01*
X244711750Y-52741800D01*
X245911000Y-52741800D01*
X245911000Y-52721800D01*
X246165000Y-52721800D01*
X246165000Y-52741800D01*
X247364250Y-52741800D01*
X247523000Y-52583050D01*
X247523000Y-52576000D01*
X249875198Y-52576000D01*
X250016878Y-52717680D01*
X250016838Y-52763167D01*
X250158883Y-53106943D01*
X250421673Y-53370192D01*
X250700000Y-53485764D01*
X250700000Y-56327198D01*
X244795198Y-62232000D01*
X223326802Y-62232000D01*
X220920269Y-59825467D01*
X222033842Y-59825467D01*
X222259580Y-60371795D01*
X222677206Y-60790151D01*
X223223139Y-61016842D01*
X223814267Y-61017358D01*
X224360595Y-60791620D01*
X224778951Y-60373994D01*
X224912726Y-60051826D01*
X225970645Y-60051826D01*
X226370028Y-61018407D01*
X227108904Y-61758573D01*
X228074785Y-62159642D01*
X229120626Y-62160555D01*
X230087207Y-61761172D01*
X230827373Y-61022296D01*
X231228442Y-60056415D01*
X231228643Y-59825467D01*
X232193842Y-59825467D01*
X232419580Y-60371795D01*
X232837206Y-60790151D01*
X233383139Y-61016842D01*
X233974267Y-61017358D01*
X234520595Y-60791620D01*
X234938951Y-60373994D01*
X235165642Y-59828061D01*
X235166158Y-59236933D01*
X234940420Y-58690605D01*
X234522794Y-58272249D01*
X233976861Y-58045558D01*
X233385733Y-58045042D01*
X232839405Y-58270780D01*
X232421049Y-58688406D01*
X232194358Y-59234339D01*
X232193842Y-59825467D01*
X231228643Y-59825467D01*
X231229355Y-59010574D01*
X230829972Y-58043993D01*
X230091096Y-57303827D01*
X229125215Y-56902758D01*
X228079374Y-56901845D01*
X227112793Y-57301228D01*
X226372627Y-58040104D01*
X225971558Y-59005985D01*
X225970645Y-60051826D01*
X224912726Y-60051826D01*
X225005642Y-59828061D01*
X225006158Y-59236933D01*
X224860652Y-58884782D01*
X225281667Y-58850168D01*
X225935825Y-58513977D01*
X226411532Y-57953042D01*
X227274188Y-56399966D01*
X227499024Y-55699684D01*
X227438758Y-54966667D01*
X227102567Y-54312509D01*
X226541632Y-53836802D01*
X225841350Y-53611966D01*
X225108332Y-53672232D01*
X224454175Y-54008423D01*
X223978467Y-54569358D01*
X223115812Y-56122434D01*
X222890976Y-56822716D01*
X222951242Y-57555733D01*
X223206744Y-58052888D01*
X222679405Y-58270780D01*
X222261049Y-58688406D01*
X222034358Y-59234339D01*
X222033842Y-59825467D01*
X220920269Y-59825467D01*
X218215401Y-57120599D01*
X217968839Y-56955852D01*
X217678000Y-56898000D01*
X212350798Y-56898000D01*
X212648613Y-56859585D01*
X213286528Y-56493509D01*
X213735793Y-55911180D01*
X213928012Y-55201252D01*
X213973258Y-54537569D01*
X213879167Y-53808122D01*
X213513091Y-53170208D01*
X212930762Y-52720943D01*
X212220834Y-52528724D01*
X211491387Y-52622814D01*
X210853472Y-52988891D01*
X210404207Y-53571220D01*
X210211988Y-54281148D01*
X210168713Y-54915911D01*
X207697142Y-52444340D01*
X208575000Y-52444340D01*
X208810317Y-52400062D01*
X209026441Y-52260990D01*
X209171431Y-52048790D01*
X209222440Y-51796900D01*
X209222440Y-50596900D01*
X209178162Y-50361583D01*
X209039090Y-50145459D01*
X208832640Y-50004398D01*
X209026441Y-49879690D01*
X209171431Y-49667490D01*
X209222440Y-49415600D01*
X209222440Y-48215600D01*
X209178162Y-47980283D01*
X209039090Y-47764159D01*
X208826890Y-47619169D01*
X208575000Y-47568160D01*
X208268642Y-47568160D01*
X209102802Y-46734000D01*
X224617001Y-46734000D01*
X224616838Y-46921167D01*
G36*
X242454540Y-46739161D02*
X242009852Y-46923357D01*
X241923446Y-47179841D01*
X242824000Y-48080395D01*
X243724554Y-47179841D01*
X243638148Y-46923357D01*
X243120582Y-46734000D01*
X250118598Y-46734000D01*
X251827560Y-48442962D01*
X251827560Y-49615600D01*
X251871838Y-49850917D01*
X251972562Y-50007447D01*
X251878569Y-50145010D01*
X251827560Y-50396900D01*
X251827560Y-51569538D01*
X251546752Y-51850346D01*
X251482327Y-51785808D01*
X251138799Y-51643162D01*
X251091923Y-51643121D01*
X250727401Y-51278599D01*
X250480839Y-51113852D01*
X250190000Y-51056000D01*
X233935123Y-51056000D01*
X233935248Y-50912713D01*
X233717243Y-50385100D01*
X233338747Y-50005943D01*
X233715824Y-49629523D01*
X233835978Y-49340159D01*
X241923446Y-49340159D01*
X242009852Y-49596643D01*
X242583336Y-49806458D01*
X243193460Y-49780839D01*
X243638148Y-49596643D01*
X243724554Y-49340159D01*
X242824000Y-48439605D01*
X241923446Y-49340159D01*
X233835978Y-49340159D01*
X233934750Y-49102291D01*
X233935248Y-48531413D01*
X233723663Y-48019336D01*
X241277542Y-48019336D01*
X241303161Y-48629460D01*
X241487357Y-49074148D01*
X241743841Y-49160554D01*
X242644395Y-48260000D01*
X243003605Y-48260000D01*
X243904159Y-49160554D01*
X244160643Y-49074148D01*
X244370458Y-48500664D01*
X244344839Y-47890540D01*
X244160643Y-47445852D01*
X243904159Y-47359446D01*
X243003605Y-48260000D01*
X242644395Y-48260000D01*
X241743841Y-47359446D01*
X241487357Y-47445852D01*
X241277542Y-48019336D01*
X233723663Y-48019336D01*
X233717243Y-48003800D01*
X233463885Y-47750000D01*
X237943537Y-47750000D01*
X237975673Y-47782192D01*
X238319201Y-47924838D01*
X238691167Y-47925162D01*
X239034943Y-47783117D01*
X239298192Y-47520327D01*
X239440838Y-47176799D01*
X239441162Y-46804833D01*
X239411894Y-46734000D01*
X242577451Y-46734000D01*
X242454540Y-46739161D01*
X242454540Y-46739161D01*
G37*
X242454540Y-46739161D02*
X242009852Y-46923357D01*
X241923446Y-47179841D01*
X242824000Y-48080395D01*
X243724554Y-47179841D01*
X243638148Y-46923357D01*
X243120582Y-46734000D01*
X250118598Y-46734000D01*
X251827560Y-48442962D01*
X251827560Y-49615600D01*
X251871838Y-49850917D01*
X251972562Y-50007447D01*
X251878569Y-50145010D01*
X251827560Y-50396900D01*
X251827560Y-51569538D01*
X251546752Y-51850346D01*
X251482327Y-51785808D01*
X251138799Y-51643162D01*
X251091923Y-51643121D01*
X250727401Y-51278599D01*
X250480839Y-51113852D01*
X250190000Y-51056000D01*
X233935123Y-51056000D01*
X233935248Y-50912713D01*
X233717243Y-50385100D01*
X233338747Y-50005943D01*
X233715824Y-49629523D01*
X233835978Y-49340159D01*
X241923446Y-49340159D01*
X242009852Y-49596643D01*
X242583336Y-49806458D01*
X243193460Y-49780839D01*
X243638148Y-49596643D01*
X243724554Y-49340159D01*
X242824000Y-48439605D01*
X241923446Y-49340159D01*
X233835978Y-49340159D01*
X233934750Y-49102291D01*
X233935248Y-48531413D01*
X233723663Y-48019336D01*
X241277542Y-48019336D01*
X241303161Y-48629460D01*
X241487357Y-49074148D01*
X241743841Y-49160554D01*
X242644395Y-48260000D01*
X243003605Y-48260000D01*
X243904159Y-49160554D01*
X244160643Y-49074148D01*
X244370458Y-48500664D01*
X244344839Y-47890540D01*
X244160643Y-47445852D01*
X243904159Y-47359446D01*
X243003605Y-48260000D01*
X242644395Y-48260000D01*
X241743841Y-47359446D01*
X241487357Y-47445852D01*
X241277542Y-48019336D01*
X233723663Y-48019336D01*
X233717243Y-48003800D01*
X233463885Y-47750000D01*
X237943537Y-47750000D01*
X237975673Y-47782192D01*
X238319201Y-47924838D01*
X238691167Y-47925162D01*
X239034943Y-47783117D01*
X239298192Y-47520327D01*
X239440838Y-47176799D01*
X239441162Y-46804833D01*
X239411894Y-46734000D01*
X242577451Y-46734000D01*
X242454540Y-46739161D01*
M02*
