G04 #@! TF.FileFunction,Copper,L1,Top,Signal*
%FSLAX46Y46*%
G04 Gerber Fmt 4.6, Leading zero omitted, Abs format (unit mm)*
G04 Created by KiCad (PCBNEW 4.0.7) date 07/11/18 03:04:03*
%MOMM*%
%LPD*%
G01*
G04 APERTURE LIST*
%ADD10C,0.100000*%
%ADD11R,1.600000X1.600000*%
%ADD12C,1.600000*%
%ADD13O,1.500000X4.000000*%
%ADD14C,2.500000*%
G04 APERTURE END LIST*
D10*
D11*
X19912500Y-34528125D03*
D12*
X27712500Y-34528125D03*
D11*
X19912500Y-36909375D03*
D12*
X27712500Y-36909375D03*
D11*
X19912500Y-72628125D03*
D12*
X27712500Y-72628125D03*
D11*
X19912500Y-75009375D03*
D12*
X27712500Y-75009375D03*
D11*
X38962500Y-34528125D03*
D12*
X46762500Y-34528125D03*
D11*
X38962500Y-36909375D03*
D12*
X46762500Y-36909375D03*
D11*
X38962500Y-72628125D03*
D12*
X46762500Y-72628125D03*
D11*
X38962500Y-75009375D03*
D12*
X46762500Y-75009375D03*
D11*
X58012500Y-34528125D03*
D12*
X65812500Y-34528125D03*
D11*
X58012500Y-36909375D03*
D12*
X65812500Y-36909375D03*
D11*
X58012500Y-72628125D03*
D12*
X65812500Y-72628125D03*
D11*
X58012500Y-75009375D03*
D12*
X65812500Y-75009375D03*
D11*
X77062500Y-34528125D03*
D12*
X84862500Y-34528125D03*
D11*
X77062500Y-36909375D03*
D12*
X84862500Y-36909375D03*
D11*
X77062500Y-72628125D03*
D12*
X84862500Y-72628125D03*
D11*
X86587500Y-75009375D03*
D12*
X94387500Y-75009375D03*
D11*
X96112500Y-34528125D03*
D12*
X103912500Y-34528125D03*
D11*
X96112500Y-36909375D03*
D12*
X103912500Y-36909375D03*
D11*
X96112500Y-72628125D03*
D12*
X103912500Y-72628125D03*
D11*
X115162500Y-34528125D03*
D12*
X122962500Y-34528125D03*
D11*
X115162500Y-36909375D03*
D12*
X122962500Y-36909375D03*
D11*
X115162500Y-72628125D03*
D12*
X122962500Y-72628125D03*
D11*
X124687500Y-75009375D03*
D12*
X132487500Y-75009375D03*
D11*
X134212500Y-34528125D03*
D12*
X142012500Y-34528125D03*
D11*
X134212500Y-36909375D03*
D12*
X142012500Y-36909375D03*
D11*
X134212500Y-72628125D03*
D12*
X142012500Y-72628125D03*
D11*
X153262500Y-34528125D03*
D12*
X161062500Y-34528125D03*
D11*
X153262500Y-36909375D03*
D12*
X161062500Y-36909375D03*
D11*
X152667188Y-72628125D03*
D12*
X160467188Y-72628125D03*
D11*
X162192188Y-75009375D03*
D12*
X169992188Y-75009375D03*
D11*
X172312500Y-34528125D03*
D12*
X180112500Y-34528125D03*
D11*
X172312500Y-36909375D03*
D12*
X180112500Y-36909375D03*
D11*
X172312500Y-72628125D03*
D12*
X180112500Y-72628125D03*
D11*
X191362500Y-34528125D03*
D12*
X199162500Y-34528125D03*
D11*
X191362500Y-36909375D03*
D12*
X199162500Y-36909375D03*
D11*
X191362500Y-72628125D03*
D12*
X199162500Y-72628125D03*
D11*
X191362500Y-75009375D03*
D12*
X199162500Y-75009375D03*
D11*
X210412500Y-34528125D03*
D12*
X218212500Y-34528125D03*
D11*
X210412500Y-36909375D03*
D12*
X218212500Y-36909375D03*
D11*
X210412500Y-72628125D03*
D12*
X218212500Y-72628125D03*
D11*
X210412500Y-75009375D03*
D12*
X218212500Y-75009375D03*
D11*
X229462500Y-34528125D03*
D12*
X237262500Y-34528125D03*
D11*
X229462500Y-36909375D03*
D12*
X237262500Y-36909375D03*
D11*
X230057813Y-72628125D03*
D12*
X237857813Y-72628125D03*
D11*
X247650000Y-80039063D03*
D12*
X247650000Y-87839063D03*
D11*
X253275000Y-34528125D03*
D12*
X261075000Y-34528125D03*
D11*
X253275000Y-36909375D03*
D12*
X261075000Y-36909375D03*
D11*
X253275000Y-77390625D03*
D12*
X261075000Y-77390625D03*
D11*
X253275000Y-79771875D03*
D12*
X261075000Y-79771875D03*
D11*
X272325000Y-34528125D03*
D12*
X280125000Y-34528125D03*
D11*
X272325000Y-36909375D03*
D12*
X280125000Y-36909375D03*
D11*
X266700000Y-80039063D03*
D12*
X266700000Y-87839063D03*
D13*
X48737500Y-20221875D03*
X56037500Y-20221875D03*
D14*
X230362953Y-41243796D02*
X229552047Y-42703704D01*
X235902224Y-40164422D02*
X235862776Y-40743078D01*
X211312953Y-60293796D02*
X210502047Y-61753704D01*
X216852224Y-59214422D02*
X216812776Y-59793078D01*
X211312953Y-41243796D02*
X210502047Y-42703704D01*
X216852224Y-40164422D02*
X216812776Y-40743078D01*
X173212953Y-60293796D02*
X172402047Y-61753704D01*
X178752224Y-59214422D02*
X178712776Y-59793078D01*
X192262953Y-60293796D02*
X191452047Y-61753704D01*
X197802224Y-59214422D02*
X197762776Y-59793078D01*
X39862953Y-41243796D02*
X39052047Y-42703704D01*
X45402224Y-40164422D02*
X45362776Y-40743078D01*
X116062953Y-60293796D02*
X115252047Y-61753704D01*
X121602224Y-59214422D02*
X121562776Y-59793078D01*
X230362953Y-22193796D02*
X229552047Y-23653704D01*
X235902224Y-21114422D02*
X235862776Y-21693078D01*
X254175453Y-41243796D02*
X253364547Y-42703704D01*
X259714724Y-40164422D02*
X259675276Y-40743078D01*
X273225453Y-41243796D02*
X272414547Y-42703704D01*
X278764724Y-40164422D02*
X278725276Y-40743078D01*
X77962953Y-60293796D02*
X77152047Y-61753704D01*
X83502224Y-59214422D02*
X83462776Y-59793078D01*
X20812953Y-79343796D02*
X20002047Y-80803704D01*
X26352224Y-78264422D02*
X26312776Y-78843078D01*
X77962953Y-41243796D02*
X77152047Y-42703704D01*
X83502224Y-40164422D02*
X83462776Y-40743078D01*
X254175453Y-84106296D02*
X253364547Y-85566204D01*
X259714724Y-83026922D02*
X259675276Y-83605578D01*
X77962953Y-22193796D02*
X77152047Y-23653704D01*
X83502224Y-21114422D02*
X83462776Y-21693078D01*
X20812953Y-41243796D02*
X20002047Y-42703704D01*
X26352224Y-40164422D02*
X26312776Y-40743078D01*
X97012953Y-41243796D02*
X96202047Y-42703704D01*
X102552224Y-40164422D02*
X102512776Y-40743078D01*
X211312953Y-79343796D02*
X210502047Y-80803704D01*
X216852224Y-78264422D02*
X216812776Y-78843078D01*
X116062953Y-41243796D02*
X115252047Y-42703704D01*
X121602224Y-40164422D02*
X121562776Y-40743078D01*
X135112953Y-41243796D02*
X134302047Y-42703704D01*
X140652224Y-40164422D02*
X140612776Y-40743078D01*
X173212953Y-22193796D02*
X172402047Y-23653704D01*
X178752224Y-21114422D02*
X178712776Y-21693078D01*
X154162953Y-41243796D02*
X153352047Y-42703704D01*
X159702224Y-40164422D02*
X159662776Y-40743078D01*
X173212953Y-41243796D02*
X172402047Y-42703704D01*
X178752224Y-40164422D02*
X178712776Y-40743078D01*
X192262953Y-41243796D02*
X191452047Y-42703704D01*
X197802224Y-40164422D02*
X197762776Y-40743078D01*
X58912953Y-79343796D02*
X58102047Y-80803704D01*
X64452224Y-78264422D02*
X64412776Y-78843078D01*
X235125453Y-84106296D02*
X234314547Y-85566204D01*
X240664724Y-83026922D02*
X240625276Y-83605578D01*
X20812953Y-60293796D02*
X20002047Y-61753704D01*
X26352224Y-59214422D02*
X26312776Y-59793078D01*
X87487953Y-79343796D02*
X86677047Y-80803704D01*
X93027224Y-78264422D02*
X92987776Y-78843078D01*
X154162953Y-60293796D02*
X153352047Y-61753704D01*
X159702224Y-59214422D02*
X159662776Y-59793078D01*
X125587953Y-79343796D02*
X124777047Y-80803704D01*
X131127224Y-78264422D02*
X131087776Y-78843078D01*
X135112953Y-60293796D02*
X134302047Y-61753704D01*
X140652224Y-59214422D02*
X140612776Y-59793078D01*
X192262953Y-22193796D02*
X191452047Y-23653704D01*
X197802224Y-21114422D02*
X197762776Y-21693078D01*
X211312953Y-22193796D02*
X210502047Y-23653704D01*
X216852224Y-21114422D02*
X216812776Y-21693078D01*
X39862953Y-22193796D02*
X39052047Y-23653704D01*
X45402224Y-21114422D02*
X45362776Y-21693078D01*
X97012953Y-22193796D02*
X96202047Y-23653704D01*
X102552224Y-21114422D02*
X102512776Y-21693078D01*
X192262953Y-79343796D02*
X191452047Y-80803704D01*
X197802224Y-78264422D02*
X197762776Y-78843078D01*
X273225453Y-84106296D02*
X272414547Y-85566204D01*
X278764724Y-83026922D02*
X278725276Y-83605578D01*
X230362953Y-60293796D02*
X229552047Y-61753704D01*
X235902224Y-59214422D02*
X235862776Y-59793078D01*
X163687953Y-79343796D02*
X162877047Y-80803704D01*
X169227224Y-78264422D02*
X169187776Y-78843078D01*
X58912953Y-41243796D02*
X58102047Y-42703704D01*
X64452224Y-40164422D02*
X64412776Y-40743078D01*
X116062953Y-22193796D02*
X115252047Y-23653704D01*
X121602224Y-21114422D02*
X121562776Y-21693078D01*
X20812953Y-22193796D02*
X20002047Y-23653704D01*
X26352224Y-21114422D02*
X26312776Y-21693078D01*
X254175453Y-22193796D02*
X253364547Y-23653704D01*
X259714724Y-21114422D02*
X259675276Y-21693078D01*
X273225453Y-22193796D02*
X272414547Y-23653704D01*
X278764724Y-21114422D02*
X278725276Y-21693078D01*
X154162953Y-22193796D02*
X153352047Y-23653704D01*
X159702224Y-21114422D02*
X159662776Y-21693078D01*
X254175453Y-65056296D02*
X253364547Y-66516204D01*
X259714724Y-63976922D02*
X259675276Y-64555578D01*
X97012953Y-60293796D02*
X96202047Y-61753704D01*
X102552224Y-59214422D02*
X102512776Y-59793078D01*
X58912953Y-22193796D02*
X58102047Y-23653704D01*
X64452224Y-21114422D02*
X64412776Y-21693078D01*
X39862953Y-79343796D02*
X39052047Y-80803704D01*
X45402224Y-78264422D02*
X45362776Y-78843078D01*
X58912953Y-60293796D02*
X58102047Y-61753704D01*
X64452224Y-59214422D02*
X64412776Y-59793078D01*
X135112953Y-22193796D02*
X134302047Y-23653704D01*
X140652224Y-21114422D02*
X140612776Y-21693078D01*
X39862953Y-60293796D02*
X39052047Y-61753704D01*
X45402224Y-59214422D02*
X45362776Y-59793078D01*
M02*
