M48
INCH,TZ
T1C0.028
T2C0.059
%
G90
G05
T1
X0.784Y-1.3594
X0.784Y-1.4531
X0.784Y-2.8594
X0.784Y-2.9531
X1.091Y-1.3594
X1.091Y-1.4531
X1.091Y-2.8594
X1.091Y-2.9531
X1.534Y-1.3594
X1.534Y-1.4531
X1.534Y-2.8594
X1.534Y-2.9531
X1.841Y-1.3594
X1.841Y-1.4531
X1.841Y-2.8594
X1.841Y-2.9531
X2.284Y-1.3594
X2.284Y-1.4531
X2.284Y-2.8594
X2.284Y-2.9531
X2.591Y-1.3594
X2.591Y-1.4531
X2.591Y-2.8594
X2.591Y-2.9531
X3.034Y-1.3594
X3.034Y-1.4531
X3.034Y-2.8594
X3.341Y-1.3594
X3.341Y-1.4531
X3.341Y-2.8594
X3.409Y-2.9531
X3.716Y-2.9531
X3.784Y-1.3594
X3.784Y-1.4531
X3.784Y-2.8594
X4.091Y-1.3594
X4.091Y-1.4531
X4.091Y-2.8594
X4.534Y-1.3594
X4.534Y-1.4531
X4.534Y-2.8594
X4.841Y-1.3594
X4.841Y-1.4531
X4.841Y-2.8594
X4.909Y-2.9531
X5.216Y-2.9531
X5.284Y-1.3594
X5.284Y-1.4531
X5.284Y-2.8594
X5.591Y-1.3594
X5.591Y-1.4531
X5.591Y-2.8594
X6.0105Y-2.8594
X6.034Y-1.3594
X6.034Y-1.4531
X6.3176Y-2.8594
X6.341Y-1.3594
X6.341Y-1.4531
X6.3855Y-2.9531
X6.6926Y-2.9531
X6.784Y-1.3594
X6.784Y-1.4531
X6.784Y-2.8594
X7.091Y-1.3594
X7.091Y-1.4531
X7.091Y-2.8594
X7.534Y-1.3594
X7.534Y-1.4531
X7.534Y-2.8594
X7.534Y-2.9531
X7.841Y-1.3594
X7.841Y-1.4531
X7.841Y-2.8594
X7.841Y-2.9531
X8.284Y-1.3594
X8.284Y-1.4531
X8.284Y-2.8594
X8.284Y-2.9531
X8.591Y-1.3594
X8.591Y-1.4531
X8.591Y-2.8594
X8.591Y-2.9531
X9.034Y-1.3594
X9.034Y-1.4531
X9.0574Y-2.8594
X9.341Y-1.3594
X9.341Y-1.4531
X9.3645Y-2.8594
X9.75Y-3.1511
X9.75Y-3.4582
X9.9715Y-1.3594
X9.9715Y-1.4531
X9.9715Y-3.0469
X9.9715Y-3.1406
X10.2785Y-1.3594
X10.2785Y-1.4531
X10.2785Y-3.0469
X10.2785Y-3.1406
X10.5Y-3.1511
X10.5Y-3.4582
X10.7215Y-1.3594
X10.7215Y-1.4531
X11.0285Y-1.3594
X11.0285Y-1.4531
T1
X1.9188Y-0.7469G85X1.9188Y-0.8453
G05
X2.2062Y-0.7469G85X2.2062Y-0.8453
G05
T2
X0.8194Y-0.8738G85X0.7875Y-0.9312
G05
X0.8194Y-1.6238G85X0.7875Y-1.6812
G05
X0.8194Y-2.3738G85X0.7875Y-2.4312
G05
X0.8194Y-3.1238G85X0.7875Y-3.1812
G05
X1.0375Y-0.8313G85X1.0359Y-0.8541
G05
X1.0375Y-1.5813G85X1.0359Y-1.6041
G05
X1.0375Y-2.3313G85X1.0359Y-2.3541
G05
X1.0375Y-3.0813G85X1.0359Y-3.1041
G05
X1.5694Y-0.8738G85X1.5375Y-0.9312
G05
X1.5694Y-1.6238G85X1.5375Y-1.6812
G05
X1.5694Y-2.3738G85X1.5375Y-2.4312
G05
X1.5694Y-3.1238G85X1.5375Y-3.1812
G05
X1.7875Y-0.8313G85X1.7859Y-0.8541
G05
X1.7875Y-1.5813G85X1.7859Y-1.6041
G05
X1.7875Y-2.3313G85X1.7859Y-2.3541
G05
X1.7875Y-3.0813G85X1.7859Y-3.1041
G05
X2.3194Y-0.8738G85X2.2875Y-0.9312
G05
X2.3194Y-1.6238G85X2.2875Y-1.6812
G05
X2.3194Y-2.3738G85X2.2875Y-2.4312
G05
X2.3194Y-3.1238G85X2.2875Y-3.1812
G05
X2.5375Y-0.8313G85X2.5359Y-0.8541
G05
X2.5375Y-1.5813G85X2.5359Y-1.6041
G05
X2.5375Y-2.3313G85X2.5359Y-2.3541
G05
X2.5375Y-3.0813G85X2.5359Y-3.1041
G05
X3.0694Y-0.8738G85X3.0375Y-0.9312
G05
X3.0694Y-1.6238G85X3.0375Y-1.6812
G05
X3.0694Y-2.3738G85X3.0375Y-2.4312
G05
X3.2875Y-0.8313G85X3.2859Y-0.8541
G05
X3.2875Y-1.5813G85X3.2859Y-1.6041
G05
X3.2875Y-2.3313G85X3.2859Y-2.3541
G05
X3.4444Y-3.1238G85X3.4125Y-3.1812
G05
X3.6625Y-3.0813G85X3.6609Y-3.1041
G05
X3.8194Y-0.8738G85X3.7875Y-0.9312
G05
X3.8194Y-1.6238G85X3.7875Y-1.6812
G05
X3.8194Y-2.3738G85X3.7875Y-2.4312
G05
X4.0375Y-0.8313G85X4.0359Y-0.8541
G05
X4.0375Y-1.5813G85X4.0359Y-1.6041
G05
X4.0375Y-2.3313G85X4.0359Y-2.3541
G05
X4.5694Y-0.8738G85X4.5375Y-0.9312
G05
X4.5694Y-1.6238G85X4.5375Y-1.6812
G05
X4.5694Y-2.3738G85X4.5375Y-2.4312
G05
X4.7875Y-0.8313G85X4.7859Y-0.8541
G05
X4.7875Y-1.5813G85X4.7859Y-1.6041
G05
X4.7875Y-2.3313G85X4.7859Y-2.3541
G05
X4.9444Y-3.1238G85X4.9125Y-3.1812
G05
X5.1625Y-3.0813G85X5.1609Y-3.1041
G05
X5.3194Y-0.8738G85X5.2875Y-0.9312
G05
X5.3194Y-1.6238G85X5.2875Y-1.6812
G05
X5.3194Y-2.3738G85X5.2875Y-2.4312
G05
X5.5375Y-0.8313G85X5.5359Y-0.8541
G05
X5.5375Y-1.5813G85X5.5359Y-1.6041
G05
X5.5375Y-2.3313G85X5.5359Y-2.3541
G05
X6.0694Y-0.8738G85X6.0375Y-0.9312
G05
X6.0694Y-1.6238G85X6.0375Y-1.6812
G05
X6.0694Y-2.3738G85X6.0375Y-2.4312
G05
X6.2875Y-0.8313G85X6.2859Y-0.8541
G05
X6.2875Y-1.5813G85X6.2859Y-1.6041
G05
X6.2875Y-2.3313G85X6.2859Y-2.3541
G05
X6.4444Y-3.1238G85X6.4125Y-3.1812
G05
X6.6625Y-3.0813G85X6.6609Y-3.1041
G05
X6.8194Y-0.8738G85X6.7875Y-0.9312
G05
X6.8194Y-1.6238G85X6.7875Y-1.6812
G05
X6.8194Y-2.3738G85X6.7875Y-2.4312
G05
X7.0375Y-0.8313G85X7.0359Y-0.8541
G05
X7.0375Y-1.5813G85X7.0359Y-1.6041
G05
X7.0375Y-2.3313G85X7.0359Y-2.3541
G05
X7.5694Y-0.8738G85X7.5375Y-0.9312
G05
X7.5694Y-1.6238G85X7.5375Y-1.6812
G05
X7.5694Y-2.3738G85X7.5375Y-2.4312
G05
X7.5694Y-3.1238G85X7.5375Y-3.1812
G05
X7.7875Y-0.8313G85X7.7859Y-0.8541
G05
X7.7875Y-1.5813G85X7.7859Y-1.6041
G05
X7.7875Y-2.3313G85X7.7859Y-2.3541
G05
X7.7875Y-3.0813G85X7.7859Y-3.1041
G05
X8.3194Y-0.8738G85X8.2875Y-0.9312
G05
X8.3194Y-1.6238G85X8.2875Y-1.6812
G05
X8.3194Y-2.3738G85X8.2875Y-2.4312
G05
X8.3194Y-3.1238G85X8.2875Y-3.1812
G05
X8.5375Y-0.8313G85X8.5359Y-0.8541
G05
X8.5375Y-1.5813G85X8.5359Y-1.6041
G05
X8.5375Y-2.3313G85X8.5359Y-2.3541
G05
X8.5375Y-3.0813G85X8.5359Y-3.1041
G05
X9.0694Y-0.8738G85X9.0375Y-0.9312
G05
X9.0694Y-1.6238G85X9.0375Y-1.6812
G05
X9.0694Y-2.3738G85X9.0375Y-2.4312
G05
X9.2569Y-3.3113G85X9.225Y-3.3687
G05
X9.2875Y-0.8313G85X9.2859Y-0.8541
G05
X9.2875Y-1.5813G85X9.2859Y-1.6041
G05
X9.2875Y-2.3313G85X9.2859Y-2.3541
G05
X9.475Y-3.2688G85X9.4734Y-3.2916
G05
X10.0069Y-0.8738G85X9.975Y-0.9312
G05
X10.0069Y-1.6238G85X9.975Y-1.6812
G05
X10.0069Y-2.5613G85X9.975Y-2.6187
G05
X10.0069Y-3.3113G85X9.975Y-3.3687
G05
X10.225Y-0.8313G85X10.2234Y-0.8541
G05
X10.225Y-1.5813G85X10.2234Y-1.6041
G05
X10.225Y-2.5188G85X10.2234Y-2.5416
G05
X10.225Y-3.2688G85X10.2234Y-3.2916
G05
X10.7569Y-0.8738G85X10.725Y-0.9312
G05
X10.7569Y-1.6238G85X10.725Y-1.6812
G05
X10.7569Y-3.3113G85X10.725Y-3.3687
G05
X10.975Y-0.8313G85X10.9734Y-0.8541
G05
X10.975Y-1.5813G85X10.9734Y-1.6041
G05
X10.975Y-3.2688G85X10.9734Y-3.2916
G05
T0
M30
