M48
INCH,TZ
T1C0.067
T2C0.157
%
G90
G05
T1
X0.7375Y-1.0312
X0.7375Y-1.7812
X0.7375Y-2.5312
X0.7375Y-3.2812
X1.1375Y-1.0312
X1.1375Y-1.7812
X1.1375Y-2.5312
X1.1375Y-3.2812
X1.4875Y-1.0312
X1.4875Y-1.7812
X1.4875Y-2.5312
X1.4875Y-3.2812
X1.8875Y-1.0312
X1.8875Y-1.7812
X1.8875Y-2.5312
X1.8875Y-3.2812
X2.2375Y-1.0312
X2.2375Y-1.7812
X2.2375Y-2.5312
X2.2375Y-3.2812
X2.6375Y-1.0312
X2.6375Y-1.7812
X2.6375Y-2.5312
X2.6375Y-3.2812
X2.9875Y-1.0312
X2.9875Y-1.7812
X2.9875Y-2.5312
X3.3625Y-3.2812
X3.3875Y-1.0312
X3.3875Y-1.7812
X3.3875Y-2.5312
X3.7375Y-1.0312
X3.7375Y-1.7812
X3.7375Y-2.5312
X3.7625Y-3.2812
X4.1375Y-1.0312
X4.1375Y-1.7812
X4.1375Y-2.5312
X4.4875Y-1.0312
X4.4875Y-1.7812
X4.4875Y-2.5312
X4.8625Y-3.2812
X4.8875Y-1.0312
X4.8875Y-1.7812
X4.8875Y-2.5312
X5.2375Y-1.0312
X5.2375Y-1.7812
X5.2375Y-2.5312
X5.2625Y-3.2812
X5.6375Y-1.0312
X5.6375Y-1.7812
X5.6375Y-2.5312
X5.9875Y-1.0312
X5.9875Y-1.7812
X5.9875Y-2.5312
X6.3625Y-3.2812
X6.3875Y-1.0312
X6.3875Y-1.7812
X6.3875Y-2.5312
X6.7375Y-1.0312
X6.7375Y-1.7812
X6.7375Y-2.5312
X6.7625Y-3.2812
X7.1375Y-1.0312
X7.1375Y-1.7812
X7.1375Y-2.5312
X7.4875Y-1.0312
X7.4875Y-1.7812
X7.4875Y-2.5312
X7.4875Y-3.2812
X7.8875Y-1.0312
X7.8875Y-1.7812
X7.8875Y-2.5312
X7.8875Y-3.2812
X8.2375Y-1.0312
X8.2375Y-1.7812
X8.2375Y-2.5312
X8.2375Y-3.2812
X8.6375Y-1.0312
X8.6375Y-1.7812
X8.6375Y-2.5312
X8.6375Y-3.2812
X8.9875Y-1.0312
X8.9875Y-1.7812
X8.9875Y-2.5312
X9.175Y-3.4688
X9.3875Y-1.0312
X9.3875Y-1.7812
X9.3875Y-2.5312
X9.575Y-3.4688
X9.925Y-1.0312
X9.925Y-1.7812
X9.925Y-2.7188
X9.925Y-3.4688
X10.325Y-1.0312
X10.325Y-1.7812
X10.325Y-2.7188
X10.325Y-3.4688
X10.675Y-1.0312
X10.675Y-1.7812
X10.675Y-3.4688
X11.075Y-1.0312
X11.075Y-1.7812
X11.075Y-3.4688
T2
X0.9375Y-1.0312
X0.9375Y-1.7812
X0.9375Y-2.5312
X0.9375Y-3.2812
X1.6875Y-1.0312
X1.6875Y-1.7812
X1.6875Y-2.5312
X1.6875Y-3.2812
X2.4375Y-1.0312
X2.4375Y-1.7812
X2.4375Y-2.5312
X2.4375Y-3.2812
X3.1875Y-1.0312
X3.1875Y-1.7812
X3.1875Y-2.5312
X3.5625Y-3.2812
X3.9375Y-1.0312
X3.9375Y-1.7812
X3.9375Y-2.5312
X4.6875Y-1.0312
X4.6875Y-1.7812
X4.6875Y-2.5312
X5.0625Y-3.2812
X5.4375Y-1.0312
X5.4375Y-1.7812
X5.4375Y-2.5312
X6.1875Y-1.0312
X6.1875Y-1.7812
X6.1875Y-2.5312
X6.5625Y-3.2812
X6.9375Y-1.0312
X6.9375Y-1.7812
X6.9375Y-2.5312
X7.6875Y-1.0312
X7.6875Y-1.7812
X7.6875Y-2.5312
X7.6875Y-3.2812
X8.4375Y-1.0312
X8.4375Y-1.7812
X8.4375Y-2.5312
X8.4375Y-3.2812
X9.1875Y-1.0312
X9.1875Y-1.7812
X9.1875Y-2.5312
X9.375Y-3.4688
X10.125Y-1.0312
X10.125Y-1.7812
X10.125Y-2.7188
X10.125Y-3.4688
X10.875Y-1.0312
X10.875Y-1.7812
X10.875Y-3.4688
T0
M30
