G04 #@! TF.FileFunction,Paste,Bot*
%FSLAX46Y46*%
G04 Gerber Fmt 4.6, Leading zero omitted, Abs format (unit mm)*
G04 Created by KiCad (PCBNEW 4.0.7) date 07/11/18 03:04:03*
%MOMM*%
%LPD*%
G01*
G04 APERTURE LIST*
%ADD10C,0.100000*%
%ADD11R,1.250000X1.500000*%
%ADD12R,1.500000X1.250000*%
%ADD13R,1.200000X1.200000*%
%ADD14R,2.350000X0.800000*%
%ADD15R,0.500000X1.400000*%
%ADD16O,1.500000X4.000000*%
%ADD17R,1.300000X1.500000*%
%ADD18R,1.500000X1.300000*%
%ADD19R,1.700000X1.000000*%
%ADD20R,1.500000X0.550000*%
%ADD21R,0.550000X1.500000*%
G04 APERTURE END LIST*
D10*
D11*
X272057813Y-58995313D03*
X272057813Y-56495313D03*
X282178125Y-58995313D03*
X282178125Y-56495313D03*
X283964063Y-77450000D03*
X283964063Y-74950000D03*
X283964063Y-62567188D03*
X283964063Y-60067188D03*
X268485938Y-68401563D03*
X268485938Y-70901563D03*
X267890625Y-58995313D03*
X267890625Y-56495313D03*
D12*
X271998438Y-76795313D03*
X274498438Y-76795313D03*
D11*
X268485938Y-76259375D03*
X268485938Y-73759375D03*
D13*
X25387500Y-34528125D03*
X22237500Y-34528125D03*
X25387500Y-36909375D03*
X22237500Y-36909375D03*
X25387500Y-72628125D03*
X22237500Y-72628125D03*
X25387500Y-75009375D03*
X22237500Y-75009375D03*
X44437500Y-34528125D03*
X41287500Y-34528125D03*
X44437500Y-36909375D03*
X41287500Y-36909375D03*
X44437500Y-72628125D03*
X41287500Y-72628125D03*
X44437500Y-75009375D03*
X41287500Y-75009375D03*
X63487500Y-34528125D03*
X60337500Y-34528125D03*
X63487500Y-36909375D03*
X60337500Y-36909375D03*
X63487500Y-72628125D03*
X60337500Y-72628125D03*
X63487500Y-75009375D03*
X60337500Y-75009375D03*
X82537500Y-34528125D03*
X79387500Y-34528125D03*
X82537500Y-36909375D03*
X79387500Y-36909375D03*
X82537500Y-72628125D03*
X79387500Y-72628125D03*
X92062500Y-75009375D03*
X88912500Y-75009375D03*
X101587500Y-34528125D03*
X98437500Y-34528125D03*
X101587500Y-36909375D03*
X98437500Y-36909375D03*
X101587500Y-72628125D03*
X98437500Y-72628125D03*
X120637500Y-34528125D03*
X117487500Y-34528125D03*
X120637500Y-36909375D03*
X117487500Y-36909375D03*
X120637500Y-72628125D03*
X117487500Y-72628125D03*
X130162500Y-75009375D03*
X127012500Y-75009375D03*
X139687500Y-34528125D03*
X136537500Y-34528125D03*
X139687500Y-36909375D03*
X136537500Y-36909375D03*
X139687500Y-72628125D03*
X136537500Y-72628125D03*
X158737500Y-34528125D03*
X155587500Y-34528125D03*
X158737500Y-36909375D03*
X155587500Y-36909375D03*
X158142188Y-72628125D03*
X154992188Y-72628125D03*
X167667188Y-75009375D03*
X164517188Y-75009375D03*
X177787500Y-34528125D03*
X174637500Y-34528125D03*
X177787500Y-36909375D03*
X174637500Y-36909375D03*
X177787500Y-72628125D03*
X174637500Y-72628125D03*
X196837500Y-34528125D03*
X193687500Y-34528125D03*
X196837500Y-36909375D03*
X193687500Y-36909375D03*
X196837500Y-72628125D03*
X193687500Y-72628125D03*
X196837500Y-75009375D03*
X193687500Y-75009375D03*
X215887500Y-34528125D03*
X212737500Y-34528125D03*
X215887500Y-36909375D03*
X212737500Y-36909375D03*
X215887500Y-72628125D03*
X212737500Y-72628125D03*
X215887500Y-75009375D03*
X212737500Y-75009375D03*
X234937500Y-34528125D03*
X231787500Y-34528125D03*
X234937500Y-36909375D03*
X231787500Y-36909375D03*
X235532813Y-72628125D03*
X232382813Y-72628125D03*
X247650000Y-85514063D03*
X247650000Y-82364063D03*
X258750000Y-34528125D03*
X255600000Y-34528125D03*
X258750000Y-36909375D03*
X255600000Y-36909375D03*
X258750000Y-77390625D03*
X255600000Y-77390625D03*
X258750000Y-79771875D03*
X255600000Y-79771875D03*
X277800000Y-34528125D03*
X274650000Y-34528125D03*
X277800000Y-36909375D03*
X274650000Y-36909375D03*
X266700000Y-85514063D03*
X266700000Y-82364063D03*
D14*
X55062500Y-17421875D03*
X49712500Y-17421875D03*
D15*
X50787500Y-22621875D03*
X51587500Y-22621875D03*
X52387500Y-22621875D03*
X53187500Y-22621875D03*
X53987500Y-22621875D03*
D16*
X48737500Y-20221875D03*
X56037500Y-20221875D03*
D17*
X268485938Y-62943750D03*
X268485938Y-65643750D03*
D18*
X278446875Y-77390625D03*
X281146875Y-77390625D03*
D17*
X245268750Y-58500000D03*
X245268750Y-55800000D03*
X245268750Y-52546875D03*
X245268750Y-49846875D03*
D19*
X256406250Y-59050000D03*
X262706250Y-59050000D03*
X256406250Y-55250000D03*
X262706250Y-55250000D03*
D20*
X271120313Y-72460938D03*
X271120313Y-71660938D03*
X271120313Y-70860938D03*
X271120313Y-70060938D03*
X271120313Y-69260938D03*
X271120313Y-68460938D03*
X271120313Y-67660938D03*
X271120313Y-66860938D03*
X271120313Y-66060938D03*
X271120313Y-65260938D03*
X271120313Y-64460938D03*
D21*
X272820313Y-62760938D03*
X273620313Y-62760938D03*
X274420313Y-62760938D03*
X275220313Y-62760938D03*
X276020313Y-62760938D03*
X276820313Y-62760938D03*
X277620313Y-62760938D03*
X278420313Y-62760938D03*
X279220313Y-62760938D03*
X280020313Y-62760938D03*
X280820313Y-62760938D03*
D20*
X282520313Y-64460938D03*
X282520313Y-65260938D03*
X282520313Y-66060938D03*
X282520313Y-66860938D03*
X282520313Y-67660938D03*
X282520313Y-68460938D03*
X282520313Y-69260938D03*
X282520313Y-70060938D03*
X282520313Y-70860938D03*
X282520313Y-71660938D03*
X282520313Y-72460938D03*
D21*
X280820313Y-74160938D03*
X280020313Y-74160938D03*
X279220313Y-74160938D03*
X278420313Y-74160938D03*
X277620313Y-74160938D03*
X276820313Y-74160938D03*
X276020313Y-74160938D03*
X275220313Y-74160938D03*
X274420313Y-74160938D03*
X273620313Y-74160938D03*
X272820313Y-74160938D03*
D10*
G36*
X276502115Y-60709433D02*
X275653587Y-59860905D01*
X276643537Y-58870955D01*
X277492065Y-59719483D01*
X276502115Y-60709433D01*
X276502115Y-60709433D01*
G37*
G36*
X278199171Y-59012377D02*
X277350643Y-58163849D01*
X278340593Y-57173899D01*
X279189121Y-58022427D01*
X278199171Y-59012377D01*
X278199171Y-59012377D01*
G37*
G36*
X275300033Y-59507351D02*
X274451505Y-58658823D01*
X275441455Y-57668873D01*
X276289983Y-58517401D01*
X275300033Y-59507351D01*
X275300033Y-59507351D01*
G37*
G36*
X276997089Y-57810295D02*
X276148561Y-56961767D01*
X277138511Y-55971817D01*
X277987039Y-56820345D01*
X276997089Y-57810295D01*
X276997089Y-57810295D01*
G37*
M02*
